<svg id="svg" version="1.1" width="150" height="150" xmlns="http://www.w3.org/2000/svg"><path d="M63.500 11.404 C 29.354 17.975,6.093 49.780,10.970 83.228 C 14.858 109.894,33.382 130.843,59.000 137.546 C 67.521 139.775,82.484 139.778,90.915 137.553 C 119.955 129.888,139.246 104.920,139.246 75.000 C 139.246 59.618,134.794 46.613,125.456 34.715 C 111.175 16.519,86.047 7.065,63.500 11.404 M108.429 56.571 C 110.476 58.619,110.737 82.609,108.742 85.338 C 107.636 86.851,105.745 87.024,92.992 86.779 L 78.500 86.500 78.222 72.136 C 78.033 62.397,78.314 57.326,79.094 56.386 C 80.870 54.247,106.264 54.407,108.429 56.571 M56.461 57.957 C 57.813 59.451,59.802 59.983,64.866 60.207 L 71.500 60.500 71.500 71.500 L 71.500 82.500 64.262 82.794 C 58.281 83.036,56.842 83.427,55.977 85.044 C 55.091 86.698,53.854 87.000,47.965 87.000 C 41.667 87.000,41.000 86.809,41.000 85.000 C 41.000 83.141,40.333 83.000,31.519 83.000 C 22.141 83.000,22.031 82.972,21.385 80.398 C 20.724 77.763,21.500 66.382,22.622 62.250 C 23.198 60.131,23.752 60.000,32.117 60.000 C 40.333 60.000,41.000 59.850,41.000 58.000 C 41.000 56.195,41.667 56.000,47.845 56.000 C 53.370 56.000,55.032 56.377,56.461 57.957 M43.000 71.500 C 43.000 81.944,43.247 84.000,44.500 84.000 C 45.753 84.000,46.000 81.944,46.000 71.500 C 46.000 61.056,45.753 59.000,44.500 59.000 C 43.247 59.000,43.000 61.056,43.000 71.500 M127.024 61.562 C 128.379 65.126,129.404 77.256,128.615 80.398 C 127.976 82.945,127.782 83.000,119.481 83.000 L 111.000 83.000 111.000 71.667 C 111.000 65.433,111.300 60.033,111.667 59.667 C 112.033 59.300,115.419 59.000,119.191 59.000 C 125.631 59.000,126.109 59.156,127.024 61.562 M86.206 71.250 L 86.500 78.500 93.750 78.794 L 101.000 79.088 101.000 71.544 L 101.000 64.000 93.456 64.000 L 85.912 64.000 86.206 71.250 M60.000 71.560 L 60.000 78.121 63.750 77.810 L 67.500 77.500 67.798 71.250 L 68.095 65.000 64.048 65.000 L 60.000 65.000 60.000 71.560 M99.000 71.500 L 99.000 77.000 93.500 77.000 L 88.000 77.000 88.000 71.500 L 88.000 66.000 93.500 66.000 L 99.000 66.000 99.000 71.500 M60.259 98.500 C 66.131 101.800,70.950 104.778,70.968 105.119 C 71.030 106.314,49.649 118.079,48.332 117.574 C 45.605 116.527,47.199 114.402,53.262 111.000 L 59.500 107.500 45.750 107.222 C 32.826 106.960,32.000 106.825,32.000 104.972 C 32.000 103.106,32.737 102.999,45.750 102.985 L 59.500 102.969 53.250 99.427 C 49.813 97.478,47.000 95.722,47.000 95.524 C 47.000 94.312,48.356 91.963,48.914 92.208 C 49.282 92.368,54.387 95.200,60.259 98.500 M102.000 92.418 C 102.000 92.648,102.256 93.504,102.570 94.321 C 102.970 95.363,101.256 96.873,96.820 99.387 L 90.500 102.969 104.250 102.985 C 117.263 102.999,118.000 103.106,118.000 104.972 C 118.000 106.825,117.174 106.960,104.250 107.222 L 90.500 107.500 96.738 111.000 C 102.798 114.400,104.395 116.527,101.671 117.573 C 100.318 118.092,78.966 106.388,79.041 105.168 C 79.081 104.499,99.838 92.284,101.250 92.098 C 101.662 92.044,102.000 92.188,102.000 92.418 " stroke="none" fill="#00A7BC" fill-rule="evenodd"/></svg>