<svg id="svg" version="1.1" width="150" height="150" xmlns="http://www.w3.org/2000/svg"><path d="M63.500 11.404 C 40.875 15.758,22.549 31.001,14.632 52.050 C 1.085 88.065,21.761 127.897,59.000 137.526 C 67.595 139.748,82.554 139.752,91.000 137.534 C 113.361 131.662,131.722 113.295,137.517 91.000 C 139.742 82.441,139.757 67.459,137.550 59.085 C 128.892 26.230,96.118 5.127,63.500 11.404 M92.212 26.980 C 101.700 30.532,108.377 38.133,110.456 47.750 C 110.843 49.538,111.573 51.000,112.079 51.000 C 112.586 51.000,113.000 53.195,113.000 55.879 C 113.000 60.364,113.244 60.858,116.020 62.008 C 120.361 63.806,124.000 68.533,124.000 72.374 C 124.000 77.785,119.983 94.361,118.192 96.341 C 115.458 99.362,111.402 101.000,106.658 101.000 C 102.644 101.000,102.151 101.265,101.538 103.750 C 100.622 107.456,95.856 114.779,91.802 118.707 C 85.972 124.358,75.809 126.463,66.645 123.919 C 59.915 122.050,50.413 111.479,48.456 103.683 C 47.855 101.286,47.319 101.000,43.426 101.000 C 37.618 101.000,32.403 98.383,30.634 94.581 C 28.892 90.835,26.000 77.038,26.000 72.470 C 26.000 68.529,29.585 63.829,33.980 62.008 C 36.756 60.858,37.000 60.364,37.000 55.879 C 37.000 53.195,37.376 51.000,37.836 51.000 C 38.296 51.000,39.392 48.413,40.273 45.250 C 41.260 41.705,43.278 37.860,45.537 35.224 C 52.132 27.526,59.046 25.159,75.212 25.067 C 84.556 25.014,87.994 25.400,92.212 26.980 M59.196 30.897 C 51.139 33.680,45.537 40.002,43.600 48.500 L 42.916 51.500 44.869 48.373 C 48.346 42.804,54.176 37.812,60.854 34.688 C 75.814 27.687,94.432 32.811,103.622 46.457 C 107.551 52.291,107.734 52.038,104.957 44.615 C 102.384 37.739,96.925 32.649,89.878 30.556 C 82.420 28.342,66.070 28.523,59.196 30.897 M66.500 36.338 C 60.328 38.384,56.833 40.474,52.767 44.554 C 46.878 50.462,44.579 56.162,44.151 65.913 C 43.821 73.431,43.998 74.495,45.813 75.913 C 47.969 77.598,48.945 81.687,47.676 83.724 C 46.727 85.248,51.001 101.121,53.879 106.762 C 59.031 116.862,65.170 121.000,75.000 121.000 C 84.840 121.000,90.944 116.880,96.153 106.722 C 99.211 100.758,103.016 85.416,101.750 84.150 C 100.371 82.771,101.765 76.000,103.429 76.000 C 106.356 76.000,106.963 63.183,104.394 55.643 C 102.170 49.114,94.371 40.836,87.770 37.997 C 81.414 35.262,71.969 34.526,66.500 36.338 " stroke="none" fill="#00A7BC" fill-rule="evenodd"/></svg>