<svg id="svg" version="1.1" width="150" height="150" xmlns="http://www.w3.org/2000/svg"><path d="M63.500 11.404 C 29.354 17.975,6.093 49.780,10.970 83.228 C 14.858 109.894,33.382 130.843,59.000 137.546 C 67.521 139.775,82.484 139.778,90.915 137.553 C 119.955 129.888,139.246 104.920,139.246 75.000 C 139.246 59.618,134.794 46.613,125.456 34.715 C 111.175 16.519,86.047 7.065,63.500 11.404 M88.764 33.458 C 88.909 33.588,84.926 36.031,79.914 38.887 C 72.710 42.991,70.507 43.835,69.400 42.917 C 67.243 41.127,67.686 40.214,71.750 38.068 L 75.500 36.088 62.750 36.044 L 50.000 36.000 50.000 33.500 L 50.000 31.000 62.750 30.983 L 75.500 30.966 72.000 28.798 C 70.075 27.605,68.351 26.527,68.169 26.400 C 67.987 26.274,68.332 25.247,68.937 24.118 C 69.998 22.136,70.358 22.259,79.268 27.643 C 84.346 30.712,88.619 33.329,88.764 33.458 M42.691 74.338 L 42.882 110.000 39.941 110.000 L 37.000 110.000 37.000 74.217 L 37.000 38.434 39.750 38.555 L 42.500 38.676 42.691 74.338 M106.165 45.947 C 95.338 51.405,94.303 52.256,85.291 63.101 C 84.134 64.492,84.574 65.180,88.644 68.351 C 92.652 71.473,94.073 72.000,98.490 72.000 C 102.759 72.000,104.070 71.551,106.076 69.401 C 109.109 66.149,117.134 62.000,120.390 62.000 C 121.741 62.000,124.231 63.165,125.923 64.589 C 129.402 67.516,129.961 71.281,127.345 74.171 C 125.857 75.815,123.852 76.000,107.480 76.000 C 90.832 76.000,89.053 76.170,86.747 77.984 C 83.572 80.482,82.534 84.462,84.083 88.201 C 86.204 93.321,89.053 94.000,108.419 94.000 C 123.580 94.000,125.860 94.202,125.362 95.500 C 124.917 96.658,122.987 97.000,116.893 97.000 L 109.000 97.000 109.000 101.418 C 109.000 103.848,108.720 106.565,108.379 107.455 C 107.453 109.868,102.397 112.138,99.543 111.421 C 97.838 110.994,96.239 111.453,94.400 112.900 C 89.509 116.747,84.892 115.247,80.093 108.250 C 78.039 105.256,77.436 105.000,72.432 105.000 L 67.000 105.000 67.000 101.540 L 67.000 98.081 58.750 97.790 C 50.694 97.507,50.500 97.441,50.500 95.000 C 50.500 92.559,50.694 92.493,58.750 92.210 L 67.000 91.919 67.000 84.960 L 67.000 78.000 59.622 78.000 C 51.515 78.000,48.610 76.433,50.663 73.166 C 51.461 71.896,53.528 71.431,59.355 71.208 L 67.000 70.916 67.000 67.458 L 67.000 64.000 73.865 64.000 L 80.731 64.000 86.971 56.456 C 92.650 49.591,94.170 48.430,103.856 43.559 C 111.922 39.502,114.824 38.471,115.840 39.300 C 116.878 40.147,114.700 41.643,106.165 45.947 M112.500 68.797 L 107.500 71.500 115.412 71.795 C 126.042 72.191,128.090 71.232,124.429 67.571 C 122.160 65.302,118.213 65.708,112.500 68.797 M69.999 84.750 C 69.999 87.430,70.127 87.491,74.999 87.153 C 79.517 86.840,80.000 86.575,80.000 84.403 C 80.000 82.186,79.613 82.000,75.000 82.000 C 70.212 82.000,70.000 82.117,69.999 84.750 M89.000 100.826 C 86.525 102.951,83.905 104.884,83.178 105.119 C 82.191 105.439,82.399 106.238,84.001 108.274 C 87.386 112.577,94.000 111.602,94.000 106.800 C 94.000 104.609,95.321 104.476,97.000 106.500 C 98.580 108.403,103.385 108.446,104.942 106.570 C 105.595 105.783,105.988 103.421,105.815 101.320 L 105.500 97.500 99.500 97.230 C 93.810 96.975,93.267 97.161,89.000 100.826 " stroke="none" fill="#DF2823" fill-rule="evenodd"/></svg>