<svg id="svg" version="1.1" width="150" height="150" xmlns="http://www.w3.org/2000/svg"><path d="M63.500 11.404 C 29.354 17.975,6.093 49.780,10.970 83.228 C 14.858 109.894,33.382 130.843,59.000 137.546 C 67.521 139.775,82.484 139.778,90.915 137.553 C 119.955 129.888,139.246 104.920,139.246 75.000 C 139.246 59.618,134.794 46.613,125.456 34.715 C 111.175 16.519,86.047 7.065,63.500 11.404 M93.218 26.187 C 104.932 31.663,114.271 44.052,115.685 55.989 L 116.279 61.000 72.139 61.000 C 47.863 61.000,28.007 60.663,28.015 60.250 C 28.051 58.504,29.760 57.226,33.824 55.905 C 37.761 54.626,38.359 53.977,40.497 48.667 C 45.195 36.993,51.986 29.878,62.729 25.375 C 67.700 23.290,69.817 22.994,78.000 23.234 C 85.831 23.465,88.504 23.983,93.218 26.187 M41.287 74.657 C 39.978 79.968,39.138 84.918,39.422 85.657 C 39.714 86.419,41.417 87.000,43.356 87.000 L 46.774 87.000 47.170 94.011 C 47.650 102.498,50.175 105.811,56.847 106.706 L 61.000 107.263 61.000 113.525 C 61.000 118.312,61.372 119.929,62.582 120.393 C 65.682 121.583,95.535 121.065,96.800 119.800 C 97.516 119.084,98.010 115.557,98.024 111.050 C 98.057 101.046,99.227 96.361,104.542 84.947 C 107.680 78.207,109.065 73.867,109.245 70.205 C 109.458 65.878,109.814 65.013,111.387 65.007 C 114.492 64.995,113.111 76.072,109.002 84.131 C 103.780 94.372,102.820 97.875,102.079 109.389 C 101.415 119.692,101.226 120.409,98.560 122.702 C 95.778 125.095,95.523 125.122,78.404 124.813 C 58.323 124.450,57.888 124.267,57.027 115.801 C 56.543 111.040,56.253 110.556,53.462 109.836 C 51.792 109.405,49.095 107.665,47.470 105.968 C 45.120 103.516,44.410 101.729,44.007 97.251 C 43.531 91.964,43.312 91.570,40.428 90.827 C 35.057 89.443,34.398 86.550,37.010 75.823 C 39.681 64.851,39.614 65.000,41.893 65.000 C 43.550 65.000,43.510 65.636,41.287 74.657 M58.593 68.513 C 59.674 72.822,55.214 75.814,52.200 72.800 C 49.505 70.105,51.606 66.000,55.681 66.000 C 57.283 66.000,58.150 66.748,58.593 68.513 " stroke="none" fill="#0B5ED7" fill-rule="evenodd"/></svg>