<svg id="svg" version="1.1" width="150" height="150" xmlns="http://www.w3.org/2000/svg"><path d="M63.500 11.404 C 29.354 17.975,6.093 49.780,10.970 83.228 C 14.858 109.894,33.382 130.843,59.000 137.546 C 67.521 139.775,82.484 139.778,90.915 137.553 C 119.955 129.888,139.246 104.920,139.246 75.000 C 139.246 59.618,134.794 46.613,125.456 34.715 C 111.175 16.519,86.047 7.065,63.500 11.404 M86.777 22.557 C 88.000 23.413,89.000 24.688,89.000 25.390 C 89.000 26.155,90.260 26.667,92.142 26.667 C 96.981 26.667,97.997 28.964,98.017 39.941 C 98.040 52.288,99.442 65.622,102.229 80.000 C 103.455 86.325,104.468 91.894,104.479 92.376 C 104.491 92.857,100.675 94.248,96.000 95.466 C 91.325 96.683,86.541 97.990,85.368 98.370 C 83.894 98.847,83.052 98.578,82.638 97.498 C 81.945 95.693,83.232 95.103,93.716 92.421 C 100.045 90.802,100.875 90.324,100.472 88.537 C 97.573 75.672,95.727 61.069,95.284 47.500 C 94.997 38.700,94.318 30.947,93.776 30.271 C 93.073 29.394,92.247 29.333,90.895 30.056 C 89.385 30.865,89.000 32.196,89.000 36.619 C 89.000 40.611,88.650 42.051,87.750 41.753 C 86.921 41.478,86.403 38.618,86.211 33.262 C 85.987 26.989,85.567 25.048,84.334 24.575 C 81.094 23.331,80.000 25.888,80.000 34.706 C 80.000 41.028,79.684 43.063,78.750 42.755 C 77.964 42.496,77.314 39.589,77.000 34.921 C 76.547 28.203,76.290 27.470,74.286 27.185 C 72.138 26.880,72.063 27.181,71.786 37.173 C 71.542 45.959,71.248 47.525,69.791 47.804 C 68.309 48.087,68.044 47.031,67.791 39.815 C 67.560 33.220,67.190 31.500,66.000 31.500 C 64.768 31.500,64.450 33.597,64.218 43.250 C 64.063 49.712,63.556 55.000,63.091 55.000 C 60.508 55.000,59.834 51.721,60.317 41.500 C 60.843 30.374,61.745 28.000,65.448 28.000 C 66.660 28.000,68.740 26.841,70.071 25.424 C 71.823 23.560,73.183 22.986,74.996 23.347 C 76.373 23.621,78.374 23.205,79.441 22.423 C 81.948 20.586,84.017 20.624,86.777 22.557 M53.707 56.250 C 54.598 57.420,57.698 64.445,60.030 70.578 C 60.594 72.063,61.326 73.007,61.657 72.677 C 61.987 72.346,60.998 69.114,59.459 65.493 C 56.901 59.473,56.798 58.774,58.253 57.318 C 59.129 56.443,60.442 55.962,61.172 56.249 C 62.338 56.708,86.000 110.540,86.000 112.732 C 86.000 113.200,82.963 114.387,79.250 115.372 C 75.537 116.356,68.246 118.909,63.047 121.045 C 57.848 123.180,53.539 124.831,53.471 124.714 C 53.403 124.596,48.993 112.173,43.670 97.107 C 33.686 68.846,33.345 67.000,38.099 67.000 C 40.325 67.000,42.121 69.706,44.570 76.750 C 45.574 79.638,46.756 82.000,47.198 82.000 C 48.331 82.000,48.367 82.134,44.500 72.000 C 40.515 61.557,40.354 60.462,42.678 59.570 C 44.979 58.687,46.377 60.413,49.505 68.000 C 52.186 74.500,54.000 77.442,54.000 75.289 C 54.000 74.677,52.418 70.480,50.483 65.961 C 47.772 59.627,47.228 57.431,48.106 56.373 C 49.528 54.659,52.447 54.595,53.707 56.250 M77.545 59.455 C 79.143 61.052,80.000 63.042,80.000 65.153 C 80.000 70.239,77.679 85.000,76.879 85.000 C 75.289 85.000,74.926 78.663,76.111 71.609 C 77.135 65.518,77.126 63.856,76.060 62.573 C 74.376 60.543,70.000 60.490,70.000 62.500 C 70.000 64.554,68.365 64.393,67.546 62.259 C 66.759 60.208,70.181 57.000,73.156 57.000 C 74.220 57.000,76.195 58.105,77.545 59.455 " stroke="none" fill="#992C96" fill-rule="evenodd"/></svg>