<svg id="svg" version="1.1" width="150" height="150" xmlns="http://www.w3.org/2000/svg"><path d="M63.500 11.404 C 29.354 17.975,6.093 49.780,10.970 83.228 C 14.858 109.894,33.382 130.843,59.000 137.546 C 67.521 139.775,82.484 139.778,90.915 137.553 C 119.955 129.888,139.246 104.920,139.246 75.000 C 139.246 59.618,134.794 46.613,125.456 34.715 C 111.175 16.519,86.047 7.065,63.500 11.404 M77.765 57.750 L 78.029 88.000 93.515 88.000 L 109.000 88.000 109.000 91.500 L 109.000 95.000 75.000 95.000 L 41.000 95.000 41.000 91.500 L 41.000 88.000 56.500 88.000 L 72.000 88.000 72.000 57.434 L 72.000 26.867 74.750 27.184 L 77.500 27.500 77.765 57.750 M99.000 105.000 L 99.000 108.000 75.000 108.000 L 51.000 108.000 51.000 105.000 L 51.000 102.000 75.000 102.000 L 99.000 102.000 99.000 105.000 M88.000 118.000 L 88.000 121.000 75.000 121.000 L 62.000 121.000 62.000 118.000 L 62.000 115.000 75.000 115.000 L 88.000 115.000 88.000 118.000 " stroke="none" fill="#00A7BC" fill-rule="evenodd"/></svg>