<svg id="svg" version="1.1" width="150" height="150" xmlns="http://www.w3.org/2000/svg"><path d="M65.000 11.074 C 41.717 15.125,22.646 30.636,14.622 52.050 C 1.090 88.163,21.633 127.667,59.085 137.553 C 67.508 139.776,82.492 139.776,90.915 137.553 C 138.295 125.047,155.274 67.664,122.410 31.111 C 116.082 24.073,104.950 16.909,95.476 13.779 C 86.341 10.761,73.401 9.612,65.000 11.074 M112.500 75.000 L 112.500 112.500 75.000 112.500 L 37.500 112.500 37.238 74.738 L 36.976 36.976 74.738 37.238 L 112.500 37.500 112.500 75.000 M39.869 39.250 C 39.796 39.388,39.644 41.638,39.530 44.250 L 39.322 49.000 44.161 49.000 L 49.000 49.000 49.000 44.000 L 49.000 39.000 44.500 39.000 C 42.025 39.000,39.941 39.112,39.869 39.250 M52.000 44.026 C 52.000 48.661,53.055 50.338,54.500 48.000 C 54.840 47.450,55.991 47.000,57.059 47.000 C 58.127 47.000,59.000 47.450,59.000 48.000 C 59.000 48.550,59.700 49.000,60.555 49.000 C 61.783 49.000,62.045 48.019,61.805 44.335 L 61.500 39.671 56.750 39.361 L 52.000 39.051 52.000 44.026 M64.000 43.945 L 64.000 49.000 69.055 49.000 L 74.110 49.000 73.805 44.250 L 73.500 39.500 68.750 39.195 L 64.000 38.890 64.000 43.945 M76.488 39.845 C 76.220 40.114,76.000 42.283,76.000 44.667 L 76.000 49.000 81.055 49.000 L 86.110 49.000 85.805 44.250 L 85.500 39.500 81.238 39.429 C 78.894 39.389,76.757 39.577,76.488 39.845 M88.541 39.793 C 88.243 40.090,88.000 42.283,88.000 44.667 L 88.000 49.000 93.000 49.000 L 98.000 49.000 98.000 44.036 L 98.000 39.073 93.541 39.163 C 91.088 39.212,88.838 39.495,88.541 39.793 M100.936 39.393 C 100.901 39.452,100.789 41.638,100.686 44.251 L 100.500 49.002 105.500 49.001 L 110.500 49.001 110.163 44.143 L 109.826 39.286 105.413 39.286 C 102.986 39.286,100.971 39.334,100.936 39.393 M39.283 56.500 C 39.213 60.940,40.240 62.422,41.362 59.500 C 41.678 58.675,42.776 58.000,43.802 58.000 C 46.515 58.000,47.005 57.105,45.773 54.400 C 45.017 52.742,43.857 52.000,42.017 52.000 C 39.539 52.000,39.350 52.311,39.283 56.500 M68.207 54.041 C 66.694 56.462,67.395 58.000,70.009 58.000 C 71.050 58.000,72.359 58.788,72.920 59.750 C 73.717 61.118,73.946 60.463,73.970 56.750 C 73.997 52.476,73.774 52.000,71.741 52.000 C 70.498 52.000,68.908 52.918,68.207 54.041 M76.000 57.000 L 76.000 62.000 80.393 62.000 C 85.248 62.000,86.000 61.118,86.000 55.418 L 86.000 52.000 81.000 52.000 L 76.000 52.000 76.000 57.000 M88.008 55.750 C 88.014 58.841,88.489 59.720,90.707 60.750 C 92.188 61.438,94.434 62.000,95.699 62.000 C 97.793 62.000,98.000 61.551,98.000 57.000 L 98.000 52.000 93.000 52.000 L 88.000 52.000 88.008 55.750 M100.618 56.749 L 100.735 61.500 105.368 61.805 L 110.000 62.110 110.000 57.055 L 110.000 52.000 105.250 51.999 L 100.500 51.998 100.618 56.749 M52.558 53.907 C 52.249 54.405,52.898 54.578,53.999 54.290 C 56.334 53.679,56.629 53.000,54.559 53.000 C 53.766 53.000,52.866 53.408,52.558 53.907 M57.750 53.662 C 58.438 53.940,59.563 53.940,60.250 53.662 C 60.938 53.385,60.375 53.158,59.000 53.158 C 57.625 53.158,57.063 53.385,57.750 53.662 M53.250 56.662 C 52.563 56.940,52.000 58.279,52.000 59.638 C 52.000 61.962,52.283 62.091,56.741 61.805 C 60.448 61.566,61.560 61.090,61.839 59.620 C 62.036 58.586,61.590 57.355,60.848 56.885 C 59.396 55.964,55.279 55.844,53.250 56.662 M65.080 58.000 C 66.538 61.061,67.000 61.628,67.000 60.358 C 67.000 59.821,66.300 58.509,65.445 57.441 C 63.978 55.611,63.958 55.643,65.080 58.000 M47.000 59.000 C 46.409 60.105,46.341 61.000,46.848 61.000 C 47.353 61.000,48.002 60.100,48.290 59.000 C 48.577 57.900,48.646 57.000,48.442 57.000 C 48.237 57.000,47.589 57.900,47.000 59.000 M39.431 68.750 L 39.800 73.500 44.400 73.805 C 47.086 73.983,49.000 73.681,49.000 73.080 C 49.000 72.480,47.806 72.289,46.144 72.621 C 42.585 73.333,41.112 70.638,43.574 67.918 C 45.579 65.703,44.665 64.000,41.472 64.000 C 39.211 64.000,39.084 64.295,39.431 68.750 M46.571 66.000 C 46.930 67.375,47.624 68.927,48.112 69.450 C 49.540 70.977,49.102 68.786,47.423 66.000 L 45.917 63.500 46.571 66.000 M52.184 66.649 C 52.611 70.228,55.125 71.692,58.697 70.443 C 60.697 69.744,61.591 68.680,61.816 66.732 C 62.125 64.070,62.002 64.000,57.000 64.000 C 52.035 64.000,51.877 64.087,52.184 66.649 M65.573 67.154 C 63.761 70.787,63.653 71.332,64.902 70.561 C 65.816 69.996,68.210 64.000,67.521 64.000 C 67.315 64.000,66.439 65.419,65.573 67.154 M69.461 65.063 C 69.100 65.648,69.559 66.960,70.482 67.980 C 71.814 69.452,71.930 70.263,71.045 71.917 C 70.085 73.711,70.212 74.000,71.965 74.000 C 74.190 74.000,74.603 71.995,72.997 68.995 C 72.327 67.743,72.327 66.916,72.997 66.502 C 73.549 66.161,74.000 65.459,74.000 64.941 C 74.000 63.649,70.273 63.749,69.461 65.063 M79.517 65.389 C 81.447 66.800,84.000 66.518,84.000 64.893 C 84.000 64.402,82.564 64.000,80.809 64.000 C 77.841 64.000,77.751 64.097,79.517 65.389 M92.000 64.893 C 92.000 66.518,94.553 66.800,96.483 65.389 C 98.249 64.097,98.159 64.000,95.191 64.000 C 93.436 64.000,92.000 64.402,92.000 64.893 M102.321 65.444 C 104.000 66.717,104.023 67.055,102.611 69.785 C 100.742 73.399,101.249 74.000,106.167 74.000 L 110.000 74.000 110.000 69.000 L 110.000 64.000 105.250 64.032 C 100.995 64.060,100.690 64.207,102.321 65.444 M83.000 67.722 C 80.406 68.696,76.000 72.094,76.000 73.119 C 76.000 73.660,77.505 72.954,79.344 71.551 C 81.184 70.148,83.182 69.000,83.785 69.000 C 84.388 69.000,85.160 68.550,85.500 68.000 C 86.168 66.920,85.370 66.831,83.000 67.722 M91.395 68.568 C 93.537 69.353,95.900 70.502,96.645 71.120 C 97.654 71.958,98.000 71.945,98.000 71.071 C 98.000 69.734,91.965 66.964,89.282 67.070 C 88.302 67.109,89.253 67.783,91.395 68.568 M88.558 71.775 C 87.222 73.111,88.222 74.000,91.059 74.000 C 92.741 74.000,93.873 73.604,93.575 73.121 C 92.883 72.002,89.294 71.039,88.558 71.775 M52.655 73.250 C 52.909 73.662,54.865 74.000,57.000 74.000 C 59.135 74.000,61.091 73.662,61.345 73.250 C 61.600 72.838,59.645 72.500,57.000 72.500 C 54.355 72.500,52.400 72.838,52.655 73.250 M64.500 73.000 C 64.143 73.577,65.070 73.994,66.691 73.985 C 68.872 73.973,69.165 73.753,68.000 73.000 C 66.079 71.758,65.267 71.758,64.500 73.000 M82.500 73.000 C 82.160 73.550,82.809 74.000,83.941 74.000 C 85.073 74.000,86.000 73.550,86.000 73.000 C 86.000 72.450,85.352 72.000,84.559 72.000 C 83.766 72.000,82.840 72.450,82.500 73.000 M39.729 76.750 C 39.514 77.162,39.403 79.300,39.481 81.500 L 39.623 85.500 44.312 85.805 L 49.000 86.110 49.000 81.055 L 49.000 76.000 44.559 76.000 C 42.116 76.000,39.943 76.338,39.729 76.750 M53.750 78.083 C 52.788 79.138,52.000 81.350,52.000 83.000 C 52.000 85.933,52.111 86.000,57.000 86.000 C 61.820 86.000,62.000 85.898,62.000 83.174 C 62.000 80.440,58.441 75.905,56.436 76.083 C 55.921 76.129,54.712 77.029,53.750 78.083 M64.000 81.000 L 64.000 86.000 68.000 86.000 C 72.672 86.000,73.589 83.555,69.500 82.000 C 67.744 81.333,67.000 80.298,67.000 78.525 C 67.000 76.947,66.437 76.000,65.500 76.000 C 64.367 76.000,64.000 77.222,64.000 81.000 M78.436 78.398 C 78.105 79.717,77.984 81.855,78.167 83.148 C 78.439 85.071,79.185 85.557,82.250 85.810 L 86.000 86.121 86.000 81.060 L 86.000 76.000 82.519 76.000 C 79.679 76.000,78.927 76.442,78.436 78.398 M88.000 81.055 L 88.000 86.110 92.750 85.805 C 96.869 85.540,97.544 85.188,97.833 83.148 C 98.016 81.855,97.895 79.717,97.564 78.398 C 97.041 76.314,96.376 76.000,92.481 76.000 L 88.000 76.000 88.000 81.055 M101.170 81.000 C 101.141 85.640,101.304 86.150,102.216 84.261 C 102.976 82.685,102.986 81.057,102.250 78.761 C 101.250 75.644,101.203 75.742,101.170 81.000 M109.030 78.275 C 109.008 80.299,108.324 81.306,106.500 82.000 C 102.989 83.335,103.235 86.000,106.869 86.000 C 109.397 86.000,109.809 85.565,110.332 82.344 C 110.658 80.333,110.505 77.971,109.993 77.094 C 109.256 75.833,109.054 76.080,109.030 78.275 M39.721 88.750 C 39.503 89.162,39.233 91.412,39.121 93.750 L 38.919 98.000 43.959 98.000 L 49.000 98.000 49.000 93.000 L 49.000 88.000 44.559 88.000 C 42.116 88.000,39.939 88.338,39.721 88.750 M52.000 92.945 L 52.000 98.000 57.055 98.000 L 62.110 98.000 61.805 93.250 L 61.500 88.500 56.750 88.195 L 52.000 87.890 52.000 92.945 M64.000 93.000 L 64.000 98.000 69.000 98.000 C 73.333 98.000,74.000 97.733,74.000 96.000 C 74.000 94.758,73.333 94.000,72.241 94.000 C 70.255 94.000,67.619 90.425,68.525 88.959 C 68.851 88.432,67.966 88.000,66.559 88.000 C 64.155 88.000,64.000 88.303,64.000 93.000 M76.000 89.355 C 76.000 90.185,77.237 91.735,78.750 92.801 C 82.311 95.309,86.000 96.462,86.000 95.067 C 86.000 94.480,85.135 94.000,84.077 94.000 C 83.019 94.000,80.769 92.615,79.077 90.923 C 77.027 88.873,76.000 88.350,76.000 89.355 M82.441 89.532 C 84.915 91.403,86.000 91.393,86.000 89.500 C 86.000 88.523,85.042 88.011,83.250 88.032 C 80.616 88.062,80.582 88.126,82.441 89.532 M88.000 89.500 C 88.000 90.413,88.931 91.000,90.378 91.000 C 91.685 91.000,93.315 90.325,94.000 89.500 C 95.068 88.214,94.729 88.000,91.622 88.000 C 89.069 88.000,88.000 88.443,88.000 89.500 M107.475 88.959 C 108.581 90.750,105.601 94.000,102.853 94.000 C 100.680 94.000,100.284 94.369,100.710 96.000 C 101.133 97.616,102.074 98.000,105.617 98.000 L 110.000 98.000 110.000 93.000 C 110.000 89.138,109.645 88.000,108.441 88.000 C 107.584 88.000,107.149 88.432,107.475 88.959 M95.473 92.354 C 94.388 93.099,92.150 94.188,90.500 94.775 C 87.814 95.730,87.746 95.850,89.846 95.921 C 92.317 96.004,98.000 93.121,98.000 91.784 C 98.000 90.728,97.764 90.781,95.473 92.354 M76.000 95.378 C 76.000 98.188,77.432 98.922,78.334 96.573 C 78.635 95.788,78.233 94.608,77.441 93.951 C 76.249 92.962,76.000 93.208,76.000 95.378 M43.949 100.727 L 39.398 101.093 39.358 105.461 L 39.318 109.828 44.160 110.164 L 49.001 110.500 49.001 105.250 C 49.000 102.362,48.888 100.081,48.750 100.180 C 48.612 100.279,46.452 100.525,43.949 100.727 M51.999 105.250 L 52.000 110.000 57.055 110.000 L 62.110 110.000 61.805 105.368 L 61.500 100.735 56.749 100.618 L 51.998 100.500 51.999 105.250 M84.456 101.071 C 84.050 101.728,82.291 101.887,79.897 101.483 L 76.000 100.824 76.000 105.412 L 76.000 110.000 81.000 110.000 L 86.000 110.000 86.000 105.000 C 86.000 99.957,85.668 99.111,84.456 101.071 M89.250 100.718 C 88.506 100.985,88.000 102.956,88.000 105.583 L 88.000 110.000 93.000 110.000 L 98.000 110.000 98.000 105.481 C 98.000 101.154,97.893 100.989,95.487 101.593 C 94.105 101.940,92.417 101.784,91.737 101.246 C 91.057 100.708,89.938 100.471,89.250 100.718 M64.000 105.500 L 64.000 110.000 69.000 110.000 L 74.000 110.000 74.000 105.500 L 74.000 101.000 69.000 101.000 L 64.000 101.000 64.000 105.500 M100.500 105.500 L 100.500 110.000 105.149 110.000 L 109.799 110.000 110.157 105.500 L 110.514 101.000 105.507 101.000 L 100.500 101.000 100.500 105.500 " stroke="none" fill="#992C96" fill-rule="evenodd"/></svg>