<svg id="svg" version="1.1" width="150" height="150" xmlns="http://www.w3.org/2000/svg"><path d="M63.500 11.404 C 40.875 15.758,22.549 31.001,14.632 52.050 C 1.085 88.065,21.761 127.897,59.000 137.526 C 67.595 139.748,82.554 139.752,91.000 137.534 C 113.361 131.662,131.722 113.295,137.517 91.000 C 139.742 82.441,139.757 67.459,137.550 59.085 C 128.892 26.230,96.118 5.127,63.500 11.404 M82.309 38.000 L 82.309 52.500 74.654 52.792 L 67.000 53.084 67.000 38.709 C 67.000 30.802,67.318 24.015,67.706 23.627 C 68.095 23.239,71.539 23.051,75.361 23.210 L 82.309 23.500 82.309 38.000 M110.962 52.664 C 111.217 52.899,105.522 65.108,98.309 79.796 C 84.608 107.689,82.990 111.948,82.654 121.000 L 82.451 126.500 74.975 126.500 L 67.500 126.500 66.805 120.000 C 66.423 116.425,65.817 111.862,65.459 109.860 C 64.887 106.665,65.229 105.747,68.251 102.360 C 70.145 100.237,77.718 86.734,85.079 72.353 L 98.463 46.205 104.482 49.221 C 107.792 50.880,110.708 52.429,110.962 52.664 M59.008 58.113 C 63.954 60.925,67.997 63.512,67.993 63.863 C 67.986 64.582,52.249 73.660,50.125 74.170 C 49.369 74.351,48.550 73.955,48.305 73.289 C 48.058 72.618,50.115 70.834,52.915 69.289 C 55.696 67.755,57.978 66.275,57.987 66.000 C 57.995 65.725,52.489 65.500,45.751 65.500 C 35.528 65.500,33.500 65.252,33.500 64.000 C 33.500 62.774,35.770 62.409,45.928 62.000 L 58.355 61.500 53.178 58.688 C 50.330 57.141,48.000 55.228,48.000 54.438 C 48.000 52.183,49.401 52.650,59.008 58.113 M71.571 105.571 C 70.707 106.436,70.000 107.979,70.000 109.000 C 70.000 110.021,70.707 111.564,71.571 112.429 C 74.572 115.429,80.000 113.275,80.000 109.084 C 80.000 106.943,76.956 104.000,74.743 104.000 C 73.863 104.000,72.436 104.707,71.571 105.571 " stroke="none" fill="#0B5ED7" fill-rule="evenodd"/></svg>