<svg id="svg" version="1.1" width="150" height="150" xmlns="http://www.w3.org/2000/svg"><path d="M63.500 11.404 C 40.875 15.758,22.549 31.001,14.632 52.050 C 1.085 88.065,21.761 127.897,59.000 137.526 C 67.595 139.748,82.554 139.752,91.000 137.534 C 113.361 131.662,131.722 113.295,137.517 91.000 C 139.742 82.441,139.757 67.459,137.550 59.085 C 128.892 26.230,96.118 5.127,63.500 11.404 M54.364 33.379 C 67.465 38.853,64.389 58.391,50.212 59.754 C 41.333 60.607,35.011 54.954,35.004 46.154 C 34.999 40.740,37.238 36.837,41.900 34.134 C 46.116 31.688,49.787 31.466,54.364 33.379 M93.995 44.250 C 93.992 44.938,89.723 48.121,84.508 51.324 C 79.293 54.528,74.848 57.453,74.630 57.824 C 74.413 58.196,75.764 61.628,77.634 65.451 C 79.503 69.275,80.913 72.702,80.766 73.069 C 80.620 73.435,77.501 70.051,73.836 65.550 L 67.172 57.365 79.336 50.229 C 91.723 42.962,94.004 42.032,93.995 44.250 M101.463 53.500 C 102.981 57.350,104.433 61.029,104.690 61.675 C 104.949 62.327,100.485 65.984,94.671 69.885 L 84.185 76.920 82.675 73.210 C 81.844 71.170,80.021 66.941,78.622 63.813 L 76.081 58.125 86.767 51.590 C 92.645 47.995,97.735 45.380,98.078 45.777 C 98.421 46.175,99.944 49.650,101.463 53.500 M59.000 65.936 C 60.375 66.908,64.738 72.994,68.694 79.462 C 72.651 85.930,76.076 91.409,76.305 91.638 C 76.533 91.867,80.564 89.792,85.261 87.027 C 95.167 81.197,98.812 80.674,101.927 84.635 C 104.740 88.210,104.532 91.136,101.250 94.157 C 97.343 97.754,75.482 110.000,72.969 110.000 C 69.241 110.000,67.450 108.282,61.036 98.555 C 57.571 93.300,54.337 89.000,53.850 89.000 C 53.363 89.000,55.448 92.708,58.483 97.241 L 64.000 105.482 64.000 115.574 C 64.000 121.125,63.737 125.929,63.416 126.251 C 62.455 127.212,52.008 123.213,46.874 119.919 C 44.240 118.229,39.366 113.940,36.043 110.387 L 30.000 103.927 30.000 86.052 L 30.000 68.178 32.902 65.736 C 35.658 63.417,36.319 63.317,46.152 63.733 C 53.905 64.061,57.127 64.613,59.000 65.936 M118.025 68.156 C 123.559 70.442,127.730 72.657,127.294 73.079 C 124.003 76.256,108.522 88.000,107.625 88.000 C 107.006 88.000,105.126 86.364,103.447 84.364 C 100.751 81.152,99.874 80.736,95.947 80.798 C 91.572 80.868,86.000 79.368,86.000 78.121 C 86.000 77.193,105.277 64.108,106.731 64.050 C 107.408 64.022,112.490 65.870,118.025 68.156 M77.843 72.929 C 80.130 75.641,82.000 78.287,82.000 78.811 C 82.000 79.927,73.296 82.301,72.043 81.527 C 70.934 80.841,66.000 72.424,66.000 71.217 C 66.000 70.470,70.297 68.583,73.093 68.102 C 73.420 68.046,75.557 70.218,77.843 72.929 " stroke="none" fill="#F58F08" fill-rule="evenodd"/></svg>