<svg id="svg" version="1.1" width="150" height="150" xmlns="http://www.w3.org/2000/svg"><path d="M63.500 11.404 C 40.786 15.775,22.587 30.919,14.624 52.076 C 1.072 88.078,21.687 127.783,59.000 137.546 C 67.521 139.775,82.484 139.778,90.915 137.553 C 119.942 129.891,139.197 104.982,139.269 75.000 C 139.305 59.724,134.822 46.648,125.456 34.715 C 111.175 16.519,86.047 7.065,63.500 11.404 M110.000 37.500 C 110.000 39.750,109.600 40.000,106.000 40.000 C 102.400 40.000,102.000 39.750,102.000 37.500 C 102.000 35.250,102.400 35.000,106.000 35.000 C 109.600 35.000,110.000 35.250,110.000 37.500 M110.000 48.000 L 110.000 54.000 106.000 54.000 C 103.111 54.000,102.000 53.583,102.000 52.500 C 102.000 51.302,100.513 51.000,94.617 51.000 C 87.992 51.000,87.178 51.213,86.692 53.069 C 86.258 54.729,85.494 55.075,82.826 54.819 C 79.820 54.531,79.472 54.163,79.205 51.000 C 79.042 49.062,79.563 46.608,80.372 45.500 C 81.844 43.483,83.419 43.281,106.250 42.181 L 110.000 42.000 110.000 48.000 M79.500 57.000 C 79.160 57.550,78.459 58.000,77.941 58.000 C 77.423 58.000,77.000 57.550,77.000 57.000 C 77.000 56.450,77.702 56.000,78.559 56.000 C 79.416 56.000,79.840 56.450,79.500 57.000 M88.500 57.000 C 88.160 57.550,87.459 58.000,86.941 58.000 C 86.423 58.000,86.000 57.550,86.000 57.000 C 86.000 56.450,86.702 56.000,87.559 56.000 C 88.416 56.000,88.840 56.450,88.500 57.000 M84.000 58.000 C 84.000 58.550,83.550 59.000,83.000 59.000 C 82.450 59.000,82.000 58.550,82.000 58.000 C 82.000 57.450,82.450 57.000,83.000 57.000 C 83.550 57.000,84.000 57.450,84.000 58.000 M77.500 61.000 C 77.840 61.550,77.390 62.000,76.500 62.000 C 75.610 62.000,75.160 61.550,75.500 61.000 C 75.840 60.450,76.290 60.000,76.500 60.000 C 76.710 60.000,77.160 60.450,77.500 61.000 M90.500 61.000 C 90.840 61.550,90.416 62.000,89.559 62.000 C 88.702 62.000,88.000 61.550,88.000 61.000 C 88.000 60.450,88.423 60.000,88.941 60.000 C 89.459 60.000,90.160 60.450,90.500 61.000 M84.000 62.500 C 84.000 63.325,83.550 64.000,83.000 64.000 C 82.450 64.000,82.000 63.325,82.000 62.500 C 82.000 61.675,82.450 61.000,83.000 61.000 C 83.550 61.000,84.000 61.675,84.000 62.500 M75.447 66.085 C 75.125 66.606,74.436 66.769,73.915 66.447 C 73.394 66.125,73.231 65.436,73.553 64.915 C 73.875 64.394,74.564 64.231,75.085 64.553 C 75.606 64.875,75.769 65.564,75.447 66.085 M92.000 66.000 C 92.000 66.550,91.550 67.000,91.000 67.000 C 90.450 67.000,90.000 66.550,90.000 66.000 C 90.000 65.450,90.450 65.000,91.000 65.000 C 91.550 65.000,92.000 65.450,92.000 66.000 M70.000 68.530 C 70.000 70.648,65.298 75.634,62.020 76.992 C 57.591 78.826,58.115 81.000,62.986 81.000 C 66.528 81.000,67.266 80.555,69.619 77.000 C 71.075 74.800,72.601 73.000,73.010 73.000 C 74.698 73.000,76.187 76.121,75.605 78.439 C 75.002 80.841,75.146 80.912,81.243 81.202 C 86.879 81.470,88.366 81.079,96.230 77.250 C 105.713 72.634,107.490 72.227,108.354 74.479 C 108.987 76.130,105.778 78.787,96.732 84.100 C 87.259 89.665,91.898 88.499,103.081 82.505 C 113.743 76.789,116.500 76.149,116.500 79.389 C 116.500 80.691,113.247 83.201,105.688 87.730 C 99.741 91.293,95.076 94.409,95.321 94.654 C 95.565 94.899,100.084 92.792,105.361 89.972 C 114.951 84.848,118.212 84.146,118.778 87.085 C 118.983 88.150,115.574 90.692,108.069 95.073 C 102.014 98.608,97.046 101.834,97.030 102.243 C 97.013 102.651,100.818 101.092,105.485 98.777 C 111.871 95.610,114.253 94.853,115.118 95.718 C 117.156 97.756,115.390 99.521,105.352 105.485 C 99.933 108.705,94.150 112.336,92.500 113.555 C 87.702 117.100,81.505 119.905,75.253 121.364 C 72.058 122.109,67.981 123.476,66.193 124.400 C 64.404 125.325,62.522 125.823,62.010 125.506 C 61.498 125.190,59.417 121.891,57.385 118.175 C 53.805 111.628,53.511 111.367,47.889 109.710 C 44.697 108.769,40.042 108.000,37.543 108.000 L 33.000 108.000 33.000 96.000 L 33.000 84.000 36.497 84.000 C 39.097 84.000,41.000 83.091,43.916 80.457 C 48.848 76.001,66.822 65.995,68.641 66.692 C 69.388 66.979,70.000 67.806,70.000 68.530 M84.000 67.000 C 84.000 67.550,83.550 68.000,83.000 68.000 C 82.450 68.000,82.000 67.550,82.000 67.000 C 82.000 66.450,82.450 66.000,83.000 66.000 C 83.550 66.000,84.000 66.450,84.000 67.000 M58.120 73.459 C 53.511 75.879,48.336 79.187,46.620 80.810 C 42.867 84.359,39.846 86.000,37.066 86.000 C 35.116 86.000,35.000 86.561,35.000 96.000 L 35.000 106.000 38.750 106.011 C 40.813 106.017,44.654 106.675,47.286 107.474 C 49.919 108.273,51.803 108.489,51.473 107.956 C 51.143 107.422,52.432 105.515,54.337 103.718 C 56.315 101.853,58.263 98.738,58.876 96.460 C 59.467 94.265,61.302 90.339,62.953 87.735 L 65.956 83.000 62.013 83.000 C 56.578 83.000,54.857 80.044,58.585 77.112 C 60.004 75.996,61.988 74.821,62.993 74.502 C 64.840 73.916,68.704 68.975,67.273 69.029 C 66.848 69.045,62.729 71.039,58.120 73.459 M74.000 70.000 C 74.000 70.550,73.550 71.000,73.000 71.000 C 72.450 71.000,72.000 70.550,72.000 70.000 C 72.000 69.450,72.450 69.000,73.000 69.000 C 73.550 69.000,74.000 69.450,74.000 70.000 M94.000 70.000 C 94.000 70.550,93.550 71.000,93.000 71.000 C 92.450 71.000,92.000 70.550,92.000 70.000 C 92.000 69.450,92.450 69.000,93.000 69.000 C 93.550 69.000,94.000 69.450,94.000 70.000 M84.000 72.000 C 84.000 72.550,83.550 73.000,83.000 73.000 C 82.450 73.000,82.000 72.550,82.000 72.000 C 82.000 71.450,82.450 71.000,83.000 71.000 C 83.550 71.000,84.000 71.450,84.000 72.000 M72.615 85.465 C 70.854 88.153,70.531 90.000,71.822 90.000 C 72.872 90.000,84.000 83.992,84.000 83.425 C 84.000 83.191,81.802 83.000,79.115 83.000 C 75.026 83.000,73.967 83.402,72.615 85.465 " stroke="none" fill="#992C96" fill-rule="evenodd"/></svg>