<svg id="svg" version="1.1" width="150" height="150" xmlns="http://www.w3.org/2000/svg"><path d="M65.000 11.071 C 45.891 14.406,30.731 24.518,20.037 41.064 C 12.424 52.843,8.917 69.150,10.970 83.228 C 14.861 109.919,33.311 130.750,59.085 137.553 C 67.507 139.776,82.492 139.776,90.913 137.553 C 119.901 129.902,139.246 104.865,139.246 75.000 C 139.246 40.017,113.285 12.671,78.073 10.564 C 73.908 10.315,68.025 10.543,65.000 11.071 M59.907 31.309 C 61.563 38.351,61.844 46.000,60.742 54.000 L 59.984 59.500 63.241 55.500 C 73.301 43.145,79.833 38.000,85.460 38.000 C 87.657 38.000,88.001 37.561,88.011 34.750 C 88.029 29.303,89.199 24.000,90.381 24.000 C 91.122 24.000,91.500 26.991,91.500 32.858 L 91.500 41.717 88.769 40.934 C 84.235 39.633,78.904 41.783,73.918 46.922 C 68.810 52.187,59.000 64.830,59.000 66.149 C 59.000 66.617,58.597 67.000,58.105 67.000 C 57.102 67.000,57.548 58.844,59.092 48.945 C 59.971 43.312,59.816 41.239,57.993 34.204 C 56.826 29.702,56.170 25.534,56.536 24.942 C 57.588 23.240,58.345 24.670,59.907 31.309 M98.593 47.558 C 104.853 51.438,105.085 52.601,99.511 52.157 C 96.056 51.883,94.007 52.392,90.646 54.362 C 82.529 59.118,76.752 67.749,68.501 87.442 C 60.130 107.424,52.743 120.000,49.379 120.000 C 47.339 120.000,46.014 115.935,47.259 113.500 C 47.821 112.400,49.567 110.375,51.138 109.000 C 54.602 105.968,56.846 96.658,57.724 81.675 L 58.299 71.851 65.515 62.175 C 69.484 56.854,74.862 50.537,77.466 48.137 C 82.108 43.859,82.314 43.782,88.023 44.195 C 92.211 44.498,95.177 45.442,98.593 47.558 M108.035 59.518 C 113.211 62.195,113.183 68.646,107.952 78.591 C 106.321 81.693,103.624 85.949,101.960 88.050 L 98.935 91.870 94.108 89.366 C 91.224 87.870,86.625 86.588,82.682 86.181 L 76.082 85.500 82.082 75.521 C 85.381 70.033,89.010 64.554,90.145 63.346 C 94.909 58.275,102.493 56.652,108.035 59.518 M73.775 85.562 C 74.373 86.631,76.519 87.234,80.574 87.474 C 83.833 87.667,88.166 88.536,90.202 89.406 L 93.904 90.987 92.452 94.461 C 91.592 96.520,91.000 101.209,91.000 105.968 C 91.000 115.167,89.795 117.190,83.303 118.891 C 76.456 120.686,51.000 123.476,51.000 122.432 C 51.000 122.064,52.269 120.319,53.820 118.553 C 56.806 115.151,65.143 99.374,69.040 89.750 C 71.478 83.729,72.328 82.977,73.775 85.562 M74.089 98.637 L 68.928 107.273 72.451 106.702 L 75.974 106.130 74.001 109.997 C 72.916 112.124,71.572 114.146,71.014 114.491 C 69.688 115.311,69.702 118.000,71.031 118.000 C 71.599 118.000,72.342 117.213,72.684 116.250 C 73.025 115.287,74.722 112.475,76.454 110.000 C 81.228 103.179,81.197 103.379,77.430 103.818 C 75.543 104.039,74.000 103.981,74.000 103.690 C 74.000 103.400,76.220 100.560,78.934 97.379 C 83.923 91.533,84.366 90.000,81.067 90.000 C 79.851 90.000,77.545 92.855,74.089 98.637 " stroke="none" fill="#7CBD2A" fill-rule="evenodd"/></svg>