<svg id="svg" version="1.1" width="150" height="150" xmlns="http://www.w3.org/2000/svg"><path d="M63.500 11.407 C 40.796 15.767,22.587 30.918,14.624 52.076 C 1.071 88.082,21.613 127.657,59.000 137.568 C 67.458 139.810,82.388 139.803,90.915 137.553 C 138.336 125.037,155.303 67.696,122.410 31.111 C 108.438 15.571,84.139 7.443,63.500 11.407 M88.500 27.041 C 93.003 28.749,96.145 30.962,101.091 35.909 C 108.813 43.630,112.089 50.827,112.342 60.622 C 112.488 66.280,112.703 66.820,115.184 67.760 C 122.414 70.498,117.309 90.740,108.314 95.000 C 105.908 96.139,104.852 97.542,103.921 100.831 C 101.364 109.864,92.611 120.580,85.282 123.652 C 81.102 125.403,67.862 125.387,63.645 123.625 C 56.235 120.529,48.701 111.256,45.467 101.250 C 44.301 97.645,43.238 96.000,42.072 96.000 C 37.970 96.000,31.804 85.864,30.504 76.985 C 29.957 73.248,30.214 71.997,31.994 69.735 C 33.177 68.231,34.675 66.999,35.323 66.997 C 36.083 66.995,36.556 64.781,36.658 60.747 C 36.878 52.022,40.090 44.157,46.130 37.548 C 52.000 31.125,56.110 28.412,63.836 25.858 C 71.033 23.480,80.283 23.923,88.500 27.041 M66.000 29.370 C 59.336 31.305,55.273 33.674,50.590 38.357 C 43.802 45.146,41.559 50.823,41.157 62.241 L 40.813 71.982 37.657 71.741 C 34.520 71.502,34.501 71.528,34.713 75.987 C 34.837 78.605,36.113 82.771,37.775 85.987 C 40.367 91.001,40.902 91.478,43.697 91.262 C 46.584 91.038,46.840 91.309,47.955 95.762 C 50.660 106.560,57.806 116.743,64.718 119.648 C 68.863 121.390,80.137 121.390,84.282 119.648 C 91.194 116.743,98.340 106.560,101.045 95.762 C 102.163 91.299,102.411 91.038,105.330 91.262 C 108.105 91.475,108.717 90.977,111.178 86.500 C 114.515 80.430,115.770 73.632,113.957 71.449 C 113.074 70.385,112.366 70.234,111.642 70.958 C 108.855 73.745,108.000 72.004,108.000 63.538 C 108.000 52.393,105.541 45.716,98.944 38.942 C 96.247 36.173,91.668 32.825,88.770 31.502 C 82.236 28.519,72.178 27.577,66.000 29.370 M69.089 69.170 C 73.350 71.565,76.015 71.342,83.694 67.947 C 88.379 65.875,89.299 65.773,93.067 66.902 C 95.364 67.590,98.335 69.244,99.668 70.577 C 101.297 72.206,103.223 73.000,105.545 73.000 C 107.949 73.000,109.000 73.456,109.000 74.500 C 109.000 75.500,108.000 76.000,106.000 76.000 C 104.000 76.000,103.000 76.500,103.000 77.500 C 103.000 78.500,104.000 79.000,106.000 79.000 C 108.000 79.000,109.000 79.500,109.000 80.500 C 109.000 81.563,107.923 82.000,105.305 82.000 C 102.636 82.000,100.812 82.764,98.739 84.750 C 96.238 87.147,95.071 87.500,89.660 87.500 C 84.735 87.500,82.859 87.035,80.591 85.250 C 79.017 84.013,76.502 83.000,75.000 83.000 C 73.498 83.000,70.983 84.013,69.409 85.250 C 67.089 87.076,65.283 87.500,59.840 87.500 C 53.884 87.500,52.809 87.191,50.261 84.750 C 48.188 82.764,46.364 82.000,43.695 82.000 C 41.077 82.000,40.000 81.563,40.000 80.500 C 40.000 79.500,41.000 79.000,43.000 79.000 C 45.000 79.000,46.000 78.500,46.000 77.500 C 46.000 76.500,45.000 76.000,43.000 76.000 C 41.000 76.000,40.000 75.500,40.000 74.500 C 40.000 73.424,41.099 73.000,43.893 73.000 C 46.478 73.000,47.985 72.482,48.378 71.458 C 48.703 70.610,50.889 69.023,53.235 67.933 C 58.265 65.594,63.445 65.998,69.089 69.170 " stroke="none" fill="#992C96" fill-rule="evenodd"/></svg>