<svg id="svg" version="1.1" width="150" height="150" xmlns="http://www.w3.org/2000/svg"><path d="M63.500 11.407 C 40.796 15.767,22.587 30.918,14.624 52.076 C 1.071 88.082,21.613 127.657,59.000 137.568 C 67.458 139.810,82.388 139.803,90.915 137.553 C 138.336 125.037,155.303 67.696,122.410 31.111 C 108.438 15.571,84.139 7.443,63.500 11.407 M74.000 44.000 C 74.000 57.333,74.365 65.000,75.000 65.000 C 75.635 65.000,76.000 57.333,76.000 44.000 C 76.000 23.792,76.074 23.000,77.965 23.000 C 79.045 23.000,80.411 23.900,81.000 25.000 C 81.780 26.458,83.094 27.000,85.844 27.000 C 87.920 27.000,90.364 27.563,91.276 28.250 C 92.795 29.395,105.000 62.510,105.000 65.486 C 105.000 67.136,97.955 68.546,97.048 67.077 C 96.684 66.489,94.613 60.833,92.444 54.506 C 90.275 48.180,88.233 43.003,87.907 43.002 C 87.580 43.001,87.240 48.513,87.151 55.250 C 87.017 65.431,87.733 72.145,91.393 95.000 C 94.243 112.797,95.439 122.722,94.784 123.130 C 93.713 123.796,84.848 125.185,84.426 124.753 C 84.290 124.614,82.241 114.042,79.873 101.261 C 77.505 88.479,75.274 78.579,74.915 79.261 C 74.556 79.942,72.336 90.541,69.981 102.813 L 65.700 125.125 61.600 124.490 C 54.607 123.405,53.953 123.055,54.492 120.682 C 54.764 119.482,56.967 106.125,59.386 91.000 C 63.458 65.545,63.722 62.766,62.932 53.623 C 62.462 48.190,61.943 43.610,61.779 43.445 C 61.614 43.280,59.510 48.776,57.103 55.659 L 52.728 68.172 49.114 67.497 C 47.126 67.125,45.279 66.604,45.010 66.337 C 44.140 65.478,56.440 30.560,58.250 28.750 C 59.328 27.672,61.522 27.000,63.965 27.000 C 66.906 27.000,68.206 26.484,69.000 25.000 C 69.589 23.900,70.955 23.000,72.035 23.000 C 73.926 23.000,74.000 23.792,74.000 44.000 M79.694 38.639 C 78.560 39.773,80.050 41.000,82.559 41.000 C 84.062 41.000,85.000 40.424,85.000 39.500 C 85.000 38.003,80.982 37.352,79.694 38.639 " stroke="none" fill="#0B5ED7" fill-rule="evenodd"/></svg>