<svg id="svg" version="1.1" width="150" height="150" xmlns="http://www.w3.org/2000/svg"><path d="M68.000 10.584 C 58.296 12.208,53.471 13.662,46.109 17.182 C 34.245 22.854,22.965 34.070,17.125 46.000 C 7.681 65.291,7.689 84.800,17.148 103.988 C 25.105 120.128,41.358 133.192,59.000 137.626 C 67.311 139.715,81.572 139.724,90.250 137.646 C 113.491 132.079,132.355 112.771,137.604 89.178 C 139.742 79.569,139.082 64.167,136.139 55.000 C 129.737 35.054,111.655 17.792,91.727 12.601 C 85.784 11.053,72.131 9.893,68.000 10.584 M91.344 24.808 C 98.442 28.162,105.161 34.519,108.494 41.033 C 111.139 46.201,113.515 56.923,112.704 60.025 C 112.296 61.585,112.773 62.343,114.597 63.037 C 118.383 64.476,119.307 68.252,117.551 75.108 C 115.628 82.614,111.901 88.490,108.257 89.760 C 106.047 90.531,105.096 91.764,104.115 95.130 C 103.414 97.534,101.752 101.178,100.421 103.229 C 98.761 105.784,98.000 108.387,98.000 111.504 L 98.000 116.051 95.000 114.500 C 93.350 113.647,92.000 113.338,92.000 113.814 C 92.000 114.290,93.086 115.174,94.413 115.779 C 97.370 117.126,98.618 120.550,96.905 122.614 C 94.872 125.064,89.651 127.452,89.211 126.132 C 89.003 125.509,87.916 125.000,86.794 125.000 C 85.181 125.000,84.993 125.286,85.892 126.370 C 86.814 127.481,86.247 127.865,82.897 128.400 C 79.598 128.928,78.487 128.702,77.383 127.281 C 76.058 125.575,75.941 125.577,74.590 127.317 C 73.342 128.927,72.545 129.017,67.615 128.106 C 61.593 126.993,57.089 125.017,55.095 122.614 C 53.382 120.550,54.630 117.126,57.587 115.779 C 58.914 115.174,60.000 114.301,60.000 113.839 C 60.000 112.627,59.246 112.793,56.465 114.615 L 54.000 116.230 54.000 111.594 C 54.000 108.382,53.256 105.811,51.579 103.229 C 50.248 101.178,48.594 97.560,47.903 95.190 C 46.919 91.811,45.941 90.584,43.378 89.513 C 41.077 88.552,39.358 86.666,37.575 83.148 C 32.350 72.836,32.268 65.202,37.359 62.882 C 39.036 62.118,39.606 61.211,39.255 59.865 C 38.478 56.897,40.923 46.080,43.511 41.033 C 47.873 32.525,58.184 24.435,67.734 22.025 C 74.283 20.373,84.509 21.579,91.344 24.808 M66.324 26.380 C 57.123 29.389,50.613 35.281,46.304 44.500 C 43.908 49.627,43.511 51.706,43.575 58.791 L 43.650 67.082 40.911 66.481 C 38.726 66.001,38.041 66.296,37.517 67.945 C 36.657 70.655,39.402 79.970,42.055 83.342 C 43.774 85.528,46.523 86.829,47.144 85.750 C 47.223 85.612,47.560 77.627,47.894 68.005 L 48.500 50.511 55.000 49.187 C 58.628 48.448,67.907 47.863,76.000 47.863 C 84.093 47.863,93.372 48.448,97.000 49.187 L 103.500 50.511 104.106 68.005 C 104.440 77.627,104.777 85.612,104.856 85.750 C 105.477 86.829,108.226 85.528,109.945 83.342 C 112.598 79.970,115.343 70.655,114.483 67.945 C 113.944 66.247,113.297 65.995,110.853 66.532 L 107.880 67.185 108.553 61.237 C 110.115 47.431,101.970 33.422,89.051 27.693 C 83.339 25.161,72.047 24.508,66.324 26.380 M54.923 59.923 C 53.161 61.685,52.000 63.900,52.000 65.500 C 52.000 67.100,53.161 69.315,54.923 71.077 C 57.292 73.446,58.704 74.000,62.367 74.000 C 68.563 74.000,72.400 70.749,72.400 65.500 C 72.400 60.251,68.563 57.000,62.367 57.000 C 58.704 57.000,57.292 57.554,54.923 59.923 M82.356 59.370 C 80.257 61.176,79.600 62.637,79.600 65.500 C 79.600 70.749,83.437 74.000,89.633 74.000 C 93.296 74.000,94.708 73.446,97.077 71.077 C 98.839 69.315,100.000 67.100,100.000 65.500 C 100.000 63.900,98.839 61.685,97.077 59.923 C 93.205 56.051,86.507 55.799,82.356 59.370 M60.566 97.794 C 57.852 98.732,55.463 100.029,55.257 100.676 C 55.026 101.401,56.918 101.044,60.191 99.745 C 67.765 96.738,84.235 96.738,91.809 99.745 C 95.082 101.044,96.974 101.401,96.743 100.676 C 95.932 98.131,86.694 96.088,76.000 96.088 C 68.697 96.088,63.998 96.607,60.566 97.794 M69.250 110.683 C 62.834 111.335,64.152 112.724,70.750 112.264 C 74.540 112.000,76.037 112.185,75.143 112.807 C 74.152 113.496,74.097 113.942,74.941 114.464 C 76.584 115.479,79.267 114.240,78.414 112.860 C 77.898 112.025,78.986 111.851,82.350 112.230 C 84.908 112.518,87.000 112.360,87.000 111.877 C 87.000 111.395,85.938 111.000,84.640 111.000 C 83.341 111.000,80.304 110.832,77.890 110.626 C 75.475 110.420,71.588 110.446,69.250 110.683 M62.000 116.000 C 62.000 116.550,62.900 117.000,64.000 117.000 C 65.100 117.000,66.000 116.550,66.000 116.000 C 66.000 115.450,65.100 115.000,64.000 115.000 C 62.900 115.000,62.000 115.450,62.000 116.000 M87.000 116.000 C 87.000 116.550,88.152 117.000,89.559 117.000 C 91.010 117.000,91.851 116.567,91.500 116.000 C 91.160 115.450,90.009 115.000,88.941 115.000 C 87.873 115.000,87.000 115.450,87.000 116.000 M70.000 117.000 C 70.000 117.550,70.873 118.000,71.941 118.000 C 73.009 118.000,74.160 117.550,74.500 117.000 C 74.851 116.433,74.010 116.000,72.559 116.000 C 71.152 116.000,70.000 116.450,70.000 117.000 M78.000 117.000 C 78.000 117.550,79.125 118.000,80.500 118.000 C 81.875 118.000,83.000 117.550,83.000 117.000 C 83.000 116.450,81.875 116.000,80.500 116.000 C 79.125 116.000,78.000 116.450,78.000 117.000 M64.500 119.000 C 64.149 119.567,64.990 120.000,66.441 120.000 C 67.848 120.000,69.000 119.550,69.000 119.000 C 69.000 118.450,68.127 118.000,67.059 118.000 C 65.991 118.000,64.840 118.450,64.500 119.000 M84.000 119.000 C 84.000 119.550,84.927 120.000,86.059 120.000 C 87.191 120.000,87.840 119.550,87.500 119.000 C 87.160 118.450,86.234 118.000,85.441 118.000 C 84.648 118.000,84.000 118.450,84.000 119.000 M57.459 120.067 C 56.539 121.556,57.606 122.365,59.520 121.631 C 60.404 121.292,60.847 120.561,60.504 120.007 C 59.694 118.696,58.289 118.723,57.459 120.067 M74.500 121.000 C 74.840 121.550,75.766 122.000,76.559 122.000 C 77.352 122.000,78.000 121.550,78.000 121.000 C 78.000 120.450,77.073 120.000,75.941 120.000 C 74.809 120.000,74.160 120.450,74.500 121.000 M91.000 121.000 C 91.000 121.550,91.900 122.000,93.000 122.000 C 94.100 122.000,95.000 121.550,95.000 121.000 C 95.000 120.450,94.100 120.000,93.000 120.000 C 91.900 120.000,91.000 120.450,91.000 121.000 M65.565 121.895 C 65.260 122.388,65.669 123.043,66.474 123.352 C 68.036 123.951,69.371 122.704,68.306 121.639 C 67.402 120.735,66.213 120.846,65.565 121.895 M84.250 121.718 C 82.532 122.334,82.672 124.000,84.441 124.000 C 86.097 124.000,87.408 122.351,86.266 121.704 C 85.845 121.465,84.938 121.472,84.250 121.718 M70.000 124.000 C 70.000 124.550,70.900 125.000,72.000 125.000 C 73.100 125.000,74.000 124.550,74.000 124.000 C 74.000 123.450,73.100 123.000,72.000 123.000 C 70.900 123.000,70.000 123.450,70.000 124.000 M77.565 123.895 C 77.260 124.388,77.571 124.996,78.256 125.248 C 80.009 125.892,82.124 125.009,81.447 123.915 C 80.723 122.743,78.285 122.731,77.565 123.895 M62.000 125.000 C 62.000 125.550,62.900 126.000,64.000 126.000 C 65.100 126.000,66.000 125.550,66.000 125.000 C 66.000 124.450,65.100 124.000,64.000 124.000 C 62.900 124.000,62.000 124.450,62.000 125.000 " stroke="none" fill="#F58F08" fill-rule="evenodd"/></svg>