<svg id="svg" version="1.1" width="150" height="150" xmlns="http://www.w3.org/2000/svg"><path d="M63.500 11.404 C 29.182 18.008,5.958 50.006,11.021 83.707 C 14.976 110.036,33.514 130.803,59.085 137.553 C 67.508 139.776,82.492 139.776,90.915 137.553 C 119.955 129.888,139.246 104.920,139.246 75.000 C 139.246 59.618,134.794 46.613,125.456 34.715 C 111.175 16.519,86.047 7.065,63.500 11.404 M123.695 56.698 C 127.378 64.150,127.500 64.735,127.500 75.000 C 127.500 85.265,127.378 85.850,123.695 93.302 C 121.574 97.594,119.251 101.000,118.445 101.000 C 116.407 101.000,116.602 100.057,120.020 93.390 C 126.136 81.463,126.132 68.833,120.010 56.377 C 116.560 49.360,116.484 49.000,118.445 49.000 C 119.251 49.000,121.574 52.406,123.695 56.698 M101.000 74.441 C 101.000 86.323,100.611 94.122,100.000 94.500 C 99.450 94.840,99.000 94.276,99.000 93.246 C 99.000 91.017,94.806 86.888,90.159 84.541 C 84.121 81.493,72.983 79.771,57.686 79.522 L 42.873 79.281 40.064 82.089 C 36.536 85.618,32.821 86.583,28.947 84.978 C 21.635 81.949,19.686 73.622,24.918 67.766 C 27.423 64.962,28.496 64.500,32.500 64.500 C 36.456 64.500,37.586 64.972,39.940 67.607 L 42.716 70.713 57.108 70.453 C 72.118 70.181,84.523 68.303,90.181 65.447 C 94.764 63.134,99.000 58.986,99.000 56.813 C 99.000 55.816,99.450 55.000,100.000 55.000 C 100.632 55.000,101.000 62.147,101.000 74.441 M115.492 61.530 C 118.059 66.636,118.472 68.548,118.401 74.991 C 118.316 82.663,115.532 91.483,112.366 94.111 C 109.812 96.231,109.928 94.397,112.729 88.402 C 116.630 80.054,116.635 69.957,112.743 61.629 C 109.606 54.915,109.556 54.701,111.250 55.206 C 111.938 55.411,113.846 58.257,115.492 61.530 M108.602 65.590 C 111.280 71.998,109.672 86.231,106.015 88.491 C 104.596 89.368,104.749 87.845,106.500 83.654 C 107.325 81.680,108.000 77.785,108.000 75.000 C 108.000 72.215,107.325 68.320,106.500 66.346 C 105.675 64.371,105.000 62.334,105.000 61.819 C 105.000 59.972,107.231 62.308,108.602 65.590 " stroke="none" fill="#0B5ED7" fill-rule="evenodd"/></svg>