<?xml version="1.0" standalone="no"?>
<!DOCTYPE svg PUBLIC "-//W3C//DTD SVG 20010904//EN"
 "http://www.w3.org/TR/2001/REC-SVG-20010904/DTD/svg10.dtd">
<svg version="1.0" xmlns="http://www.w3.org/2000/svg"
 width="150.000000pt" height="150.000000pt" viewBox="0 0 150.000000 150.000000"
 preserveAspectRatio="xMidYMid meet">

<g transform="translate(0.000000,150.000000) scale(0.100000,-0.100000)"
fill="#0B5ED7" stroke="none">
<path d="M610 1384 c-180 -38 -357 -177 -439 -344 -68 -140 -87 -279 -56 -425
47 -223 234 -424 455 -489 148 -44 318 -27 469 46 120 57 232 169 289 289 127
262 81 539 -123 745 -64 64 -97 90 -165 123 -139 68 -284 87 -430 55z m283
-149 c31 -8 75 -27 97 -41 49 -32 98 -105 107 -156 3 -21 10 -41 14 -44 5 -3
9 -26 9 -52 0 -45 1 -48 42 -67 25 -12 51 -35 62 -55 l20 -34 -22 -110 c-13
-61 -31 -122 -41 -136 -21 -29 -70 -49 -122 -49 -34 -1 -38 -4 -53 -45 -25
-64 -79 -131 -133 -163 -67 -39 -179 -39 -246 0 -53 31 -107 97 -134 162 -17
42 -20 45 -56 45 -50 0 -102 22 -121 53 -9 13 -26 72 -38 131 -20 101 -20 109
-5 141 10 21 32 42 57 55 39 20 40 22 40 70 0 28 4 50 9 50 5 0 17 24 25 53
42 142 145 205 341 206 50 1 116 -6 148 -14z"/>
<path d="M582 1194 c-75 -27 -134 -100 -147 -179 l-6 -40 20 36 c27 48 103
116 159 142 38 18 66 22 142 22 76 0 104 -4 142 -22 54 -25 133 -94 155 -136
22 -43 27 -25 9 31 -19 57 -66 110 -122 138 -53 26 -287 31 -352 8z"/>
<path d="M637 1130 c-98 -38 -170 -122 -197 -232 -15 -58 -5 -158 15 -158 16
0 29 -51 20 -79 -7 -23 34 -180 59 -230 24 -45 84 -109 119 -128 18 -9 56 -15
97 -15 41 0 79 6 97 15 38 20 97 85 121 134 29 58 65 215 52 223 -16 10 -1 62
24 82 18 14 21 27 21 90 0 134 -80 252 -202 298 -68 25 -161 26 -226 0z"/>
</g>
</svg>
