<?xml version="1.0" standalone="no"?>
<!DOCTYPE svg PUBLIC "-//W3C//DTD SVG 20010904//EN"
 "http://www.w3.org/TR/2001/REC-SVG-20010904/DTD/svg10.dtd">
<svg version="1.0" xmlns="http://www.w3.org/2000/svg"
 width="150.000000pt" height="150.000000pt" viewBox="0 0 150.000000 150.000000"
 preserveAspectRatio="xMidYMid meet">

<g transform="translate(0.000000,150.000000) scale(0.100000,-0.100000)"
fill="#DF2823" stroke="none">
<path d="M610 1384 c-35 -7 -102 -32 -149 -54 -167 -80 -307 -261 -346 -445
-73 -349 155 -697 505 -771 143 -30 302 -6 445 69 79 42 210 173 252 252 74
142 99 303 69 445 -40 189 -175 365 -346 449 -139 68 -285 87 -430 55z m241
-140 c149 -44 240 -151 275 -324 12 -58 24 -89 40 -105 28 -28 30 -61 10 -129
-22 -71 -61 -126 -96 -133 -19 -3 -30 -12 -30 -22 0 -24 -57 -139 -87 -175
-69 -83 -156 -114 -266 -96 -37 6 -75 20 -99 37 -54 37 -116 126 -136 195 -13
43 -22 58 -35 58 -47 0 -117 125 -117 210 0 29 6 43 24 57 17 14 26 36 35 87
18 101 47 169 97 225 54 60 97 88 172 112 71 22 143 24 213 3z"/>
<path d="M688 1220 c-147 -25 -278 -175 -278 -319 0 -45 3 -50 30 -61 17 -7
30 -19 30 -26 0 -12 -5 -12 -30 1 -29 15 -30 15 -30 -6 0 -18 -4 -20 -29 -14
-39 8 -47 -18 -27 -88 22 -77 56 -123 88 -119 24 2 28 -3 47 -67 25 -83 73
-156 130 -196 36 -25 54 -30 116 -33 61 -3 82 0 119 18 68 32 135 126 159 221
13 49 17 54 43 54 35 0 67 44 90 122 20 70 13 94 -29 90 -26 -2 -31 1 -29 16
3 17 1 17 -27 2 -26 -13 -31 -13 -31 -1 0 7 14 19 30 26 27 11 30 16 30 61 0
106 -76 226 -177 281 -39 22 -150 51 -172 47 -3 -1 -27 -5 -53 -9z m-173 -370
c8 -13 -35 -13 -55 0 -11 7 -7 10 17 10 17 0 35 -4 38 -10z m525 0 c-20 -13
-63 -13 -55 0 3 6 21 10 38 10 24 0 28 -3 17 -10z m-337 -45 c2 -14 4 -52 3
-85 -1 -71 -23 -99 -82 -109 -55 -9 -79 -4 -108 26 -24 24 -26 33 -26 109 l0
84 104 0 c103 0 104 0 109 -25z m307 -55 c0 -73 -2 -82 -29 -112 -25 -28 -33
-31 -82 -30 -47 1 -58 5 -81 32 -26 28 -28 37 -28 110 l0 80 110 0 110 0 0
-80z m-235 60 c4 -6 -7 -10 -25 -10 -18 0 -29 4 -25 10 3 6 15 10 25 10 10 0
22 -4 25 -10z m-307 -81 c2 -62 -11 -50 -23 20 -6 34 -4 42 6 39 9 -3 15 -24
17 -59z m587 19 c-10 -61 -25 -71 -25 -17 0 46 5 59 23 59 5 0 6 -18 2 -42z
m-280 22 c4 -6 -7 -10 -25 -10 -18 0 -29 4 -25 10 3 6 15 10 25 10 10 0 22 -4
25 -10z"/>
<path d="M508 805 c-3 -3 -3 -34 -1 -68 6 -77 31 -109 87 -109 72 0 102 43 94
137 l-3 40 -85 3 c-47 1 -89 0 -92 -3z m162 -69 c0 -47 -4 -57 -27 -76 -20
-16 -36 -20 -58 -16 -44 9 -56 27 -62 90 l-5 56 76 0 76 0 0 -54z"/>
<path d="M817 804 c-4 -4 -7 -33 -7 -64 0 -80 24 -110 89 -110 68 0 89 25 92
110 l3 65 -85 3 c-47 1 -88 0 -92 -4z m157 -71 c-3 -32 -10 -63 -15 -70 -25
-30 -99 -23 -121 11 -4 6 -8 35 -8 64 l0 52 74 0 74 0 -4 -57z"/>
</g>
</svg>
