<?xml version="1.0" standalone="no"?>
<!DOCTYPE svg PUBLIC "-//W3C//DTD SVG 20010904//EN"
 "http://www.w3.org/TR/2001/REC-SVG-20010904/DTD/svg10.dtd">
<svg version="1.0" xmlns="http://www.w3.org/2000/svg"
 width="150.000000pt" height="150.000000pt" viewBox="0 0 150.000000 150.000000"
 preserveAspectRatio="xMidYMid meet">

<g transform="translate(0.000000,150.000000) scale(0.100000,-0.100000)"
fill="#DF2823" stroke="none">
<path d="M610 1384 c-180 -38 -357 -177 -439 -344 -68 -140 -87 -279 -56 -425
38 -184 176 -361 345 -444 112 -55 208 -75 325 -67 173 11 296 67 420 191 86
86 128 154 166 270 31 92 33 269 5 360 -53 174 -181 328 -336 404 -139 68
-284 87 -430 55z m206 -159 l150 -36 -44 -166 c-51 -189 -56 -157 43 -297 52
-74 68 -89 122 -115 34 -16 66 -39 72 -49 6 -11 10 -45 9 -76 l-2 -57 -30 7
c-42 8 -57 24 -23 24 22 0 27 5 33 37 9 48 -2 63 -68 95 -49 23 -67 41 -137
135 -44 59 -80 116 -81 127 0 10 18 86 41 168 22 83 39 151 37 153 -2 1 -55
14 -118 29 -63 15 -125 29 -137 32 -19 5 -22 0 -33 -50 -6 -31 -16 -56 -22
-56 -5 0 -8 7 -4 15 3 8 8 37 12 65 4 27 12 50 18 50 6 0 79 -16 162 -35z
m-126 -312 c0 -98 4 -182 8 -188 4 -5 30 -28 57 -49 28 -22 66 -54 86 -73 27
-26 49 -36 97 -44 58 -10 112 -39 112 -59 0 -5 -11 2 -25 15 -16 17 -35 25
-60 25 -40 0 -49 -24 -12 -36 12 -4 33 -15 46 -25 18 -15 27 -16 37 -8 11 9
14 8 14 -4 0 -8 3 -29 6 -46 l7 -32 -157 2 -156 1 -65 34 c-80 43 -93 43 -97
2 l-3 -33 -105 0 -105 0 -7 50 c-3 28 -9 75 -13 107 -6 41 -3 76 10 128 14 58
16 95 11 203 -4 73 -9 149 -12 170 l-6 37 166 0 166 0 0 -177z"/>
<path d="M382 498 c3 -9 45 -14 144 -18 127 -5 144 -8 191 -33 49 -25 60 -27
183 -27 71 0 130 4 130 9 0 5 -57 11 -127 13 -119 4 -132 7 -193 36 -63 31
-69 32 -198 32 -103 0 -133 -3 -130 -12z"/>
</g>
</svg>
