<svg id="svg" version="1.1" width="150" height="150" xmlns="http://www.w3.org/2000/svg"><path d="M63.500 11.404 C 29.354 17.975,6.093 49.780,10.970 83.228 C 14.858 109.894,33.382 130.843,59.000 137.546 C 67.521 139.775,82.484 139.778,90.915 137.553 C 119.955 129.888,139.246 104.920,139.246 75.000 C 139.246 59.618,134.794 46.613,125.456 34.715 C 111.175 16.519,86.047 7.065,63.500 11.404 M88.864 27.881 C 100.782 31.590,111.238 42.489,114.025 54.106 C 116.231 63.298,114.901 72.214,109.718 83.000 C 104.804 93.225,103.000 100.671,103.000 110.729 C 103.000 116.150,102.637 117.454,100.545 119.545 C 98.127 121.964,97.837 122.000,80.601 122.000 C 63.831 122.000,63.002 121.906,60.457 119.717 C 58.499 118.033,57.661 116.175,57.262 112.635 L 56.721 107.836 51.111 108.487 C 48.025 108.846,44.600 109.220,43.500 109.319 C 40.685 109.574,35.368 98.564,33.984 89.614 C 32.530 80.219,33.866 70.000,36.548 70.000 C 37.326 70.000,38.236 68.763,38.571 67.250 C 43.031 47.113,46.983 39.548,56.444 33.039 C 66.137 26.370,77.964 24.488,88.864 27.881 M67.300 31.801 C 55.022 36.187,48.543 43.927,44.533 59.000 C 43.142 64.225,42.004 68.838,42.003 69.250 C 42.001 69.662,44.590 70.000,47.757 70.000 C 54.866 70.000,60.020 71.408,61.996 73.891 C 63.451 75.719,64.267 75.551,87.250 68.697 L 111.000 61.614 110.999 58.557 C 110.998 53.944,105.781 44.027,100.866 39.298 C 92.208 30.965,78.323 27.864,67.300 31.801 M58.171 58.655 C 60.276 60.560,60.533 63.067,58.800 64.800 C 57.045 66.555,54.553 66.268,52.575 64.083 C 50.290 61.558,52.087 57.797,55.921 57.079 C 56.153 57.036,57.165 57.745,58.171 58.655 M88.000 73.361 C 76.725 76.751,66.807 79.807,65.959 80.151 C 64.644 80.685,64.564 81.745,65.415 87.388 L 66.411 94.000 83.737 94.000 C 99.347 94.000,101.121 93.827,101.650 92.250 C 101.973 91.287,104.209 86.196,106.619 80.937 C 111.049 71.267,112.033 66.919,109.750 67.098 C 109.063 67.153,99.275 69.971,88.000 73.361 M67.581 98.753 C 67.261 99.072,67.000 100.118,67.000 101.078 C 67.000 102.037,65.650 103.958,64.000 105.347 C 61.620 107.349,61.000 108.669,61.000 111.735 C 61.000 113.861,61.540 116.140,62.200 116.800 C 63.942 118.542,97.910 118.495,98.448 116.750 C 98.660 116.063,99.075 111.547,99.370 106.715 L 99.908 97.930 84.034 98.051 C 75.304 98.118,67.900 98.433,67.581 98.753 " stroke="none" fill="#DF2823" fill-rule="evenodd"/></svg>