<svg id="svg" version="1.1" width="150" height="150" xmlns="http://www.w3.org/2000/svg"><path d="M65.000 11.071 C 45.891 14.406,30.731 24.518,20.037 41.064 C 12.424 52.843,8.917 69.150,10.970 83.228 C 14.861 109.919,33.311 130.750,59.085 137.553 C 67.507 139.776,82.492 139.776,90.913 137.553 C 119.901 129.902,139.246 104.865,139.246 75.000 C 139.246 40.017,113.285 12.671,78.073 10.564 C 73.908 10.315,68.025 10.543,65.000 11.071 M83.093 24.327 C 93.403 29.770,96.931 42.192,91.425 53.668 C 89.601 57.470,88.477 61.675,88.197 65.750 L 87.767 72.000 92.802 72.000 C 95.571 72.000,98.436 72.151,99.168 72.336 C 99.901 72.521,100.162 72.483,99.750 72.253 C 97.674 71.092,99.492 70.000,103.500 70.000 C 107.726 70.000,109.266 71.100,107.000 72.500 C 105.240 73.588,105.918 74.906,109.079 76.541 C 113.872 79.019,115.000 83.091,115.000 97.913 L 115.000 110.890 109.312 115.523 C 104.455 119.480,95.264 125.000,93.533 125.000 C 93.240 125.000,93.000 115.842,93.000 104.648 C 93.000 85.188,92.901 84.151,90.750 80.992 C 87.107 75.643,82.247 73.856,84.919 78.849 C 85.604 80.129,86.000 89.317,86.000 103.934 C 86.000 123.922,85.797 127.000,84.477 127.000 C 83.154 127.000,82.966 123.888,83.038 103.259 C 83.120 80.048,83.073 79.478,80.950 77.759 C 78.103 75.453,75.857 75.538,72.635 78.073 L 70.000 80.145 70.000 104.156 C 70.000 122.921,69.727 128.075,68.750 127.749 C 67.823 127.439,67.500 123.408,67.500 112.165 C 67.500 103.823,67.275 97.016,67.000 97.038 C 66.725 97.059,65.592 98.522,64.482 100.289 C 63.278 102.205,61.060 103.955,58.982 104.629 L 55.500 105.758 55.212 114.949 C 55.002 121.614,54.590 124.025,53.712 123.720 C 52.857 123.423,52.580 120.679,52.772 114.400 L 53.044 105.500 48.789 103.500 C 40.698 99.697,38.477 90.128,42.818 77.778 C 44.690 72.451,44.692 72.288,42.869 71.150 C 40.733 69.816,40.401 67.410,42.250 66.659 C 43.229 66.262,43.213 65.950,42.173 65.219 C 40.464 64.018,41.394 60.546,47.832 44.080 C 51.121 35.668,53.303 31.430,54.594 30.948 C 55.642 30.556,57.400 29.219,58.500 27.977 C 63.829 21.957,75.362 20.246,83.093 24.327 M67.500 25.056 C 65.850 25.537,62.925 27.255,61.000 28.873 L 57.500 31.815 60.000 32.391 C 67.986 34.231,90.274 38.059,90.674 37.660 C 91.561 36.772,88.081 31.246,85.005 28.658 C 80.115 24.543,73.748 23.233,67.500 25.056 M55.552 37.144 C 54.482 40.250,52.000 50.909,52.000 52.394 C 52.000 53.333,52.830 54.000,54.000 54.000 C 55.350 54.000,56.000 54.667,56.000 56.050 C 56.000 57.907,56.524 58.072,61.564 57.800 L 67.127 57.500 70.064 50.529 C 74.491 40.019,74.081 38.971,65.000 37.589 C 62.525 37.213,59.492 36.653,58.259 36.346 C 56.859 35.997,55.844 36.296,55.552 37.144 M48.485 47.318 C 46.843 51.818,45.355 56.063,45.177 56.750 C 44.950 57.628,46.289 57.981,49.677 57.937 C 53.421 57.887,54.020 57.679,52.352 57.007 C 48.941 55.630,48.705 54.324,50.525 46.896 C 51.468 43.051,52.066 39.732,51.854 39.521 C 51.643 39.310,50.127 42.818,48.485 47.318 M79.112 43.158 C 78.613 44.446,77.258 47.879,76.102 50.787 C 74.946 53.695,74.000 56.282,74.000 56.537 C 74.000 56.792,76.946 57.000,80.546 57.000 L 87.092 57.000 89.536 51.750 C 92.033 46.387,92.585 43.465,91.250 42.673 C 90.838 42.429,88.142 41.911,85.260 41.522 C 80.379 40.864,79.959 40.976,79.112 43.158 M62.812 44.265 C 63.210 46.331,60.324 47.724,58.800 46.200 C 57.276 44.676,58.669 41.790,60.735 42.188 C 61.693 42.372,62.628 43.307,62.812 44.265 M73.872 61.938 C 71.877 62.327,68.864 63.738,67.178 65.073 C 64.553 67.150,64.103 68.181,64.055 72.215 C 64.013 75.789,63.540 77.176,62.097 77.948 C 61.051 78.508,59.230 80.958,58.052 83.393 C 56.342 86.925,55.969 89.284,56.204 95.061 L 56.500 102.302 59.613 99.678 C 62.751 97.032,64.238 93.135,65.589 84.022 C 66.830 75.651,71.192 72.000,79.950 72.000 L 85.000 72.000 85.000 68.082 C 85.000 65.927,85.273 63.452,85.607 62.582 C 86.107 61.279,85.445 61.020,81.857 61.115 C 79.461 61.178,75.868 61.548,73.872 61.938 M59.452 72.646 C 58.617 73.969,58.003 74.072,56.322 73.172 C 54.568 72.234,54.253 72.331,54.366 73.777 C 54.471 75.131,53.799 75.445,51.228 75.243 C 47.478 74.949,46.839 76.012,45.095 85.446 C 44.266 89.928,44.335 91.866,45.414 94.448 C 46.650 97.406,50.337 101.000,52.137 101.000 C 52.518 101.000,53.152 97.513,53.546 93.250 C 54.398 84.033,54.934 82.420,58.596 78.068 C 60.133 76.242,61.452 73.905,61.528 72.874 C 61.698 70.561,60.827 70.465,59.452 72.646 M95.250 75.732 C 90.448 76.165,90.321 76.348,92.750 79.342 L 94.500 81.500 97.664 78.250 C 99.405 76.463,100.530 75.079,100.164 75.175 C 99.799 75.271,97.588 75.522,95.250 75.732 " stroke="none" fill="#DF2823" fill-rule="evenodd"/></svg>