<svg id="svg" version="1.1" width="150" height="150" xmlns="http://www.w3.org/2000/svg"><path d="M63.500 11.404 C 40.979 15.738,22.458 31.140,14.622 52.050 C 1.099 88.138,21.676 127.780,59.000 137.546 C 67.549 139.782,82.477 139.778,91.000 137.537 C 113.362 131.656,131.656 113.362,137.537 91.000 C 139.784 82.455,139.783 67.541,137.536 59.000 C 128.910 26.222,96.101 5.130,63.500 11.404 M67.382 47.334 L 74.000 62.167 74.000 76.584 L 74.000 91.000 66.000 91.000 L 58.000 91.000 58.000 61.893 C 58.000 35.762,57.838 32.848,56.418 33.393 C 55.548 33.727,54.198 34.000,53.418 34.000 C 52.227 34.000,52.000 38.556,52.000 62.445 L 52.000 90.890 47.295 91.195 C 42.802 91.486,42.591 91.634,42.594 94.500 L 42.598 97.500 58.363 97.776 L 74.128 98.051 73.814 100.776 L 73.500 103.500 57.927 103.774 L 42.354 104.049 42.790 107.024 L 43.227 110.000 58.683 110.000 C 73.662 110.000,74.129 110.063,73.820 112.034 C 73.515 113.974,72.770 114.073,57.500 114.188 L 41.500 114.308 41.232 89.502 C 40.999 67.941,41.173 64.466,42.561 62.933 C 44.939 60.305,47.815 50.124,48.588 41.596 C 49.252 34.264,49.352 34.041,52.385 33.098 C 57.080 31.639,59.431 31.283,60.132 31.923 C 60.479 32.240,63.742 39.175,67.382 47.334 M95.818 32.539 L 101.000 34.077 101.017 38.789 C 101.041 45.185,103.415 55.932,105.864 60.734 C 107.691 64.315,107.906 66.963,108.188 89.440 L 108.500 114.200 93.000 114.120 C 84.475 114.076,77.162 114.031,76.750 114.020 C 76.338 114.009,76.000 113.100,76.000 112.000 C 76.000 110.086,76.667 110.000,91.500 110.000 L 107.000 110.000 107.001 106.750 L 107.003 103.500 91.501 103.799 L 76.000 104.098 76.000 101.049 L 76.000 98.000 91.500 98.000 L 107.000 98.000 107.000 94.500 C 107.000 91.019,106.976 91.000,102.500 91.000 L 98.000 91.000 98.000 62.500 C 98.000 40.374,97.720 33.997,96.750 33.986 C 96.063 33.979,94.487 33.701,93.250 33.370 L 91.000 32.767 91.000 61.883 L 91.000 91.000 83.500 91.000 L 76.000 91.000 76.000 76.397 L 76.000 61.795 81.132 50.147 C 86.553 37.845,89.844 31.000,90.339 31.000 C 90.503 31.000,92.969 31.692,95.818 32.539 M81.651 44.591 C 79.251 49.491,76.967 54.512,76.576 55.750 C 76.185 56.987,75.558 57.996,75.183 57.991 C 74.807 57.986,72.198 53.089,69.385 47.110 L 64.271 36.238 72.385 36.714 C 76.848 36.976,81.625 36.749,83.000 36.211 C 84.375 35.673,85.616 35.334,85.758 35.458 C 85.900 35.581,84.052 39.691,81.651 44.591 " stroke="none" fill="#DF2823" fill-rule="evenodd"/></svg>