<svg id="svg" version="1.1" width="150" height="150" xmlns="http://www.w3.org/2000/svg"><path d="M65.000 11.071 C 45.891 14.406,30.731 24.518,20.037 41.064 C 12.424 52.843,8.917 69.150,10.970 83.228 C 14.861 109.919,33.311 130.750,59.085 137.553 C 67.507 139.776,82.492 139.776,90.913 137.553 C 119.901 129.902,139.246 104.865,139.246 75.000 C 139.246 40.017,113.285 12.671,78.073 10.564 C 73.908 10.315,68.025 10.543,65.000 11.071 M80.640 23.460 C 84.128 25.904,85.098 29.896,84.789 40.550 L 84.500 50.500 75.000 50.500 L 65.500 50.500 65.500 38.661 C 65.500 26.929,65.525 26.801,68.306 24.411 C 71.552 21.621,77.373 21.172,80.640 23.460 M92.579 56.235 L 96.000 59.971 96.000 76.985 C 96.000 87.662,96.373 94.000,97.000 94.000 C 97.550 94.000,98.000 93.343,98.000 92.539 C 98.000 90.339,102.159 86.910,104.446 87.224 C 105.899 87.423,106.603 86.801,106.979 84.988 C 108.296 78.638,113.337 75.961,115.081 80.686 C 116.158 83.602,112.758 88.000,109.427 88.000 C 108.092 88.000,106.966 88.338,106.923 88.750 C 106.383 94.048,104.177 96.420,99.748 96.466 C 97.717 96.487,95.893 95.769,94.879 94.550 C 93.329 92.686,93.144 92.676,90.629 94.323 C 89.183 95.271,88.000 96.486,88.000 97.023 C 88.000 98.307,84.296 98.288,83.500 97.000 C 82.543 95.451,78.006 95.821,77.362 97.500 C 77.045 98.325,75.982 99.000,75.000 99.000 C 74.018 99.000,72.955 98.325,72.638 97.500 C 71.994 95.821,67.457 95.451,66.500 97.000 C 65.704 98.288,62.000 98.307,62.000 97.023 C 62.000 96.486,60.817 95.271,59.371 94.323 C 56.856 92.676,56.671 92.686,55.121 94.550 C 53.232 96.822,48.267 97.466,46.155 95.714 C 45.349 95.046,44.092 93.070,43.362 91.322 C 42.550 89.379,41.191 88.018,39.867 87.822 C 38.675 87.645,36.822 86.319,35.748 84.875 C 34.161 82.740,34.008 81.853,34.933 80.125 C 37.163 75.958,41.708 78.697,43.021 85.000 C 43.396 86.801,44.104 87.423,45.554 87.224 C 47.841 86.910,52.000 90.339,52.000 92.539 C 52.000 93.343,52.450 94.000,53.000 94.000 C 53.626 94.000,54.000 87.801,54.000 77.404 C 54.000 53.054,55.123 51.788,76.329 52.232 L 89.159 52.500 92.579 56.235 M36.481 81.031 C 35.466 82.672,38.680 85.720,40.016 84.384 C 40.724 83.676,40.444 82.807,39.123 81.611 C 37.744 80.363,36.995 80.199,36.481 81.031 M110.332 81.839 C 109.700 82.851,109.535 84.247,109.964 84.941 C 110.539 85.872,111.160 85.609,112.330 83.939 C 113.823 81.808,113.754 80.000,112.182 80.000 C 111.796 80.000,110.964 80.828,110.332 81.839 M45.583 90.866 C 45.288 91.343,45.879 92.486,46.896 93.406 C 48.634 94.979,48.777 94.961,49.262 93.105 C 49.575 91.910,49.198 90.906,48.308 90.565 C 46.382 89.826,46.214 89.844,45.583 90.866 M100.446 91.087 C 99.416 92.755,101.733 94.667,103.113 93.287 C 104.267 92.133,103.545 90.000,102.000 90.000 C 101.515 90.000,100.816 90.489,100.446 91.087 M58.418 95.607 C 59.288 95.941,60.000 97.099,60.000 98.180 C 60.000 100.955,56.591 100.116,56.180 97.240 C 55.835 94.820,56.019 94.686,58.418 95.607 M93.613 97.237 C 93.467 100.121,90.000 101.004,90.000 98.157 C 90.000 96.413,91.085 95.340,93.113 95.079 C 93.451 95.036,93.676 96.006,93.613 97.237 M71.571 100.000 C 71.571 101.400,70.905 102.000,69.348 102.000 C 67.741 102.000,67.166 101.446,67.275 100.000 C 67.374 98.692,68.142 98.000,69.499 98.000 C 70.905 98.000,71.571 98.643,71.571 100.000 M82.725 100.000 C 82.834 101.446,82.259 102.000,80.652 102.000 C 79.095 102.000,78.429 101.400,78.429 100.000 C 78.429 98.643,79.095 98.000,80.501 98.000 C 81.858 98.000,82.626 98.692,82.725 100.000 M61.739 100.872 C 63.763 99.789,64.247 99.908,65.584 101.816 C 67.340 104.324,71.774 104.754,72.638 102.500 C 72.955 101.675,74.018 101.000,75.000 101.000 C 75.982 101.000,77.045 101.675,77.362 102.500 C 78.237 104.781,82.545 104.317,84.244 101.759 C 85.591 99.731,85.970 99.646,88.241 100.861 C 90.132 101.873,91.257 101.933,92.809 101.102 C 93.942 100.496,95.137 100.000,95.465 100.000 C 95.793 100.000,95.935 105.468,95.781 112.151 L 95.500 124.302 91.500 125.840 C 85.931 127.982,64.069 127.982,58.500 125.840 L 54.500 124.302 54.219 112.164 L 53.939 100.026 56.681 101.069 C 58.685 101.831,60.047 101.778,61.739 100.872 " stroke="none" fill="#992C96" fill-rule="evenodd"/></svg>