<svg id="svg" version="1.1" width="150" height="150" xmlns="http://www.w3.org/2000/svg"><path d="M65.000 11.071 C 45.891 14.406,30.731 24.518,20.037 41.064 C 12.424 52.843,8.917 69.150,10.970 83.228 C 14.861 109.919,33.311 130.750,59.085 137.553 C 67.507 139.776,82.492 139.776,90.913 137.553 C 119.901 129.902,139.246 104.865,139.246 75.000 C 139.246 40.017,113.285 12.671,78.073 10.564 C 73.908 10.315,68.025 10.543,65.000 11.071 M96.206 30.909 C 98.245 31.382,100.639 32.496,101.528 33.385 C 102.416 34.273,103.561 35.000,104.071 35.000 C 104.582 35.000,105.000 35.480,105.000 36.067 C 105.000 37.537,100.803 36.113,99.375 34.160 C 97.983 32.256,85.000 31.104,85.000 32.884 C 85.000 33.542,83.131 34.000,80.443 34.000 C 75.049 34.000,67.000 35.867,67.000 37.119 C 67.000 37.603,68.377 38.000,70.059 38.000 C 76.298 38.000,71.763 39.762,63.772 40.442 C 55.306 41.163,51.000 42.884,51.000 45.548 C 51.000 47.589,55.114 49.000,61.065 49.000 C 63.779 49.000,66.000 49.450,66.000 50.000 C 66.000 50.550,65.325 51.000,64.500 51.000 C 62.250 51.000,62.695 53.766,65.157 55.084 C 66.499 55.802,69.334 56.001,72.657 55.610 C 75.998 55.218,78.000 55.360,78.000 55.991 C 78.000 57.326,65.437 57.304,62.934 55.965 C 61.870 55.395,61.000 54.103,61.000 53.093 C 61.000 51.732,59.993 51.095,57.120 50.635 C 54.986 50.294,52.189 49.164,50.906 48.125 C 48.864 46.471,48.717 45.915,49.737 43.678 C 51.023 40.855,55.950 39.015,62.250 39.006 C 65.281 39.001,66.000 38.631,66.000 37.078 C 66.000 34.778,70.492 33.059,77.826 32.552 C 80.566 32.362,83.638 31.724,84.654 31.134 C 86.890 29.834,91.218 29.750,96.206 30.909 M114.321 39.988 C 115.258 40.979,114.371 41.107,110.000 40.615 C 88.891 38.238,80.436 38.648,81.499 41.998 C 82.021 43.641,81.488 43.926,77.402 44.193 C 71.315 44.591,69.326 47.162,72.861 50.063 C 74.159 51.128,76.705 52.000,78.517 52.000 C 81.252 52.000,81.729 52.320,81.320 53.883 C 80.585 56.696,84.594 59.000,90.223 59.000 C 92.850 59.000,95.000 59.265,95.000 59.590 C 95.000 59.914,93.987 61.039,92.750 62.089 C 90.538 63.967,90.532 64.024,92.441 65.499 C 93.509 66.325,95.309 67.007,96.441 67.015 C 99.778 67.040,101.350 68.552,100.685 71.096 C 99.700 74.862,101.633 76.241,105.263 74.364 C 107.816 73.044,108.982 72.978,112.285 73.967 C 117.111 75.413,119.197 74.147,117.216 70.975 C 116.039 69.090,116.259 69.000,122.051 69.000 C 125.841 69.000,127.886 69.375,127.500 70.000 C 127.160 70.550,125.334 71.000,123.441 71.000 C 121.109 71.000,120.000 71.465,120.000 72.443 C 120.000 75.211,116.177 76.888,112.306 75.819 C 110.360 75.281,107.807 75.107,106.634 75.432 C 103.736 76.234,99.838 82.438,101.307 83.907 C 102.098 84.698,101.583 84.995,99.450 84.981 C 97.049 84.965,94.405 82.900,85.250 73.886 C 79.063 67.795,74.000 62.628,74.000 62.405 C 74.000 62.182,75.225 62.000,76.723 62.000 C 78.723 62.000,81.114 63.653,85.723 68.221 C 89.175 71.643,92.000 75.143,92.000 75.999 C 92.000 78.156,94.669 81.755,97.301 83.147 C 98.765 83.921,98.414 83.289,96.250 81.254 C 92.587 77.809,92.417 77.176,94.426 74.441 C 95.812 72.554,95.943 72.583,99.176 75.500 L 102.500 78.500 99.750 75.445 C 96.607 71.954,96.351 71.000,98.559 71.000 C 99.416 71.000,99.840 70.550,99.500 70.000 C 99.160 69.450,97.884 69.000,96.663 69.000 C 93.091 69.000,89.746 66.110,90.252 63.460 C 90.626 61.506,90.172 61.067,87.195 60.509 C 85.272 60.148,82.382 58.536,80.772 56.926 C 79.163 55.316,76.798 53.736,75.518 53.415 C 72.082 52.553,68.689 48.555,69.425 46.237 C 70.070 44.203,73.909 42.000,76.807 42.000 C 77.748 42.000,79.120 41.038,79.855 39.861 C 81.152 37.784,81.653 37.737,97.166 38.232 C 108.037 38.579,113.519 39.140,114.321 39.988 M99.430 45.406 C 101.281 46.180,103.278 47.642,103.867 48.656 C 104.854 50.354,104.942 50.361,104.970 48.750 C 104.986 47.788,105.506 47.000,106.125 47.000 C 106.856 47.000,107.027 48.114,106.615 50.177 C 105.772 54.389,105.559 54.504,102.600 52.348 C 99.795 50.305,99.160 48.740,101.500 49.638 C 102.325 49.955,103.000 49.952,103.000 49.633 C 103.000 48.644,97.213 46.000,95.050 46.000 C 93.922 46.000,93.000 45.550,93.000 45.000 C 93.000 43.599,95.479 43.755,99.430 45.406 M119.500 53.000 C 119.160 53.550,118.346 54.002,117.691 54.005 C 117.036 54.008,115.150 55.169,113.500 56.585 C 111.791 58.052,111.253 58.924,112.250 58.612 C 115.120 57.711,114.233 59.828,111.050 61.474 C 107.068 63.533,107.000 63.500,107.000 59.500 C 107.000 57.575,107.450 56.000,108.000 56.000 C 108.550 56.000,109.000 56.528,109.000 57.174 C 109.000 57.820,110.013 57.432,111.250 56.311 C 115.188 52.745,121.132 50.359,119.500 53.000 M105.072 61.432 C 106.003 65.589,106.630 66.695,107.804 66.245 C 108.907 65.822,109.102 66.053,108.512 67.080 C 107.210 69.345,104.754 72.000,103.962 72.000 C 103.561 72.000,103.007 71.213,102.730 70.250 C 102.453 69.287,101.903 67.713,101.506 66.750 C 101.094 65.747,101.227 65.000,101.820 65.000 C 102.388 65.000,103.097 65.787,103.395 66.750 C 104.162 69.224,103.170 60.014,102.356 57.094 C 101.905 55.476,102.042 54.908,102.775 55.361 C 103.374 55.731,104.408 58.463,105.072 61.432 M83.396 74.293 L 94.933 85.586 75.464 105.036 L 55.996 124.485 44.255 112.745 L 32.515 101.005 51.498 82.002 C 61.938 71.551,70.791 63.000,71.170 63.000 C 71.549 63.000,77.051 68.082,83.396 74.293 M66.215 73.283 L 61.011 78.552 69.997 87.497 L 78.983 96.441 83.992 91.508 C 86.746 88.795,89.000 86.332,89.000 86.034 C 89.000 85.444,80.402 76.452,74.871 71.257 L 71.419 68.013 66.215 73.283 M73.000 74.321 C 73.000 74.812,73.675 74.955,74.500 74.638 C 75.325 74.322,76.000 74.499,76.000 75.031 C 76.000 75.564,76.675 76.000,77.500 76.000 C 78.325 76.000,79.000 76.702,79.000 77.559 C 79.000 78.416,79.450 78.840,80.000 78.500 C 80.550 78.160,81.000 78.584,81.000 79.441 C 81.000 80.298,81.498 81.000,82.107 81.000 C 82.716 81.000,82.955 81.675,82.638 82.500 C 82.322 83.325,82.472 84.000,82.971 84.000 C 84.246 84.000,83.707 89.264,82.388 89.704 C 81.785 89.905,81.269 88.749,81.222 87.095 C 81.175 85.461,80.628 83.173,80.005 82.009 C 78.946 80.031,73.422 76.012,71.750 76.004 C 70.146 75.996,71.101 82.101,73.000 84.000 C 74.967 85.967,75.771 90.000,74.196 90.000 C 73.754 90.000,71.866 88.425,70.000 86.500 C 67.456 83.876,67.032 83.000,68.304 83.000 C 69.576 83.000,70.000 82.124,70.000 79.500 C 70.000 76.938,69.565 76.000,68.378 76.000 C 67.169 76.000,67.027 75.672,67.822 74.714 C 69.030 73.259,73.000 72.958,73.000 74.321 M83.002 106.498 C 66.337 123.180,63.125 125.965,60.762 125.785 C 59.243 125.669,58.000 125.337,58.000 125.047 C 58.000 124.757,66.433 116.077,76.740 105.760 C 93.926 88.556,95.771 87.000,98.981 87.000 C 102.435 87.000,102.223 87.258,83.002 106.498 " stroke="none" fill="#7CBD2A" fill-rule="evenodd"/></svg>