<svg id="svg" version="1.1" width="150" height="150" xmlns="http://www.w3.org/2000/svg"><path d="M63.500 11.404 C 29.354 17.975,6.093 49.780,10.970 83.228 C 14.858 109.894,33.382 130.843,59.000 137.546 C 67.521 139.775,82.484 139.778,90.915 137.553 C 119.955 129.888,139.246 104.920,139.246 75.000 C 139.246 59.618,134.794 46.613,125.456 34.715 C 111.175 16.519,86.047 7.065,63.500 11.404 M86.796 31.882 C 105.416 35.144,117.000 48.299,117.000 66.182 C 117.000 72.484,116.490 74.401,112.502 83.102 C 108.065 92.782,106.064 101.317,106.020 110.750 C 106.006 113.647,105.363 115.637,104.000 117.000 C 102.162 118.838,100.667 119.000,85.500 119.000 C 70.333 119.000,68.838 118.838,67.000 117.000 C 65.900 115.900,65.000 114.325,65.000 113.500 C 65.000 112.290,63.433 112.000,56.900 112.000 C 49.022 112.000,48.707 111.907,45.400 108.600 L 42.000 105.200 42.000 87.100 L 42.000 69.000 49.418 69.000 C 60.342 69.000,60.000 69.343,60.000 58.393 L 60.000 49.000 51.000 49.000 L 42.000 49.000 42.000 43.434 C 42.000 36.829,43.043 34.568,47.314 31.912 C 50.212 30.109,51.854 29.969,65.500 30.354 C 73.750 30.588,83.333 31.275,86.796 31.882 M87.000 47.248 L 87.500 58.500 100.250 58.780 C 108.764 58.967,113.000 58.707,113.000 57.997 C 113.000 55.583,107.913 47.250,104.336 43.805 C 100.103 39.727,92.874 36.057,89.000 36.020 L 86.500 35.996 87.000 47.248 M59.000 58.500 L 59.000 67.000 50.500 67.000 C 43.730 67.000,42.000 66.704,42.000 65.546 C 42.000 64.450,43.630 64.019,48.620 63.796 L 55.240 63.500 55.341 58.000 L 55.442 52.500 48.721 52.204 C 38.993 51.776,40.427 50.000,50.500 50.000 L 59.000 50.000 59.000 58.500 M87.000 86.066 C 87.000 97.230,86.573 105.929,85.970 107.055 C 84.341 110.099,79.567 112.000,73.550 112.000 C 70.497 112.000,68.000 112.434,68.000 112.965 C 68.000 115.195,72.644 116.000,85.500 116.000 C 92.997 116.000,100.002 115.534,101.066 114.965 C 102.670 114.106,103.000 112.833,103.000 107.514 C 103.000 98.460,104.629 91.725,109.050 82.500 C 111.159 78.100,113.185 72.813,113.553 70.750 L 114.223 67.000 100.611 67.000 L 87.000 67.000 87.000 86.066 M44.446 96.087 C 43.416 97.755,45.733 99.667,47.113 98.287 C 48.267 97.133,47.545 95.000,46.000 95.000 C 45.515 95.000,44.816 95.489,44.446 96.087 M49.446 96.087 C 48.416 97.755,50.733 99.667,52.113 98.287 C 53.267 97.133,52.545 95.000,51.000 95.000 C 50.515 95.000,49.816 95.489,49.446 96.087 M55.500 96.000 C 54.771 97.180,55.717 99.000,57.059 99.000 C 57.577 99.000,58.000 98.100,58.000 97.000 C 58.000 94.891,56.545 94.309,55.500 96.000 " stroke="none" fill="#F58F08" fill-rule="evenodd"/></svg>