<svg id="svg" version="1.1" width="150" height="150" xmlns="http://www.w3.org/2000/svg"><path d="M63.500 11.404 C 40.875 15.758,22.549 31.001,14.632 52.050 C 1.084 88.067,21.696 127.786,59.000 137.546 C 67.549 139.782,82.477 139.778,91.000 137.537 C 113.370 131.654,131.722 113.293,137.517 91.000 C 139.742 82.441,139.757 67.459,137.550 59.085 C 128.892 26.230,96.118 5.127,63.500 11.404 M79.686 24.174 C 84.411 28.614,81.112 37.000,74.640 37.000 C 70.628 37.000,67.000 33.505,67.000 29.640 C 67.000 23.010,74.847 19.629,79.686 24.174 M91.929 46.243 C 99.130 52.755,100.395 54.470,104.469 63.248 C 106.961 68.618,109.000 73.668,109.000 74.470 C 109.000 76.264,105.644 78.184,103.767 77.464 C 103.008 77.173,100.227 72.562,97.586 67.218 C 94.026 60.015,91.518 56.379,87.892 53.168 L 83.000 48.836 83.042 61.168 C 83.072 70.084,83.735 76.657,85.436 84.898 C 87.710 95.918,88.025 96.639,94.894 106.619 C 98.802 112.296,102.000 117.619,102.000 118.448 C 102.000 119.276,100.809 120.735,99.352 121.689 C 96.724 123.411,96.683 123.398,93.602 119.826 C 91.896 117.847,87.954 112.464,84.842 107.864 C 79.506 99.975,79.057 98.831,76.947 87.728 C 75.717 81.253,74.599 76.078,74.463 76.228 C 67.158 84.256,58.946 95.804,58.412 98.799 C 55.365 115.887,54.417 119.330,52.394 120.664 C 50.551 121.879,50.006 121.825,48.043 120.236 L 45.800 118.419 48.106 105.044 L 50.412 91.669 58.199 82.085 L 65.985 72.500 65.992 60.750 C 65.997 54.287,65.728 49.000,65.396 49.000 C 65.064 49.000,62.179 51.184,58.985 53.853 C 55.224 56.996,49.596 60.217,43.010 62.996 L 32.842 67.286 30.821 65.265 C 27.597 62.042,29.724 59.780,39.549 55.981 C 45.966 53.500,50.388 50.873,56.656 45.818 L 65.109 39.000 74.515 39.000 L 83.920 39.000 91.929 46.243 " stroke="none" fill="#F58F08" fill-rule="evenodd"/></svg>