<svg id="svg" version="1.1" width="150" height="150" xmlns="http://www.w3.org/2000/svg"><path d="M63.500 11.404 C 40.786 15.775,22.587 30.919,14.624 52.076 C 1.072 88.078,21.687 127.783,59.000 137.546 C 67.521 139.775,82.484 139.778,90.915 137.553 C 119.942 129.891,139.197 104.982,139.269 75.000 C 139.305 59.724,134.822 46.648,125.456 34.715 C 111.175 16.519,86.047 7.065,63.500 11.404 M97.681 27.611 C 98.021 28.497,97.546 33.784,96.624 39.361 L 94.950 49.500 97.225 51.307 C 105.483 57.865,105.000 56.806,105.000 68.338 C 105.000 79.608,104.082 82.000,99.757 82.000 C 95.326 82.000,94.000 79.332,94.000 70.418 C 94.000 62.672,93.832 62.013,91.365 60.073 C 89.916 58.933,88.396 58.000,87.987 58.000 C 87.578 58.000,87.208 72.963,87.165 91.250 C 87.086 124.034,87.055 124.525,84.932 126.250 C 82.139 128.520,80.459 128.459,78.000 126.000 C 76.133 124.133,76.000 122.667,76.000 104.000 C 76.000 93.000,75.737 84.000,75.416 84.000 C 75.094 84.000,72.204 86.064,68.993 88.587 L 63.155 93.173 65.725 99.837 C 70.562 112.377,70.792 113.940,68.123 116.102 C 65.200 118.468,62.777 118.516,60.724 116.247 C 58.746 114.062,50.995 94.348,51.015 91.557 C 51.036 88.739,51.433 88.292,60.250 81.150 L 68.000 74.872 68.000 66.299 L 68.000 57.726 63.043 62.363 L 58.086 67.000 48.497 67.000 C 39.651 67.000,38.719 66.810,36.455 64.545 C 33.479 61.570,33.411 60.589,36.000 58.000 C 37.696 56.304,39.333 56.000,46.781 56.000 L 55.563 56.000 61.531 49.951 L 67.500 43.902 78.000 44.225 C 83.775 44.403,89.228 44.900,90.119 45.331 C 92.157 46.316,92.803 44.202,93.661 33.750 C 94.122 28.125,94.676 26.000,95.680 26.000 C 96.440 26.000,97.341 26.725,97.681 27.611 M83.344 31.248 C 84.978 33.446,85.196 34.541,84.431 36.717 C 82.238 42.951,74.006 43.622,71.544 37.768 C 70.115 34.369,70.412 32.537,72.851 29.701 C 75.191 26.980,80.784 27.805,83.344 31.248 M75.702 30.147 C 72.595 31.885,71.689 34.876,73.452 37.567 C 75.292 40.376,79.073 40.784,81.429 38.429 C 85.307 34.550,80.432 27.500,75.702 30.147 M61.566 51.923 L 55.632 57.930 46.672 58.215 C 39.608 58.440,37.490 58.853,36.664 60.166 C 35.905 61.373,35.978 62.269,36.930 63.416 C 37.969 64.667,40.337 65.000,48.197 65.000 L 58.149 65.000 63.139 60.240 C 67.927 55.672,68.116 55.286,67.815 50.698 L 67.500 45.917 61.566 51.923 M71.436 48.398 C 71.105 49.717,70.984 51.820,71.167 53.070 C 71.448 54.989,72.219 55.403,76.114 55.726 C 80.606 56.098,80.745 56.024,81.364 52.929 C 82.680 46.349,82.461 46.000,77.019 46.000 C 72.596 46.000,71.971 46.269,71.436 48.398 M85.542 46.933 C 85.225 47.446,84.679 53.521,84.328 60.433 C 83.862 69.632,84.001 73.000,84.846 73.000 C 85.627 73.000,86.000 70.272,86.000 64.559 C 86.000 59.916,86.382 55.882,86.849 55.593 C 87.316 55.304,89.566 56.442,91.849 58.121 L 96.000 61.173 96.000 70.051 C 96.000 77.687,96.261 79.069,97.862 79.926 C 99.161 80.621,100.230 80.552,101.399 79.697 C 102.817 78.661,103.031 76.861,102.788 68.021 L 102.500 57.570 95.000 51.791 C 87.168 45.756,86.485 45.405,85.542 46.933 M71.000 64.902 C 71.000 70.623,71.097 70.838,74.149 71.902 C 80.117 73.983,80.474 73.664,80.763 65.991 L 81.027 59.000 76.013 59.000 L 71.000 59.000 71.000 64.902 M73.865 77.355 C 75.848 79.467,76.534 79.683,78.115 78.696 C 80.294 77.336,80.555 76.333,78.732 76.333 C 78.035 76.333,76.122 75.997,74.482 75.585 L 71.500 74.837 73.865 77.355 M60.674 82.821 C 56.919 85.944,53.471 89.178,53.011 90.006 C 52.191 91.480,59.808 113.208,61.865 115.265 C 63.168 116.568,66.094 115.804,67.333 113.837 C 68.128 112.574,67.514 109.845,64.786 102.517 L 61.191 92.861 67.533 87.680 L 73.875 82.500 71.251 79.750 C 69.807 78.237,68.373 77.032,68.063 77.071 C 67.753 77.109,64.428 79.697,60.674 82.821 M81.250 80.802 L 78.000 82.363 78.000 102.981 C 78.000 123.646,78.371 126.000,81.629 126.000 C 82.304 126.000,83.564 125.293,84.429 124.429 C 85.759 123.098,86.000 119.581,86.000 101.488 C 86.000 89.734,85.662 79.921,85.250 79.679 C 84.838 79.438,83.037 79.943,81.250 80.802 " stroke="none" fill="#DF2823" fill-rule="evenodd"/></svg>