<svg id="svg" version="1.1" width="150" height="150" xmlns="http://www.w3.org/2000/svg"><path d="M63.500 11.407 C 29.365 17.962,6.093 49.780,10.970 83.228 C 14.858 109.894,33.382 130.843,59.000 137.546 C 67.521 139.775,82.484 139.778,90.915 137.553 C 145.178 123.230,157.046 52.260,110.395 21.058 C 97.099 12.165,78.975 8.435,63.500 11.407 M82.500 25.266 C 85.225 26.788,87.188 28.934,88.658 32.000 L 90.815 36.500 86.898 64.940 C 84.406 83.030,82.419 94.238,81.437 95.736 C 78.020 100.952,71.955 100.980,68.637 95.796 C 67.180 93.519,59.996 44.796,60.004 37.241 C 60.009 32.312,63.019 27.564,67.708 25.090 C 72.690 22.460,77.579 22.518,82.500 25.266 M81.850 108.527 C 85.620 111.700,86.566 115.708,84.635 120.330 C 83.102 124.001,78.748 127.000,74.954 127.000 C 71.562 127.000,67.174 123.886,65.451 120.256 C 60.832 110.521,73.474 101.479,81.850 108.527 " stroke="none" fill="#00A7BC" fill-rule="evenodd"/></svg>