<svg id="svg" version="1.1" width="150" height="150" xmlns="http://www.w3.org/2000/svg"><path d="M63.500 11.404 C 40.875 15.758,22.549 31.001,14.632 52.050 C 1.085 88.065,21.761 127.897,59.000 137.526 C 67.595 139.748,82.554 139.752,91.000 137.534 C 113.361 131.662,131.722 113.295,137.517 91.000 C 139.742 82.441,139.757 67.459,137.550 59.085 C 128.892 26.230,96.118 5.127,63.500 11.404 M82.545 26.455 C 87.938 31.847,84.134 41.000,76.500 41.000 C 68.866 41.000,65.062 31.847,70.455 26.455 C 72.149 24.760,74.021 24.000,76.500 24.000 C 78.979 24.000,80.851 24.760,82.545 26.455 M85.009 47.250 C 85.540 48.487,86.813 54.569,87.837 60.764 L 89.700 72.029 84.222 83.988 C 78.407 96.682,76.472 98.643,72.928 95.435 C 71.868 94.475,71.000 93.117,71.000 92.416 C 71.000 91.715,73.057 86.722,75.572 81.321 C 79.759 72.328,80.090 71.058,79.500 66.250 C 79.146 63.362,78.460 61.000,77.975 61.000 C 77.491 61.000,77.358 63.226,77.680 65.946 C 78.525 73.082,74.269 82.725,68.913 85.808 C 64.710 88.227,62.948 88.652,64.800 86.800 C 65.519 86.081,66.000 82.610,66.000 78.145 C 66.000 71.139,65.895 70.781,64.250 72.193 C 63.288 73.019,58.000 75.309,52.500 77.281 C 39.144 82.070,37.722 82.218,36.000 79.000 C 34.048 75.353,36.354 73.448,47.539 69.463 L 58.135 65.688 62.191 57.619 C 68.856 44.363,68.128 45.000,76.636 45.000 C 83.364 45.000,84.131 45.206,85.009 47.250 M127.388 60.188 C 127.738 61.941,127.682 63.691,127.263 64.076 C 125.568 65.634,85.738 87.072,85.318 86.652 C 85.069 86.403,86.000 83.961,87.386 81.225 C 89.814 76.434,90.545 75.897,107.203 66.672 C 116.717 61.404,125.006 57.072,125.625 57.047 C 126.244 57.021,127.037 58.434,127.388 60.188 M70.426 88.750 C 69.993 89.713,69.654 91.728,69.675 93.230 C 69.708 95.735,68.359 96.704,53.271 105.007 L 36.830 114.054 35.039 111.777 C 34.054 110.525,33.080 109.131,32.874 108.680 C 32.536 107.940,68.320 87.337,70.357 87.100 C 70.828 87.045,70.859 87.787,70.426 88.750 " stroke="none" fill="#DF2823" fill-rule="evenodd"/></svg>