<?xml version="1.0" standalone="no"?>
<!DOCTYPE svg PUBLIC "-//W3C//DTD SVG 20010904//EN"
 "http://www.w3.org/TR/2001/REC-SVG-20010904/DTD/svg10.dtd">
<svg version="1.0" xmlns="http://www.w3.org/2000/svg"
 width="150.000000pt" height="150.000000pt" viewBox="0 0 150.000000 150.000000"
 preserveAspectRatio="xMidYMid meet">

<g transform="translate(0.000000,150.000000) scale(0.100000,-0.100000)"
fill="#F58F08" stroke="none">
<path d="M610 1384 c-180 -38 -357 -177 -439 -344 -68 -140 -87 -279 -56 -425
47 -225 232 -423 460 -491 83 -25 267 -25 350 0 108 32 194 85 280 171 122
121 181 251 191 420 20 312 -204 606 -511 670 -86 18 -189 18 -275 -1z m352
-168 c110 -53 188 -157 208 -280 13 -79 -1 -142 -55 -256 -46 -97 -64 -180
-65 -287 0 -44 -4 -55 -26 -72 -25 -19 -40 -21 -190 -21 -101 0 -173 4 -188
11 -25 12 -46 54 -46 91 0 18 -6 19 -113 12 -99 -6 -115 -4 -130 10 -15 16
-17 48 -17 298 0 324 -1 318 81 318 39 0 50 4 60 21 18 35 91 110 130 134 67
43 118 55 209 52 67 -3 97 -9 142 -31z"/>
<path d="M800 1134 c0 -78 2 -91 20 -102 15 -9 20 -23 20 -52 l0 -40 151 0
150 0 -6 23 c-42 138 -155 238 -285 254 l-50 6 0 -89z"/>
<path d="M650 1183 c-36 -18 -140 -117 -140 -133 0 -6 39 -10 90 -10 l90 0 0
80 c0 44 -1 80 -2 80 -2 0 -19 -8 -38 -17z"/>
<path d="M481 973 c-36 -139 -61 -245 -61 -262 0 -23 24 -38 56 -36 20 2 22
-3 26 -68 3 -63 7 -72 36 -98 23 -20 43 -29 67 -29 19 0 35 -4 35 -10 0 -15
56 -12 68 3 14 16 105 505 98 523 -4 11 -38 14 -160 14 l-155 0 -10 -37z m127
-85 c17 -17 15 -55 -4 -62 -28 -11 -43 -7 -54 15 -9 16 -8 25 6 40 20 22 35
24 52 7z"/>
<path d="M811 808 c-6 -29 -22 -117 -37 -195 -14 -78 -31 -149 -38 -158 -6 -9
-31 -19 -54 -22 -41 -6 -42 -7 -42 -44 0 -21 5 -41 11 -45 14 -8 345 -8 359 1
5 3 10 34 10 69 0 99 18 174 66 278 25 53 48 113 51 132 l6 36 -161 0 -161 0
-10 -52z"/>
</g>
</svg>
