<svg id="svg" version="1.1" width="150" height="150" xmlns="http://www.w3.org/2000/svg">
<path style="opacity:0.98000004;fill:#e4e200;fill-opacity:1" d="m 122.2633,104.54314 -45.588024,2.57275 -45.658126,0.47142 20.565937,-40.766757 22.4208,-39.776808 25.022082,38.194004 z" transform="matrix(1.1741905,0.03093426,-0.03302011,1.1910563,-11.332819,-6.4420034)" />
<path d="M69.427 28.680 C 67.461 31.881,54.386 54.429,40.371 78.786 C 21.891 110.903,15.060 123.614,15.514 125.044 C 16.129 126.981,17.182 127.011,74.711 126.758 C 126.355 126.531,133.398 126.317,134.260 124.949 C 135.744 122.597,78.316 23.631,75.207 23.180 C 73.451 22.926,72.269 24.051,69.427 28.680 M98.189 76.271 C 110.668 97.847,121.179 116.287,121.546 117.250 C 122.176 118.902,119.529 119.000,74.492 119.000 L 26.770 119.000 28.212 116.750 C 29.006 115.513,39.699 97.063,51.976 75.750 C 64.252 54.438,74.568 37.009,74.898 37.021 C 75.229 37.032,85.710 54.695,98.189 76.271 M66.967 66.319 L 59.500 70.554 59.204 77.869 C 59.026 82.284,59.358 85.726,60.042 86.550 C 60.751 87.405,63.794 88.025,68.180 88.208 L 75.185 88.500 71.592 95.264 C 68.534 101.024,68.000 102.992,68.000 108.514 L 68.000 115.000 72.000 115.000 L 76.000 115.000 76.000 101.555 L 76.000 88.110 80.741 87.805 C 84.313 87.575,85.564 87.069,85.814 85.750 C 86.062 84.444,85.430 83.960,83.323 83.843 C 81.770 83.756,82.750 83.419,85.500 83.093 C 91.875 82.337,92.521 79.728,86.500 79.049 C 82.592 78.609,82.627 78.585,88.000 78.049 C 94.670 77.383,94.818 75.704,88.275 74.949 C 83.687 74.419,83.637 74.380,87.000 73.949 C 89.245 73.661,90.500 72.962,90.500 72.000 C 90.500 70.788,88.389 70.404,79.500 70.000 C 72.601 69.686,69.290 69.211,70.618 68.724 C 73.576 67.642,76.041 64.684,75.166 63.269 C 74.649 62.432,72.238 63.329,66.967 66.319 M73.900 72.750 C 73.845 73.713,73.440 75.625,73.000 77.000 C 72.320 79.124,72.184 78.860,72.100 75.250 C 72.045 72.912,72.450 71.000,73.000 71.000 C 73.550 71.000,73.955 71.787,73.900 72.750 M77.860 74.750 C 76.309 80.697,76.163 80.779,76.079 75.750 C 76.021 72.277,76.382 71.000,77.419 71.000 C 78.567 71.000,78.651 71.718,77.860 74.750 M82.370 73.750 C 80.866 79.946,80.128 80.586,80.063 75.750 C 80.015 72.140,80.365 71.000,81.519 71.000 C 82.671 71.000,82.877 71.664,82.370 73.750 M70.639 82.000 C 70.712 84.800,70.326 86.000,69.353 86.000 C 68.356 86.000,68.133 85.221,68.564 83.250 C 69.985 76.765,70.493 76.459,70.639 82.000 M75.000 82.000 C 75.000 84.965,74.595 86.000,73.433 86.000 C 72.282 86.000,72.037 85.401,72.512 83.750 C 72.868 82.513,73.378 80.713,73.647 79.750 C 74.454 76.854,75.000 77.762,75.000 82.000 M79.000 82.000 C 79.000 84.707,78.560 86.000,77.639 86.000 C 76.540 86.000,76.483 85.230,77.346 82.000 C 77.933 79.800,78.545 78.000,78.707 78.000 C 78.868 78.000,79.000 79.800,79.000 82.000 " stroke="none" fill="black" fill-rule="evenodd"/></svg>