<svg id="svg" version="1.1" width="150" height="150" xmlns="http://www.w3.org/2000/svg">
<path style="opacity:0.98000004;fill:#e4e200;fill-opacity:1" d="m 122.2633,104.54314 -45.588024,2.57275 -45.658126,0.47142 20.565937,-40.766757 22.4208,-39.776808 25.022082,38.194004 z" transform="matrix(1.1741905,0.03093426,-0.03302011,1.1910563,-11.332819,-6.4420034)" />
<path d="M69.427 28.680 C 67.461 31.881,54.386 54.429,40.371 78.786 C 21.891 110.903,15.060 123.614,15.514 125.044 C 16.129 126.981,17.182 127.011,74.711 126.758 C 126.355 126.531,133.398 126.317,134.260 124.949 C 135.744 122.597,78.316 23.631,75.207 23.180 C 73.451 22.926,72.269 24.051,69.427 28.680 M74.856 50.250 L 74.712 63.500 73.786 51.654 C 72.931 40.715,73.104 37.000,74.469 37.000 C 74.761 37.000,74.935 42.962,74.856 50.250 M80.026 45.049 C 81.313 47.453,79.193 70.231,77.728 69.743 C 77.245 69.582,76.839 69.121,76.825 68.719 C 76.731 66.032,78.308 43.000,78.585 43.000 C 78.775 43.000,79.423 43.922,80.026 45.049 M72.064 57.000 C 73.215 62.225,74.397 67.975,74.691 69.779 C 75.129 72.463,75.481 72.845,76.636 71.887 C 77.788 70.931,77.916 71.063,77.336 72.609 C 76.687 74.337,76.785 74.371,78.475 73.000 C 79.493 72.175,80.116 71.950,79.860 72.500 C 79.604 73.050,78.625 75.188,77.684 77.250 C 76.743 79.313,75.728 81.000,75.428 81.000 C 75.127 81.000,75.196 80.492,75.580 79.870 C 76.006 79.181,75.737 78.931,74.889 79.228 C 74.125 79.496,73.563 80.454,73.639 81.358 C 73.715 82.261,73.378 83.000,72.889 83.000 C 72.400 83.000,71.982 83.563,71.960 84.250 C 71.938 84.938,64.064 90.366,54.463 96.313 C 40.738 104.814,36.867 107.682,36.353 109.731 C 35.849 111.736,36.233 112.770,38.014 114.212 C 39.288 115.244,41.033 115.817,41.894 115.487 C 42.754 115.157,53.930 108.363,66.729 100.389 C 83.678 89.829,90.000 85.381,90.000 84.014 C 90.000 82.981,91.385 81.150,93.077 79.945 C 96.957 77.182,95.575 74.819,91.390 77.059 C 89.932 77.839,87.648 78.335,86.314 78.160 C 84.981 77.985,82.805 78.553,81.480 79.421 C 78.252 81.536,77.889 81.421,78.954 78.620 C 80.692 74.049,89.155 61.756,89.966 62.624 C 91.283 64.036,122.000 117.330,122.000 118.204 C 122.000 118.642,100.573 119.000,74.385 119.000 L 26.770 119.000 28.217 116.750 C 29.013 115.513,33.854 107.188,38.974 98.250 L 48.285 82.000 57.892 81.970 C 68.529 81.936,68.591 80.783,58.047 79.085 C 54.575 78.526,51.556 77.889,51.336 77.670 C 51.117 77.450,51.739 75.863,52.719 74.142 C 54.524 70.970,56.362 70.159,57.516 72.027 C 57.865 72.591,58.679 72.937,59.325 72.795 C 60.860 72.458,67.066 77.084,66.439 78.099 C 66.174 78.528,66.754 78.846,67.728 78.806 C 68.703 78.766,70.366 79.096,71.424 79.540 C 72.969 80.188,73.221 80.018,72.705 78.674 C 72.352 77.753,72.499 77.000,73.031 77.000 C 73.564 77.000,74.000 76.523,74.000 75.941 C 74.000 75.359,73.573 75.146,73.050 75.469 C 71.708 76.299,69.972 72.663,70.953 71.076 C 71.588 70.049,72.022 70.170,72.931 71.630 C 74.041 73.413,74.072 73.407,73.597 71.500 C 72.545 67.281,69.004 47.841,69.079 46.699 C 69.208 44.737,69.858 46.978,72.064 57.000 M68.869 59.944 C 70.041 63.488,70.993 67.088,70.985 67.944 C 70.948 71.720,68.536 65.582,65.309 53.500 C 64.062 48.829,66.881 53.932,68.869 59.944 M85.704 54.250 C 86.492 56.004,86.155 57.823,84.176 62.500 C 81.282 69.340,81.181 69.514,80.496 68.829 C 79.824 68.158,83.245 52.000,84.059 52.000 C 84.409 52.000,85.149 53.013,85.704 54.250 M66.451 64.346 C 68.403 67.836,69.991 71.099,69.979 71.596 C 69.950 72.842,62.000 60.329,62.000 59.038 C 62.000 56.964,62.969 58.120,66.451 64.346 M66.258 69.876 C 69.369 73.658,71.638 77.029,71.299 77.367 C 70.465 78.202,68.000 76.060,68.000 74.500 C 68.000 73.810,67.308 72.671,66.462 71.969 C 63.928 69.865,58.764 63.000,59.717 63.000 C 60.203 63.000,63.147 66.094,66.258 69.876 M61.000 70.190 C 61.000 70.674,60.100 70.589,59.000 70.000 C 57.900 69.411,57.000 68.201,57.000 67.310 C 57.000 65.880,57.235 65.902,59.000 67.500 C 60.100 68.495,61.000 69.706,61.000 70.190 M66.530 74.803 C 65.858 75.475,63.000 72.981,63.000 71.723 C 63.000 71.155,63.903 71.507,65.006 72.506 C 66.110 73.504,66.795 74.538,66.530 74.803 M54.000 74.941 C 54.000 76.073,54.450 77.000,55.000 77.000 C 55.550 77.000,56.000 76.352,56.000 75.559 C 56.000 74.766,55.550 73.840,55.000 73.500 C 54.450 73.160,54.000 73.809,54.000 74.941 M60.000 75.441 C 60.000 76.298,60.450 77.000,61.000 77.000 C 61.550 77.000,62.000 76.577,62.000 76.059 C 62.000 75.541,61.550 74.840,61.000 74.500 C 60.450 74.160,60.000 74.584,60.000 75.441 M80.500 77.000 C 80.160 77.550,80.359 78.000,80.941 78.000 C 81.523 78.000,82.000 77.550,82.000 77.000 C 82.000 76.450,81.802 76.000,81.559 76.000 C 81.316 76.000,80.840 76.450,80.500 77.000 M55.000 80.617 C 55.000 80.827,53.875 81.000,52.500 81.000 C 51.125 81.000,50.000 80.612,50.000 80.139 C 50.000 79.665,51.125 79.492,52.500 79.755 C 53.875 80.018,55.000 80.406,55.000 80.617 M68.000 82.000 C 68.000 82.550,67.100 83.000,66.000 83.000 C 64.900 83.000,64.000 83.450,64.000 84.000 C 64.000 85.298,66.608 85.280,69.066 83.965 C 71.363 82.735,71.617 81.000,69.500 81.000 C 68.675 81.000,68.000 81.450,68.000 82.000 M97.000 93.879 C 97.000 95.117,96.553 95.842,96.000 95.500 C 95.450 95.160,95.000 95.809,95.000 96.941 C 95.000 98.073,94.550 99.000,94.000 99.000 C 93.450 99.000,93.000 99.900,93.000 101.000 C 93.000 102.100,92.637 103.000,92.193 103.000 C 91.749 103.000,91.483 104.405,91.602 106.123 C 91.826 109.361,94.421 112.912,95.660 111.674 C 96.048 111.285,95.834 110.434,95.183 109.783 C 93.594 108.194,93.680 106.663,95.322 107.293 C 96.838 107.875,99.366 104.401,98.475 102.959 C 98.149 102.432,98.359 102.000,98.941 102.000 C 99.523 102.000,100.000 102.810,100.000 103.800 C 100.000 104.790,100.529 106.129,101.176 106.776 C 102.078 107.678,101.925 108.425,100.521 109.976 C 98.526 112.181,99.821 112.702,103.029 110.985 C 104.501 110.197,104.905 108.922,104.833 105.303 C 104.781 102.736,104.334 100.156,103.839 99.568 C 97.323 91.840,97.000 91.571,97.000 93.879 M89.000 114.000 C 89.000 114.596,92.833 115.000,98.500 115.000 C 104.167 115.000,108.000 114.596,108.000 114.000 C 108.000 113.404,104.167 113.000,98.500 113.000 C 92.833 113.000,89.000 113.404,89.000 114.000 " stroke="none" fill="black" fill-rule="evenodd"/></svg>