<svg id="svg" version="1.1" width="150" height="150" xmlns="http://www.w3.org/2000/svg">
<path style="opacity:0.98000004;fill:#e4e200;fill-opacity:1" d="m 122.2633,104.54314 -45.588024,2.57275 -45.658126,0.47142 20.565937,-40.766757 22.4208,-39.776808 25.022082,38.194004 z" transform="matrix(1.1741905,0.03093426,-0.03302011,1.1910563,-11.332819,-6.4420034)" />
<path d="M69.427 28.680 C 67.461 31.881,54.386 54.429,40.371 78.786 C 21.891 110.903,15.060 123.614,15.514 125.044 C 16.129 126.981,17.182 127.011,74.711 126.758 C 126.355 126.531,133.398 126.317,134.260 124.949 C 135.744 122.597,78.316 23.631,75.207 23.180 C 73.451 22.926,72.269 24.051,69.427 28.680 M98.190 76.267 C 110.669 97.845,121.180 116.287,121.547 117.250 C 122.176 118.902,119.529 119.000,74.492 119.000 L 26.770 119.000 28.212 116.750 C 29.006 115.513,39.699 97.063,51.976 75.750 C 64.252 54.438,74.568 37.008,74.898 37.017 C 75.229 37.026,85.710 54.689,98.190 76.267 M71.630 58.250 C 71.299 59.487,71.021 62.041,71.014 63.924 L 71.000 67.349 68.412 64.924 L 65.823 62.500 66.508 66.172 C 66.885 68.191,66.882 71.260,66.502 72.991 C 65.862 75.904,65.681 76.022,64.077 74.569 C 62.092 72.773,60.558 72.476,61.549 74.079 C 62.651 75.863,59.898 84.175,58.396 83.599 C 57.358 83.200,57.165 84.758,57.477 90.994 C 58.015 101.738,59.643 104.454,66.472 105.994 C 70.237 106.843,70.985 106.062,68.434 103.945 C 65.508 101.517,63.887 97.121,64.571 93.472 C 65.209 90.072,67.000 88.583,67.000 91.453 C 67.000 93.423,69.143 98.000,70.065 98.000 C 70.475 98.000,70.593 96.088,70.327 93.750 L 69.845 89.500 71.772 91.877 L 73.700 94.254 74.336 91.877 C 74.686 90.570,74.993 87.250,75.018 84.500 C 75.060 79.885,75.177 79.649,76.532 81.441 C 77.364 82.541,78.010 85.574,78.022 88.441 L 78.044 93.500 80.105 91.000 L 82.165 88.500 81.616 91.706 C 81.168 94.324,81.353 94.802,82.627 94.313 C 85.412 93.244,80.249 101.878,76.877 103.929 C 73.148 106.196,74.494 107.265,79.974 106.388 C 85.005 105.584,88.800 102.724,90.621 98.364 C 92.511 93.841,92.457 89.611,90.519 90.354 C 89.277 90.831,89.136 89.992,89.644 85.129 C 90.049 81.261,89.824 78.539,88.968 76.940 C 87.767 74.696,87.643 74.666,87.011 76.468 C 86.485 77.967,86.077 77.410,85.164 73.946 C 84.519 71.501,83.301 68.602,82.456 67.505 C 81.139 65.793,80.787 65.722,79.976 67.005 C 79.247 68.158,79.027 68.190,79.015 67.144 C 79.007 66.399,77.875 64.452,76.500 62.818 C 75.125 61.184,74.000 58.981,74.000 57.923 C 74.000 55.275,72.367 55.500,71.630 58.250 M50.180 112.250 L 50.500 114.500 74.250 114.768 L 98.000 115.036 98.000 112.518 L 98.000 110.000 73.930 110.000 L 49.861 110.000 50.180 112.250 " stroke="none" fill="black" fill-rule="evenodd"/></svg>