<svg id="svg" version="1.1" width="150" height="150" xmlns="http://www.w3.org/2000/svg">
<path style="opacity:0.98000004;fill:#e4e200;fill-opacity:1" d="m 122.2633,104.54314 -45.588024,2.57275 -45.658126,0.47142 20.565937,-40.766757 22.4208,-39.776808 25.022082,38.194004 z" transform="matrix(1.1741905,0.03093426,-0.03302011,1.1910563,-11.332819,-6.4420034)" />
<path d="M69.427 28.680 C 67.461 31.881,54.386 54.429,40.371 78.786 C 21.891 110.903,15.060 123.614,15.514 125.044 C 16.129 126.981,17.182 127.011,74.711 126.758 C 126.355 126.531,133.398 126.317,134.260 124.949 C 135.744 122.597,78.316 23.631,75.207 23.180 C 73.451 22.926,72.269 24.051,69.427 28.680 M98.190 76.267 C 110.669 97.845,121.180 116.287,121.547 117.250 C 122.176 118.902,119.529 119.000,74.492 119.000 L 26.770 119.000 28.212 116.750 C 29.006 115.513,39.699 97.063,51.976 75.750 C 64.252 54.438,74.568 37.008,74.898 37.017 C 75.229 37.026,85.710 54.689,98.190 76.267 M67.500 64.408 C 60.453 67.531,56.799 74.140,58.457 80.764 C 58.833 82.269,59.233 85.132,59.346 87.126 C 59.458 89.121,60.210 91.548,61.017 92.521 C 62.368 94.149,62.287 94.231,59.992 93.557 C 58.621 93.155,55.715 91.973,53.532 90.931 C 49.087 88.808,48.317 89.165,47.394 93.781 C 46.780 96.850,46.894 97.000,49.838 97.000 C 52.957 97.000,62.716 100.377,64.427 102.048 C 64.987 102.595,63.057 103.969,59.553 105.519 C 56.362 106.930,53.511 107.845,53.218 107.551 C 52.924 107.258,52.143 107.466,51.482 108.015 C 50.082 109.177,50.743 113.981,52.382 114.558 C 52.997 114.774,56.633 113.439,60.462 111.591 C 66.891 108.489,67.599 108.346,69.705 109.726 C 71.902 111.166,74.706 111.107,81.072 109.489 C 82.894 109.026,85.640 109.777,90.479 112.064 C 97.010 115.150,97.372 115.211,98.656 113.455 C 101.084 110.135,100.317 108.309,96.250 107.725 C 94.188 107.430,90.852 106.481,88.838 105.617 C 85.859 104.340,85.280 103.646,85.736 101.901 C 86.521 98.901,94.189 95.625,98.524 96.439 C 100.450 96.800,102.117 96.620,102.493 96.011 C 103.240 94.803,101.215 88.000,100.109 88.000 C 99.704 88.000,97.151 89.076,94.436 90.391 L 89.500 92.783 89.190 89.938 C 89.020 88.373,89.357 86.201,89.940 85.112 C 91.801 81.636,91.229 73.130,88.916 69.882 C 84.623 63.853,74.557 61.280,67.500 64.408 M81.364 66.379 C 85.073 67.928,89.060 72.438,88.884 74.885 C 88.787 76.229,88.691 76.206,88.311 74.750 C 88.059 73.787,87.384 73.000,86.810 73.000 C 86.235 73.000,86.019 73.964,86.329 75.149 C 86.638 76.330,86.639 78.553,86.333 80.087 C 85.855 82.475,85.517 82.715,83.985 81.759 C 82.597 80.892,81.615 81.023,79.598 82.344 C 76.505 84.371,76.317 86.072,78.926 88.433 C 81.664 90.911,84.370 90.055,85.076 86.488 L 85.667 83.500 86.435 87.196 C 87.130 90.541,86.876 91.227,83.756 94.440 C 78.338 100.018,70.113 100.538,67.795 95.448 C 67.169 94.075,65.625 92.693,64.364 92.377 C 61.525 91.664,60.628 89.108,61.975 85.567 C 63.261 82.183,63.320 74.000,62.057 74.000 C 61.539 74.000,60.943 75.912,60.732 78.250 L 60.349 82.500 60.178 78.500 C 59.747 68.402,70.915 62.013,81.364 66.379 M88.693 82.731 C 88.439 83.704,88.215 83.150,88.195 81.500 C 88.175 79.850,88.382 79.054,88.656 79.731 C 88.930 80.408,88.947 81.758,88.693 82.731 M66.163 82.854 C 64.387 84.012,65.053 88.016,67.250 89.393 C 69.816 91.001,72.500 88.956,72.500 85.391 C 72.500 83.043,72.030 82.451,70.000 82.241 C 68.625 82.098,66.898 82.374,66.163 82.854 M72.110 91.115 C 70.791 94.899,71.350 96.000,74.590 96.000 C 77.596 96.000,78.648 93.717,77.153 90.436 C 75.626 87.086,73.410 87.384,72.110 91.115 M100.228 92.412 C 100.652 94.631,100.433 94.782,97.499 94.306 C 95.542 93.989,93.054 94.438,91.062 95.468 C 89.276 96.392,87.577 96.910,87.287 96.620 C 86.849 96.182,97.100 90.570,99.133 90.135 C 99.482 90.061,99.974 91.085,100.228 92.412 M60.628 95.969 C 61.616 95.996,64.833 99.001,63.872 98.999 C 63.668 98.999,61.133 98.099,58.239 96.999 C 55.346 95.900,52.126 95.000,51.083 95.000 C 49.740 95.000,49.326 94.468,49.664 93.175 C 50.115 91.452,50.403 91.478,54.821 93.644 C 57.394 94.905,60.007 95.952,60.628 95.969 M71.048 103.801 C 76.020 105.830,81.674 103.968,83.535 99.688 C 84.298 97.934,84.939 97.077,84.961 97.782 C 85.039 100.337,82.158 105.776,79.883 107.369 C 76.710 109.592,71.713 109.445,69.560 107.066 C 67.662 104.969,65.051 98.417,65.149 96.000 C 65.182 95.175,65.760 96.281,66.434 98.459 C 67.373 101.497,68.446 102.739,71.048 103.801 M65.833 106.002 C 65.649 106.553,62.686 108.334,59.249 109.960 C 53.293 112.776,53.000 112.820,53.000 110.899 C 53.000 109.789,53.341 109.093,53.758 109.350 C 54.174 109.608,56.987 108.752,60.008 107.449 C 66.449 104.671,66.261 104.718,65.833 106.002 M91.066 108.308 C 94.677 109.573,97.464 111.109,97.259 111.722 C 96.904 112.787,86.825 108.934,84.550 106.864 C 83.184 105.622,83.759 105.749,91.066 108.308 " stroke="none" fill="black" fill-rule="evenodd"/></svg>