<svg id="svg" version="1.1" width="150" height="150" xmlns="http://www.w3.org/2000/svg">
<path style="opacity:0.98000004;fill:#e4e200;fill-opacity:1" d="m 122.2633,104.54314 -45.588024,2.57275 -45.658126,0.47142 20.565937,-40.766757 22.4208,-39.776808 25.022082,38.194004 z" transform="matrix(1.1741905,0.03093426,-0.03302011,1.1910563,-11.332819,-6.4420034)" />
<path d="M69.427 28.680 C 67.461 31.881,54.386 54.429,40.371 78.786 C 21.891 110.903,15.060 123.614,15.514 125.044 C 16.129 126.981,17.182 127.011,74.711 126.758 C 126.355 126.531,133.398 126.317,134.260 124.949 C 135.744 122.597,78.316 23.631,75.207 23.180 C 73.451 22.926,72.269 24.051,69.427 28.680 M98.189 76.271 C 110.668 97.847,121.179 116.287,121.546 117.250 C 122.176 118.902,119.529 119.000,74.492 119.000 L 26.770 119.000 28.202 116.750 C 28.990 115.513,39.686 97.063,51.973 75.750 C 64.259 54.438,74.578 37.009,74.905 37.021 C 75.232 37.032,85.710 54.695,98.189 76.271 M57.018 84.558 C 48.447 106.794,47.360 109.061,45.526 108.534 C 39.111 106.691,37.791 106.679,38.149 108.470 C 38.379 109.622,40.454 110.834,44.153 111.977 L 49.805 113.723 50.881 111.362 C 52.196 108.476,55.629 108.256,56.500 111.001 C 57.987 115.685,65.285 116.012,67.011 111.472 C 67.863 109.231,68.497 109.000,73.815 109.000 C 79.082 109.000,79.794 109.252,80.805 111.472 C 82.897 116.064,90.983 115.779,92.481 111.061 C 92.995 109.440,93.974 109.000,97.067 109.000 L 101.000 109.000 101.000 100.934 C 101.000 90.458,100.202 89.000,94.465 89.000 L 90.000 89.000 90.000 79.122 C 90.000 71.483,89.654 68.958,88.473 67.977 C 86.732 66.532,72.244 66.553,70.497 68.003 C 69.910 68.490,66.763 75.889,63.505 84.444 C 60.238 93.023,57.022 100.000,56.335 100.000 C 55.006 100.000,55.552 98.369,64.852 74.576 C 67.630 67.468,69.673 61.280,69.392 60.826 C 67.760 58.185,65.552 62.420,57.018 84.558 M85.250 69.936 C 86.789 69.992,87.000 71.143,87.000 79.500 C 87.000 85.167,86.596 89.000,86.000 89.000 C 85.450 89.000,85.000 86.525,85.000 83.500 C 85.000 80.100,84.571 78.000,83.878 78.000 C 83.098 78.000,83.132 77.546,83.989 76.513 C 85.506 74.685,84.620 72.000,82.500 72.000 C 80.545 72.000,79.385 74.785,80.765 76.165 C 81.472 76.872,81.288 78.078,80.179 80.010 C 78.685 82.615,78.190 82.795,73.581 82.412 C 69.890 82.105,68.889 82.289,69.722 83.122 C 70.555 83.955,69.806 85.771,66.836 90.123 C 64.629 93.356,62.691 96.000,62.529 96.000 C 61.940 96.000,72.214 70.487,72.998 70.000 C 73.441 69.725,75.985 69.584,78.652 69.686 C 81.318 69.789,84.287 69.901,85.250 69.936 M78.582 86.000 C 79.362 86.000,80.000 86.355,80.000 86.789 C 80.000 87.224,78.820 87.561,77.377 87.539 C 74.668 87.499,73.694 88.538,72.024 93.250 C 71.246 95.445,70.427 96.000,67.966 96.000 C 64.603 96.000,64.606 95.983,68.962 89.922 C 70.376 87.954,72.088 86.529,72.767 86.756 C 73.445 86.982,74.000 86.631,74.000 85.976 C 74.000 85.302,74.685 85.049,75.582 85.393 C 76.452 85.727,77.802 86.000,78.582 86.000 M78.000 93.559 C 78.000 95.062,77.424 96.000,76.500 96.000 C 74.847 96.000,74.744 95.558,75.627 92.261 C 76.385 89.435,78.000 90.319,78.000 93.559 M89.500 107.891 C 89.500 111.252,86.542 112.970,84.416 110.845 C 81.926 108.354,83.447 104.800,86.836 105.192 C 88.893 105.430,89.500 106.045,89.500 107.891 M64.334 108.427 C 64.635 109.212,64.210 110.411,63.390 111.091 C 62.190 112.087,61.594 112.022,60.331 110.760 C 59.469 109.898,59.068 108.699,59.441 108.096 C 60.413 106.523,63.688 106.744,64.334 108.427 " stroke="none" fill="black" fill-rule="evenodd"/></svg>