<svg id="svg" version="1.1" width="150" height="150" xmlns="http://www.w3.org/2000/svg">
<path style="opacity:0.98000004;fill:#e4e200;fill-opacity:1" d="m 122.2633,104.54314 -45.588024,2.57275 -45.658126,0.47142 20.565937,-40.766757 22.4208,-39.776808 25.022082,38.194004 z" transform="matrix(1.1741905,0.03093426,-0.03302011,1.1910563,-11.332819,-6.4420034)" />
<path d="M71.254 25.695 C 70.175 27.238,57.053 49.785,42.094 75.799 C 22.459 109.946,15.069 123.643,15.518 125.057 C 16.127 126.977,17.310 127.011,74.711 126.758 C 126.200 126.531,133.400 126.314,134.254 124.959 C 134.998 123.780,128.425 111.658,106.331 73.459 C 75.420 20.015,75.320 19.879,71.254 25.695 M98.190 76.267 C 110.669 97.845,121.180 116.287,121.547 117.250 C 122.176 118.902,119.529 119.000,74.492 119.000 L 26.770 119.000 28.212 116.750 C 29.006 115.513,39.699 97.063,51.976 75.750 C 64.252 54.438,74.568 37.008,74.898 37.017 C 75.229 37.026,85.710 54.689,98.190 76.267 M57.000 79.000 C 57.000 83.070,56.679 84.000,55.273 84.000 C 53.881 84.000,54.075 84.530,56.273 86.727 L 59.000 89.455 61.727 86.727 C 63.925 84.530,64.119 84.000,62.727 84.000 C 61.321 84.000,61.000 83.070,61.000 79.000 C 61.000 74.667,60.733 74.000,59.000 74.000 C 57.267 74.000,57.000 74.667,57.000 79.000 M72.000 90.950 C 72.000 91.473,72.787 92.359,73.750 92.920 C 75.313 93.830,75.259 93.942,73.250 93.970 C 71.903 93.988,71.000 93.398,71.000 92.500 C 71.000 91.250,69.000 91.000,59.000 91.000 C 49.000 91.000,47.000 91.250,47.000 92.500 C 47.000 93.707,48.543 94.000,54.889 94.000 C 61.788 94.000,62.760 94.219,62.639 95.750 C 62.519 97.260,63.735 97.577,71.500 98.061 L 80.500 98.622 70.417 98.811 C 64.871 98.915,60.064 99.269,59.736 99.598 C 59.407 99.927,59.380 100.827,59.676 101.598 C 60.081 102.653,62.723 103.051,70.357 103.208 L 80.500 103.415 71.250 103.745 C 63.950 104.005,62.000 104.383,62.000 105.538 C 62.000 107.218,61.887 107.200,72.500 107.228 L 80.500 107.249 74.000 107.875 C 69.167 108.340,67.500 108.885,67.500 110.000 C 67.500 111.241,69.721 111.548,80.365 111.781 C 91.803 112.030,93.613 111.836,96.672 110.031 C 98.565 108.914,101.234 108.000,102.603 108.000 C 105.038 108.000,105.085 107.854,104.796 101.250 C 104.523 95.014,104.320 94.475,102.135 94.165 C 100.834 93.981,98.359 92.971,96.635 91.919 C 94.063 90.351,91.570 90.007,82.750 90.004 C 76.622 90.002,72.000 90.409,72.000 90.950 M47.254 114.250 C 47.876 116.099,71.000 116.165,71.000 114.318 C 71.000 113.300,68.249 113.000,58.917 113.000 C 49.692 113.000,46.933 113.296,47.254 114.250 " stroke="none" fill="black" fill-rule="evenodd"/></svg>