<svg id="svg" version="1.1" width="150" height="150" xmlns="http://www.w3.org/2000/svg">
<path style="opacity:0.98000004;fill:#e4e200;fill-opacity:1" d="m 122.2633,104.54314 -45.588024,2.57275 -45.658126,0.47142 20.565937,-40.766757 22.4208,-39.776808 25.022082,38.194004 z" transform="matrix(1.1741905,0.03093426,-0.03302011,1.1910563,-11.332819,-6.4420034)" />
<path d="M69.427 28.680 C 67.461 31.881,54.386 54.429,40.371 78.786 C 21.891 110.903,15.060 123.614,15.514 125.044 C 16.129 126.981,17.182 127.011,74.711 126.758 C 126.355 126.531,133.398 126.317,134.260 124.949 C 135.744 122.597,78.316 23.631,75.207 23.180 C 73.451 22.926,72.269 24.051,69.427 28.680 M98.190 76.267 C 110.669 97.845,121.180 116.287,121.547 117.250 C 122.176 118.902,119.529 119.000,74.492 119.000 L 26.770 119.000 28.212 116.750 C 29.006 115.513,39.699 97.063,51.976 75.750 C 64.252 54.438,74.568 37.008,74.898 37.017 C 75.229 37.026,85.710 54.689,98.190 76.267 M60.562 69.880 C 58.050 74.738,58.576 81.243,62.000 87.660 C 65.284 93.814,65.744 98.050,63.580 102.199 C 62.357 104.543,62.368 105.060,63.662 106.135 C 65.474 107.639,66.477 106.393,68.061 100.666 C 69.371 95.933,68.580 92.075,64.871 85.109 C 61.652 79.064,61.533 78.055,63.419 72.769 C 64.519 69.690,64.522 68.848,63.438 67.948 C 62.429 67.111,61.762 67.559,60.562 69.880 M72.562 69.880 C 70.066 74.707,70.634 81.672,74.039 88.000 C 77.291 94.042,77.729 98.079,75.580 102.199 C 74.401 104.458,74.391 105.080,75.519 106.016 C 77.733 107.854,80.434 102.640,80.398 96.598 C 80.375 92.809,79.549 89.988,77.183 85.609 C 73.608 78.992,73.392 77.391,75.424 72.527 C 76.624 69.655,76.634 68.941,75.486 67.989 C 74.414 67.099,73.792 67.501,72.562 69.880 M84.454 70.090 C 82.111 74.619,82.840 83.562,85.902 87.862 C 88.919 92.099,89.676 97.939,87.717 101.866 C 86.494 104.316,86.445 105.124,87.465 105.971 C 89.066 107.300,90.301 105.861,91.948 100.747 C 93.420 96.177,92.702 92.538,88.902 85.313 C 85.614 79.063,85.414 77.337,87.424 72.527 C 88.624 69.655,88.634 68.941,87.486 67.989 C 86.412 67.097,85.772 67.540,84.454 70.090 M51.000 112.500 L 51.000 115.000 75.500 115.000 L 100.000 115.000 100.000 112.500 L 100.000 110.000 75.500 110.000 L 51.000 110.000 51.000 112.500 " stroke="none" fill="black" fill-rule="evenodd"/></svg>