<svg id="svg" version="1.1" width="150" height="150" xmlns="http://www.w3.org/2000/svg">
<path style="opacity:0.98000004;fill:#e4e200;fill-opacity:1" d="m 122.2633,104.54314 -45.588024,2.57275 -45.658126,0.47142 20.565937,-40.766757 22.4208,-39.776808 25.022082,38.194004 z" transform="matrix(1.1741905,0.03093426,-0.03302011,1.1910563,-11.332819,-6.4420034)" />
<path d="M69.427 28.680 C 67.461 31.881,54.386 54.429,40.371 78.786 C 21.891 110.903,15.060 123.614,15.514 125.044 C 16.129 126.981,17.182 127.011,74.711 126.758 C 126.355 126.531,133.398 126.317,134.260 124.949 C 135.744 122.597,78.316 23.631,75.207 23.180 C 73.451 22.926,72.269 24.051,69.427 28.680 M98.189 76.271 C 110.668 97.847,121.179 116.287,121.546 117.250 C 122.176 118.902,119.529 119.000,74.492 119.000 L 26.770 119.000 28.212 116.750 C 29.006 115.513,39.699 97.063,51.976 75.750 C 64.252 54.438,74.568 37.009,74.898 37.021 C 75.229 37.032,85.710 54.695,98.189 76.271 M69.500 63.874 C 64.672 65.127,62.024 66.913,59.950 70.314 C 57.666 74.060,57.540 80.297,59.332 101.000 L 60.500 114.500 64.355 114.817 C 70.935 115.357,70.810 115.803,68.850 98.853 C 66.500 78.528,66.518 75.482,69.000 73.000 C 71.211 70.789,76.847 70.312,80.114 72.061 C 83.646 73.951,83.899 76.905,81.916 93.065 C 80.875 101.554,80.018 109.963,80.011 111.750 C 80.000 114.985,80.023 115.000,85.000 115.000 C 89.786 115.000,90.000 114.882,90.009 112.250 C 90.013 110.737,90.489 104.325,91.066 98.000 C 92.805 78.937,92.655 73.355,90.320 70.222 C 86.214 64.713,77.041 61.916,69.500 63.874 M50.226 102.750 C 48.784 106.297,49.771 116.667,51.384 114.917 C 51.595 114.687,51.954 111.463,52.181 107.750 C 52.579 101.264,51.721 99.072,50.226 102.750 M54.468 104.317 C 53.662 108.617,54.224 114.256,55.500 114.670 C 56.098 114.864,56.531 112.178,56.577 107.997 C 56.657 100.650,55.526 98.677,54.468 104.317 M93.468 107.995 C 93.491 112.904,93.873 114.991,94.750 114.995 C 96.071 115.000,96.557 105.616,95.393 102.582 C 94.130 99.290,93.438 101.237,93.468 107.995 M97.683 103.250 C 98.132 104.487,98.419 107.638,98.320 110.250 C 98.128 115.298,99.539 116.687,100.593 112.487 C 101.588 108.522,100.133 101.000,98.371 101.000 C 97.234 101.000,97.065 101.551,97.683 103.250 M68.301 108.205 C 68.996 113.390,68.642 114.000,64.941 114.000 C 62.403 114.000,61.998 113.624,61.986 111.250 C 61.979 109.737,61.701 107.487,61.370 106.250 C 60.829 104.232,61.126 104.000,64.252 104.000 C 67.590 104.000,67.760 104.177,68.301 108.205 M88.989 105.250 C 88.983 105.938,88.695 108.211,88.350 110.303 C 87.764 113.847,87.509 114.085,84.611 113.803 C 82.900 113.636,81.612 113.162,81.750 112.750 C 81.888 112.338,82.000 110.200,82.000 108.000 C 82.000 104.095,82.083 104.000,85.500 104.000 C 87.639 104.000,88.996 104.486,88.989 105.250 " stroke="none" fill="black" fill-rule="evenodd"/></svg>