<svg id="svg" version="1.1" width="150" height="150" xmlns="http://www.w3.org/2000/svg">
<path style="opacity:0.98000004;fill:#e4e200;fill-opacity:1" d="m 122.2633,104.54314 -45.588024,2.57275 -45.658126,0.47142 20.565937,-40.766757 22.4208,-39.776808 25.022082,38.194004 z" transform="matrix(1.1741905,0.03093426,-0.03302011,1.1910563,-11.332819,-6.4420034)" />
<path d="M72.754 23.289 C 69.976 25.500,14.902 122.323,15.208 124.459 C 15.498 126.484,15.964 126.502,74.211 126.758 C 130.638 127.006,132.960 126.943,133.920 125.150 C 134.736 123.624,131.769 117.830,117.654 93.392 C 108.158 76.951,95.239 54.575,88.944 43.667 C 82.650 32.759,76.775 23.439,75.888 22.956 C 74.871 22.402,73.714 22.525,72.754 23.289 M98.833 77.577 C 111.575 99.619,122.000 117.957,122.000 118.327 C 122.000 118.697,100.588 119.000,74.417 119.000 C 48.246 119.000,26.983 118.636,27.167 118.191 C 28.949 113.864,74.620 36.250,75.068 36.786 C 75.397 37.178,86.091 55.535,98.833 77.577 M70.230 56.551 C 69.012 57.404,67.588 58.901,67.066 59.876 C 65.733 62.367,70.377 95.805,72.327 97.756 C 74.093 99.522,77.688 98.601,78.404 96.199 C 79.647 92.029,83.071 62.419,82.550 60.345 C 81.945 57.931,77.405 55.000,74.272 55.000 C 73.267 55.000,71.448 55.698,70.230 56.551 M70.571 103.571 C 68.536 105.607,68.562 109.419,70.625 111.483 C 73.089 113.947,78.119 113.070,79.909 109.865 C 81.227 107.506,81.202 106.957,79.667 104.615 C 77.680 101.583,73.087 101.056,70.571 103.571 " stroke="none" fill="black" fill-rule="evenodd"/></svg>