<svg id="svg" version="1.1" width="150" height="150" xmlns="http://www.w3.org/2000/svg">
<path style="opacity:0.98000004;fill:#e4e200;fill-opacity:1" d="m 122.2633,104.54314 -45.588024,2.57275 -45.658126,0.47142 20.565937,-40.766757 22.4208,-39.776808 25.022082,38.194004 z" transform="matrix(1.1741905,0.03093426,-0.03302011,1.1910563,-11.332819,-6.4420034)" />
<path d="M69.427 28.680 C 67.461 31.881,54.386 54.429,40.371 78.786 C 21.891 110.903,15.060 123.614,15.514 125.044 C 16.129 126.981,17.182 127.011,74.711 126.758 C 126.355 126.531,133.398 126.317,134.260 124.949 C 135.744 122.597,78.316 23.631,75.207 23.180 C 73.451 22.926,72.269 24.051,69.427 28.680 M98.189 76.271 C 110.668 97.847,121.179 116.287,121.546 117.250 C 122.176 118.902,119.529 119.000,74.492 119.000 L 26.770 119.000 28.212 116.750 C 29.006 115.513,39.699 97.063,51.976 75.750 C 64.252 54.438,74.568 37.009,74.898 37.021 C 75.229 37.032,85.710 54.695,98.189 76.271 M72.605 56.588 C 72.272 57.454,72.000 59.772,72.000 61.737 C 72.000 65.135,71.910 65.229,70.171 63.655 C 69.165 62.745,68.153 61.999,67.921 61.999 C 67.690 61.998,67.654 64.473,67.843 67.499 C 68.161 72.619,67.120 74.621,65.500 72.000 C 64.183 69.868,63.231 71.203,62.583 76.089 C 62.086 79.836,61.543 81.039,60.527 80.649 C 59.249 80.158,59.090 83.666,59.944 93.500 C 59.992 94.050,60.446 95.157,60.954 95.960 C 61.744 97.209,62.178 97.149,63.953 95.542 C 65.249 94.370,65.810 92.976,65.447 91.832 C 65.127 90.824,65.346 90.000,65.933 90.000 C 66.520 90.000,67.045 88.987,67.100 87.750 C 67.197 85.559,67.217 85.564,67.877 87.926 C 68.870 91.479,70.995 91.754,71.022 88.333 L 71.044 85.500 72.871 87.875 L 74.698 90.251 75.338 86.375 C 75.690 84.244,76.020 81.150,76.071 79.500 L 76.163 76.500 77.666 79.951 C 78.497 81.857,78.919 84.655,78.610 86.201 C 77.938 89.559,79.263 89.895,80.780 86.750 C 81.845 84.540,81.866 84.549,81.932 87.250 C 81.970 88.763,82.472 90.000,83.050 90.000 C 83.730 90.000,83.776 90.578,83.179 91.644 C 82.555 92.760,82.780 94.205,83.879 96.138 C 85.805 99.524,86.154 99.593,88.463 97.041 C 90.649 94.625,92.006 85.260,89.990 86.506 C 88.957 87.144,88.818 86.344,89.322 82.667 C 90.039 77.436,88.485 71.597,87.011 73.982 C 86.354 75.046,85.962 74.667,85.428 72.448 C 84.330 67.882,82.005 63.832,80.726 64.258 C 79.601 64.633,75.000 58.812,75.000 57.015 C 75.000 55.328,73.211 55.009,72.605 56.588 M66.400 95.400 C 63.630 98.170,63.000 99.566,63.000 102.935 C 63.000 105.210,63.727 108.180,64.615 109.535 C 66.212 111.973,66.196 112.000,63.115 112.000 C 61.013 112.000,60.000 112.488,60.000 113.500 C 60.000 114.762,62.231 115.000,74.083 115.000 C 84.902 115.000,88.072 114.710,87.756 113.750 C 87.531 113.063,85.941 112.361,84.224 112.190 L 81.102 111.881 83.047 108.690 C 84.117 106.936,84.994 104.465,84.996 103.200 C 85.002 99.633,82.265 95.188,79.033 93.517 C 74.141 90.987,70.230 91.570,66.400 95.400 M79.545 97.455 C 83.753 101.662,82.056 108.888,76.351 111.057 C 72.857 112.385,67.276 109.855,65.938 106.337 C 62.691 97.798,73.096 91.006,79.545 97.455 " stroke="none" fill="black" fill-rule="evenodd"/></svg>