<svg id="svg" version="1.1" width="150" height="150" xmlns="http://www.w3.org/2000/svg">
<path style="opacity:0.98000004;fill:#e4e200;fill-opacity:1" d="m 122.2633,104.54314 -45.588024,2.57275 -45.658126,0.47142 20.565937,-40.766757 22.4208,-39.776808 25.022082,38.194004 z" transform="matrix(1.1741905,0.03093426,-0.03302011,1.1910563,-11.332819,-6.4420034)" />
<path d="M72.754 23.289 C 69.976 25.500,14.902 122.323,15.208 124.459 C 15.498 126.484,15.964 126.502,74.211 126.758 C 130.638 127.006,132.960 126.943,133.920 125.150 C 134.736 123.624,131.769 117.830,117.654 93.392 C 108.158 76.951,95.239 54.575,88.944 43.667 C 82.650 32.759,76.775 23.439,75.888 22.956 C 74.871 22.402,73.714 22.525,72.754 23.289 M98.833 77.577 C 111.575 99.619,122.000 117.957,122.000 118.327 C 122.000 118.697,100.588 119.000,74.417 119.000 C 48.246 119.000,26.983 118.636,27.167 118.191 C 28.949 113.864,74.620 36.250,75.068 36.786 C 75.397 37.178,86.091 55.535,98.833 77.577 M84.482 74.569 C 84.492 78.105,84.789 80.998,85.143 80.999 C 87.206 81.003,87.713 70.837,85.732 69.192 C 84.730 68.361,84.468 69.489,84.482 74.569 M81.385 75.000 C 81.385 77.750,81.507 80.000,81.657 80.000 C 82.799 80.000,84.011 75.325,83.487 72.941 C 82.486 68.385,81.385 69.464,81.385 75.000 M78.200 74.503 C 78.200 76.426,78.605 78.000,79.100 78.000 C 80.273 78.000,80.273 72.287,79.100 71.562 C 78.605 71.256,78.200 72.579,78.200 74.503 M73.130 73.343 C 72.493 74.111,72.460 75.113,73.042 76.034 C 73.552 76.840,73.976 79.188,73.985 81.250 L 74.000 85.000 62.250 85.024 L 50.500 85.049 45.750 93.522 C 42.286 99.701,41.000 103.079,41.000 105.998 C 41.000 109.136,41.378 110.004,42.750 110.017 C 43.712 110.027,45.560 111.152,46.855 112.517 C 49.849 115.674,53.052 115.669,56.818 112.500 C 60.688 109.243,64.792 109.289,67.958 112.625 C 70.115 114.897,70.960 115.140,74.848 114.607 C 77.285 114.273,81.135 114.000,83.404 114.000 C 87.122 114.000,87.766 113.614,89.947 110.085 C 91.517 107.545,93.971 105.418,96.934 104.030 C 102.929 101.220,106.672 98.338,105.650 97.318 C 105.199 96.868,102.112 97.981,98.790 99.792 C 93.041 102.924,92.658 103.000,90.852 101.366 C 89.808 100.422,87.778 97.028,86.341 93.824 C 84.903 90.621,83.338 88.000,82.863 88.000 C 82.389 88.000,82.000 87.325,82.000 86.500 C 82.000 85.485,80.985 85.000,78.861 85.000 L 75.722 85.000 76.260 79.068 C 76.659 74.672,76.455 73.005,75.472 72.628 C 74.743 72.348,73.689 72.670,73.130 73.343 M82.659 95.000 C 85.326 105.498,85.580 108.716,83.428 104.750 C 82.604 103.231,81.081 102.000,80.027 102.000 C 78.977 102.000,77.840 101.550,77.500 101.000 C 77.160 100.450,75.141 100.000,73.014 100.000 C 70.026 100.000,68.673 100.600,67.073 102.635 C 65.933 104.084,65.000 106.031,65.000 106.962 C 65.000 109.698,59.459 108.449,59.252 105.667 C 58.877 100.627,50.109 98.012,46.597 101.893 C 45.655 102.933,44.499 105.071,44.028 106.643 C 43.203 109.397,43.169 109.359,43.086 105.596 C 43.009 102.086,47.471 92.091,51.288 87.223 C 52.035 86.271,55.871 86.017,66.395 86.223 L 80.500 86.500 82.659 95.000 M91.139 97.332 C 90.320 98.319,90.402 99.161,91.456 100.582 C 92.795 102.388,92.979 102.401,94.603 100.800 C 96.031 99.394,96.106 98.833,95.042 97.550 C 93.466 95.651,92.575 95.602,91.139 97.332 M56.000 103.000 C 61.541 108.541,53.643 116.607,47.829 111.345 C 45.274 109.033,45.478 104.479,48.223 102.557 C 51.214 100.462,53.597 100.597,56.000 103.000 M75.948 101.947 C 77.083 102.665,76.813 103.009,74.698 103.540 C 73.214 103.912,72.000 104.863,72.000 105.654 C 72.000 106.754,72.819 106.937,75.500 106.434 C 78.571 105.858,79.000 106.028,79.000 107.817 C 79.000 110.707,76.345 113.000,73.000 113.000 C 69.351 113.000,67.000 110.643,67.000 106.985 C 67.000 102.540,72.230 99.595,75.948 101.947 " stroke="none" fill="black" fill-rule="evenodd"/></svg>