<svg id="svg" version="1.1" width="150" height="150" xmlns="http://www.w3.org/2000/svg">
<path style="opacity:0.98000004;fill:#e4e200;fill-opacity:1" d="m 122.2633,104.54314 -45.588024,2.57275 -45.658126,0.47142 20.565937,-40.766757 22.4208,-39.776808 25.022082,38.194004 z" transform="matrix(1.1741905,0.03093426,-0.03302011,1.1910563,-11.332819,-6.4420034)" />
<path d="M69.427 28.680 C 67.461 31.881,54.386 54.429,40.371 78.786 C 21.891 110.903,15.060 123.614,15.514 125.044 C 16.129 126.981,17.182 127.011,74.711 126.758 C 126.355 126.531,133.398 126.317,134.260 124.949 C 135.744 122.597,78.316 23.631,75.207 23.180 C 73.451 22.926,72.269 24.051,69.427 28.680 M98.194 76.270 C 110.676 97.846,121.186 116.287,121.551 117.250 C 122.177 118.901,119.527 119.000,74.492 119.000 L 26.770 119.000 28.212 116.750 C 29.006 115.513,39.699 97.063,51.976 75.750 C 64.252 54.438,74.568 37.009,74.898 37.020 C 75.229 37.031,85.712 54.693,98.194 76.270 M73.000 69.500 C 73.000 74.385,72.183 75.123,70.232 72.000 C 69.545 70.900,68.338 70.000,67.551 70.000 C 64.456 70.000,64.952 72.376,68.883 76.381 C 72.850 80.423,74.341 85.053,72.118 86.427 C 70.209 87.607,66.394 83.063,65.121 78.095 C 64.124 74.205,63.364 73.000,61.908 73.000 C 59.725 73.000,59.658 73.322,60.930 77.757 C 61.442 79.540,61.693 81.000,61.487 81.000 C 61.282 81.000,59.528 80.064,57.590 78.921 C 55.652 77.777,53.601 77.129,53.033 77.480 C 51.011 78.729,52.053 80.655,55.689 82.389 C 58.554 83.755,59.057 84.352,57.939 85.059 C 57.148 85.560,55.739 85.976,54.809 85.985 C 52.642 86.004,51.900 87.220,52.985 88.975 C 53.694 90.124,54.764 90.147,59.370 89.116 C 65.206 87.810,69.000 88.703,69.000 91.382 C 69.000 94.014,64.788 94.787,59.161 93.188 C 54.573 91.884,53.696 91.870,52.926 93.085 C 51.484 95.363,51.796 95.739,55.737 96.479 C 59.780 97.237,59.777 97.244,53.685 101.294 C 52.494 102.085,52.105 103.112,52.553 104.279 C 53.199 105.960,53.426 105.946,56.675 104.029 C 61.345 101.274,62.082 101.466,60.813 105.107 C 59.958 107.561,60.021 108.399,61.115 109.092 C 63.468 110.582,63.818 110.174,65.102 104.435 C 66.869 96.537,73.000 92.483,73.000 99.212 C 73.000 101.635,71.977 103.467,68.838 106.665 C 65.264 110.307,64.862 111.129,65.993 112.492 C 67.174 113.915,67.602 113.797,70.155 111.352 L 73.000 108.626 73.000 112.813 C 73.000 116.333,73.318 117.000,75.000 117.000 C 76.682 117.000,77.000 116.333,77.000 112.813 L 77.000 108.626 79.845 111.352 C 82.398 113.797,82.826 113.915,84.007 112.492 C 85.138 111.129,84.736 110.307,81.162 106.665 C 78.023 103.467,77.000 101.635,77.000 99.212 C 77.000 92.667,84.227 97.463,85.472 104.834 C 86.238 109.365,87.028 110.310,89.319 109.431 C 90.490 108.982,90.623 108.173,89.927 105.744 C 88.760 101.676,89.273 101.346,92.830 103.879 C 95.493 105.775,95.901 105.824,97.088 104.394 C 98.205 103.049,98.034 102.529,95.951 100.928 C 94.603 99.892,93.162 99.034,92.750 99.022 C 90.687 98.961,92.382 97.174,95.000 96.650 C 97.186 96.213,98.000 95.482,98.000 93.958 C 98.000 92.438,97.521 92.004,96.250 92.373 C 88.090 94.741,86.050 94.980,83.583 93.856 C 80.366 92.390,80.297 90.690,83.374 88.675 C 85.478 87.296,86.289 87.283,90.532 88.560 C 96.828 90.454,98.000 90.379,98.000 88.079 C 98.000 86.759,97.063 85.953,95.000 85.500 C 93.350 85.138,92.000 84.481,92.000 84.042 C 92.000 83.602,93.350 82.683,95.000 82.000 C 98.211 80.670,98.444 80.248,97.117 78.156 C 96.416 77.048,95.697 77.105,93.040 78.479 C 89.153 80.490,88.616 80.140,90.000 76.500 C 91.201 73.342,91.189 73.313,88.567 72.845 C 86.968 72.560,86.395 73.464,85.253 78.072 C 84.200 82.317,83.205 84.038,81.076 85.296 C 77.859 87.197,77.000 86.720,77.000 83.036 C 77.000 81.285,78.337 79.100,81.000 76.500 C 83.200 74.352,85.000 72.221,85.000 71.766 C 85.000 69.752,81.716 69.918,79.449 72.048 L 77.000 74.349 77.000 69.674 C 77.000 65.667,76.715 65.000,75.000 65.000 C 73.296 65.000,73.000 65.667,73.000 69.500 " stroke="none" fill="black" fill-rule="evenodd"/></svg>