<svg id="svg" version="1.1" width="150" height="150" xmlns="http://www.w3.org/2000/svg">
<path style="opacity:0.98000004;fill:#e4e200;fill-opacity:1" d="m 122.2633,104.54314 -45.588024,2.57275 -45.658126,0.47142 20.565937,-40.766757 22.4208,-39.776808 25.022082,38.194004 z" transform="matrix(1.1741905,0.03093426,-0.03302011,1.1910563,-11.332819,-6.4420034)" />
<path d="M69.427 28.680 C 67.461 31.881,54.386 54.429,40.371 78.786 C 21.891 110.903,15.060 123.614,15.514 125.044 C 16.129 126.981,17.182 127.011,74.711 126.758 C 126.355 126.531,133.398 126.317,134.260 124.949 C 135.744 122.597,78.316 23.631,75.207 23.180 C 73.451 22.926,72.269 24.051,69.427 28.680 M98.195 76.266 C 110.677 97.845,121.187 116.287,121.552 117.250 C 122.177 118.901,119.527 119.000,74.492 119.000 L 26.770 119.000 28.209 116.750 C 29.000 115.513,39.691 97.063,51.966 75.750 C 64.242 54.438,74.558 37.007,74.892 37.016 C 75.227 37.025,85.713 54.687,98.195 76.266 M59.033 73.626 C 55.418 76.667,52.464 82.009,51.472 87.297 L 50.777 91.000 58.639 90.958 C 66.491 90.915,66.503 90.911,68.696 87.469 L 70.893 84.023 67.196 77.521 C 65.163 73.944,63.197 71.014,62.827 71.009 C 62.456 71.004,60.749 72.182,59.033 73.626 M82.637 77.587 C 79.266 83.448,79.009 84.358,80.306 85.837 C 81.108 86.752,82.035 88.400,82.367 89.500 C 82.918 91.323,83.687 91.471,91.082 91.171 L 99.193 90.842 98.522 87.171 C 97.381 80.928,90.355 71.000,87.078 71.000 C 86.719 71.000,84.721 73.964,82.637 77.587 M71.960 87.831 C 69.234 90.039,69.840 94.497,73.002 95.501 C 78.439 97.226,82.329 91.304,78.040 87.831 C 76.796 86.824,75.428 86.000,75.000 86.000 C 74.572 86.000,73.204 86.824,71.960 87.831 M70.074 99.500 C 69.658 100.050,67.859 103.095,66.076 106.266 L 62.834 112.033 66.385 113.516 C 70.926 115.414,79.063 115.419,83.590 113.527 L 87.116 112.054 84.375 107.277 C 79.437 98.672,79.308 98.552,74.914 98.525 C 72.669 98.511,70.491 98.950,70.074 99.500 " stroke="none" fill="black" fill-rule="evenodd"/></svg>