<svg id="svg" version="1.1" width="150" height="150" xmlns="http://www.w3.org/2000/svg">
<path style="opacity:0.98000004;fill:#e4e200;fill-opacity:1" d="m 122.2633,104.54314 -45.588024,2.57275 -45.658126,0.47142 20.565937,-40.766757 22.4208,-39.776808 25.022082,38.194004 z" transform="matrix(1.1741905,0.03093426,-0.03302011,1.1910563,-11.332819,-6.4420034)" />
<path d="M69.427 28.680 C 67.461 31.881,54.386 54.429,40.371 78.786 C 21.891 110.903,15.060 123.614,15.514 125.044 C 16.129 126.981,17.182 127.011,74.711 126.758 C 126.355 126.531,133.398 126.317,134.260 124.949 C 135.744 122.597,78.316 23.631,75.207 23.180 C 73.451 22.926,72.269 24.051,69.427 28.680 M98.190 76.267 C 110.669 97.845,121.180 116.287,121.547 117.250 C 122.176 118.902,119.529 119.000,74.492 119.000 L 26.770 119.000 28.212 116.750 C 29.006 115.513,39.699 97.063,51.976 75.750 C 64.252 54.438,74.568 37.008,74.898 37.017 C 75.229 37.026,85.710 54.689,98.190 76.267 M67.923 58.923 C 59.691 67.155,69.973 80.264,80.010 74.335 C 88.811 69.136,85.221 56.000,75.000 56.000 C 71.742 56.000,70.216 56.631,67.923 58.923 M80.000 61.000 C 82.618 63.618,82.543 67.793,79.826 70.686 C 73.824 77.074,64.483 68.466,69.557 61.223 C 71.592 58.317,77.198 58.198,80.000 61.000 M71.183 62.217 C 69.471 63.929,69.694 69.669,71.500 70.362 C 72.506 70.748,73.000 70.317,73.000 69.052 C 73.000 68.015,72.438 66.963,71.750 66.714 C 70.761 66.356,70.775 65.796,71.819 64.033 C 73.320 61.499,72.952 60.448,71.183 62.217 M67.500 78.417 C 49.898 86.274,55.759 113.282,75.084 113.365 C 87.520 113.418,96.427 100.176,91.933 88.315 C 88.561 79.414,76.350 74.467,67.500 78.417 M82.016 81.852 C 91.617 86.954,92.836 99.225,84.514 107.000 C 82.195 109.167,80.919 109.500,74.936 109.500 C 68.310 109.500,67.885 109.352,64.334 105.801 C 61.083 102.550,60.586 101.399,60.229 96.301 C 59.889 91.448,60.208 89.928,62.181 87.000 C 66.625 80.405,75.136 78.196,82.016 81.852 M66.250 86.119 C 62.801 87.115,61.620 88.594,64.974 87.717 C 66.839 87.229,66.866 87.358,65.474 90.051 C 63.266 94.321,63.652 98.433,66.589 101.923 C 68.013 103.615,69.672 105.000,70.276 105.000 C 70.880 105.000,70.197 103.763,68.758 102.250 C 65.209 98.519,64.465 94.935,66.444 91.108 C 68.432 87.265,69.247 87.115,68.390 90.750 C 67.950 92.619,68.070 93.179,68.766 92.500 C 70.096 91.200,71.410 84.973,70.329 85.090 C 69.873 85.140,68.037 85.603,66.250 86.119 " stroke="none" fill="black" fill-rule="evenodd"/></svg>