<svg id="svg" version="1.1" width="150" height="150" xmlns="http://www.w3.org/2000/svg">
<path style="opacity:0.98000004;fill:#e4e200;fill-opacity:1" d="m 122.2633,104.54314 -45.588024,2.57275 -45.658126,0.47142 20.565937,-40.766757 22.4208,-39.776808 25.022082,38.194004 z" transform="matrix(1.1741905,0.03093426,-0.03302011,1.1910563,-11.332819,-6.4420034)" />
<path d="M69.427 28.680 C 67.461 31.881,54.386 54.429,40.371 78.786 C 21.891 110.903,15.060 123.614,15.514 125.044 C 16.129 126.981,17.182 127.011,74.711 126.758 C 126.355 126.531,133.398 126.317,134.260 124.949 C 135.744 122.597,78.316 23.631,75.207 23.180 C 73.451 22.926,72.269 24.051,69.427 28.680 M98.190 76.267 C 110.669 97.845,121.180 116.287,121.547 117.250 C 122.176 118.902,119.529 119.000,74.492 119.000 L 26.770 119.000 28.216 116.750 C 29.011 115.513,39.696 97.063,51.960 75.750 C 64.225 54.438,74.538 37.008,74.879 37.017 C 75.221 37.026,85.710 54.689,98.190 76.267 M69.050 57.750 C 68.485 59.813,66.284 67.688,64.158 75.250 C 62.033 82.813,60.528 89.000,60.814 89.000 C 61.100 89.000,64.238 87.404,67.787 85.453 C 71.336 83.502,74.421 82.087,74.642 82.309 C 74.864 82.531,74.360 87.274,73.523 92.849 C 72.685 98.425,72.000 103.301,72.000 103.685 C 72.000 104.068,71.321 103.509,70.491 102.441 C 69.112 100.666,69.039 100.969,69.636 106.000 C 70.801 115.816,71.132 116.001,75.789 109.437 C 79.913 103.623,80.557 101.463,77.380 104.100 C 75.897 105.331,75.785 105.253,76.372 103.403 C 77.824 98.829,84.805 72.486,84.617 72.291 C 84.506 72.176,80.947 74.059,76.708 76.476 C 72.469 78.892,69.000 80.687,69.000 80.465 C 69.000 80.242,71.475 74.468,74.500 67.632 C 77.525 60.797,80.000 54.933,80.000 54.602 C 80.000 54.271,77.767 54.000,75.039 54.000 C 70.155 54.000,70.061 54.059,69.050 57.750 " stroke="none" fill="black" fill-rule="evenodd"/></svg>