<svg id="svg" version="1.1" width="150" height="150" xmlns="http://www.w3.org/2000/svg">
<path style="opacity:0.98000004;fill:#e4e200;fill-opacity:1" d="m 122.2633,104.54314 -45.588024,2.57275 -45.658126,0.47142 20.565937,-40.766757 22.4208,-39.776808 25.022082,38.194004 z" transform="matrix(1.1741905,0.03093426,-0.03302011,1.1910563,-11.332819,-6.4420034)" />
<path d="M69.427 28.680 C 67.461 31.881,54.386 54.429,40.371 78.786 C 21.891 110.903,15.060 123.614,15.514 125.044 C 16.129 126.981,17.182 127.011,74.711 126.758 C 126.355 126.531,133.398 126.317,134.260 124.949 C 135.744 122.597,78.316 23.631,75.207 23.180 C 73.451 22.926,72.269 24.051,69.427 28.680 M98.195 76.266 C 110.677 97.845,121.187 116.287,121.552 117.250 C 122.177 118.901,119.527 119.000,74.492 119.000 L 26.770 119.000 28.209 116.750 C 29.000 115.513,39.691 97.063,51.966 75.750 C 64.242 54.438,74.558 37.007,74.892 37.016 C 75.227 37.025,85.713 54.687,98.195 76.266 M57.738 71.737 C 52.906 77.076,50.632 88.229,53.058 94.685 C 54.594 98.772,58.309 103.985,59.691 103.993 C 62.055 104.007,61.985 102.067,59.491 98.392 C 56.263 93.635,55.642 91.083,56.227 84.988 C 56.544 81.691,57.607 78.893,59.471 76.449 C 61.882 73.288,62.056 72.627,60.805 71.376 C 59.554 70.125,59.154 70.172,57.738 71.737 M88.995 71.506 C 87.958 72.756,88.003 73.356,89.241 74.769 C 95.386 81.779,95.406 93.474,89.285 100.237 C 88.049 101.604,87.930 102.330,88.800 103.200 C 90.378 104.778,93.725 101.715,96.119 96.500 C 98.785 90.695,98.534 83.464,95.452 77.279 C 92.227 70.808,90.704 69.447,88.995 71.506 M62.229 76.262 C 57.703 81.095,56.850 87.870,59.918 94.627 C 62.113 99.460,63.562 100.608,65.471 99.024 C 66.627 98.064,66.441 97.269,64.337 94.188 C 61.312 89.759,61.515 83.894,64.855 79.204 C 66.586 76.773,66.732 76.023,65.651 75.125 C 64.648 74.293,63.815 74.569,62.229 76.262 M84.220 75.180 C 83.376 76.024,83.620 77.062,85.177 79.248 C 88.487 83.897,88.678 89.773,85.663 94.188 C 83.430 97.457,83.319 98.020,84.681 99.150 C 85.954 100.207,86.472 100.090,87.715 98.462 C 92.188 92.606,92.978 86.746,90.137 80.500 C 87.845 75.462,85.788 73.612,84.220 75.180 M66.551 80.943 C 63.843 83.936,63.618 89.042,66.024 92.892 C 67.973 96.012,68.273 96.155,69.755 94.674 C 71.237 93.192,71.231 92.913,69.683 91.202 C 67.610 88.912,67.530 86.004,69.468 83.441 C 71.323 80.989,71.344 80.346,69.594 79.674 C 68.821 79.378,67.451 79.949,66.551 80.943 M79.555 79.911 C 79.245 80.413,79.781 82.213,80.746 83.911 C 82.422 86.862,82.420 87.141,80.701 90.166 C 79.130 92.931,79.086 93.515,80.353 94.781 C 81.619 96.048,82.033 95.879,83.629 93.444 C 86.023 89.790,85.995 83.757,83.572 81.080 C 81.524 78.817,80.428 78.498,79.555 79.911 M72.709 84.624 C 71.504 85.830,71.925 88.693,73.500 90.000 C 75.506 91.664,78.216 89.512,77.798 86.588 C 77.503 84.518,74.120 83.213,72.709 84.624 M72.665 93.733 C 72.154 94.560,67.000 114.301,67.000 115.431 C 67.000 115.744,70.609 116.000,75.019 116.000 C 82.837 116.000,83.024 115.943,82.471 113.750 C 82.159 112.513,80.886 107.450,79.643 102.500 C 77.762 95.010,77.031 93.448,75.286 93.193 C 74.132 93.024,72.953 93.267,72.665 93.733 " stroke="none" fill="black" fill-rule="evenodd"/></svg>