<svg id="svg" version="1.1" width="150" height="150" xmlns="http://www.w3.org/2000/svg">
<path style="opacity:0.98000004;fill:#e4e200;fill-opacity:1" d="m 122.2633,104.54314 -45.588024,2.57275 -45.658126,0.47142 20.565937,-40.766757 22.4208,-39.776808 25.022082,38.194004 z" transform="matrix(1.1741905,0.03093426,-0.03302011,1.1910563,-11.332819,-6.4420034)" />
<path d="M70.202 26.250 C 69.123 28.038,62.947 38.725,56.476 50.000 C 50.006 61.275,37.999 82.118,29.795 96.317 C 20.344 112.673,14.992 122.934,15.189 124.317 L 15.500 126.500 74.500 126.500 L 133.500 126.500 133.800 124.397 C 133.988 123.085,123.291 103.609,105.379 72.647 C 74.095 18.570,74.508 19.115,70.202 26.250 M99.186 78.902 C 111.734 100.573,122.000 118.460,122.000 118.652 C 122.000 118.843,100.625 119.000,74.500 119.000 C 48.375 119.000,27.000 118.805,27.000 118.568 C 27.000 118.330,32.666 108.318,39.592 96.318 C 46.518 84.318,57.170 65.806,63.263 55.180 C 72.540 39.003,74.507 36.156,75.357 37.680 C 75.915 38.681,86.638 57.231,99.186 78.902 M66.432 62.316 C 65.441 64.900,70.573 73.432,74.940 76.458 C 79.403 79.551,79.455 80.106,75.938 87.079 L 74.134 90.659 68.817 89.960 C 64.365 89.374,62.464 89.683,57.132 91.856 C 50.645 94.500,48.880 96.280,50.819 98.219 C 51.598 98.998,53.596 98.569,57.918 96.695 C 62.818 94.570,64.872 94.197,68.999 94.686 L 74.066 95.286 70.658 97.393 C 66.732 99.820,59.000 108.483,59.000 110.454 C 59.000 113.807,62.138 112.695,66.170 107.914 C 68.589 105.045,72.837 101.605,76.126 99.852 C 81.361 97.062,82.100 96.236,84.581 90.397 C 86.077 86.879,87.622 84.000,88.015 84.000 C 90.426 84.000,94.156 88.728,95.562 93.566 C 96.482 96.732,97.714 99.000,98.512 99.000 C 100.781 99.000,100.976 97.600,99.500 91.920 C 97.949 85.950,93.375 80.962,87.000 78.288 C 79.329 75.071,73.950 70.808,71.708 66.169 C 69.368 61.328,67.371 59.869,66.432 62.316 M84.040 70.452 C 81.383 73.653,85.285 78.570,88.750 76.388 C 92.212 74.207,90.979 69.000,87.000 69.000 C 86.035 69.000,84.703 69.653,84.040 70.452 M42.667 100.667 C 41.040 102.293,42.353 103.000,47.000 103.000 L 52.000 103.000 52.000 109.000 C 52.000 113.667,52.333 115.000,53.500 115.000 C 54.700 115.000,55.000 113.500,55.000 107.500 L 55.000 100.000 49.167 100.000 C 45.958 100.000,43.033 100.300,42.667 100.667 " stroke="none" fill="black" fill-rule="evenodd"/></svg>