<svg id="svg" version="1.1" width="150" height="150" xmlns="http://www.w3.org/2000/svg">
<path style="opacity:0.98000004;fill:#e4e200;fill-opacity:1" d="m 122.2633,104.54314 -45.588024,2.57275 -45.658126,0.47142 20.565937,-40.766757 22.4208,-39.776808 25.022082,38.194004 z" transform="matrix(1.1741905,0.03093426,-0.03302011,1.1910563,-11.332819,-6.4420034)" />
<path d="M69.427 28.680 C 67.461 31.881,54.386 54.429,40.371 78.786 C 21.891 110.903,15.060 123.614,15.514 125.044 C 16.129 126.981,17.182 127.011,74.711 126.758 C 126.355 126.531,133.398 126.317,134.260 124.949 C 135.744 122.597,78.316 23.631,75.207 23.180 C 73.451 22.926,72.269 24.051,69.427 28.680 M98.190 76.267 C 110.669 97.845,121.180 116.287,121.547 117.250 C 122.176 118.902,119.529 119.000,74.492 119.000 L 26.770 119.000 28.212 116.750 C 29.006 115.513,39.699 97.063,51.976 75.750 C 64.252 54.438,74.568 37.008,74.898 37.017 C 75.229 37.026,85.710 54.689,98.190 76.267 M67.692 70.938 C 62.528 73.348,61.277 74.677,62.767 76.167 C 63.656 77.056,64.906 76.895,68.018 75.492 C 71.051 74.124,72.776 73.888,74.720 74.575 C 78.996 76.087,78.343 77.377,72.071 79.809 C 67.095 81.739,65.626 82.908,62.965 87.055 L 59.792 92.000 53.455 92.000 C 49.970 92.000,46.816 92.489,46.446 93.087 C 45.141 95.198,48.147 96.468,55.282 96.821 L 62.500 97.178 64.500 93.839 L 66.500 90.500 66.834 94.500 C 67.145 98.228,66.812 98.815,61.932 103.133 C 58.295 106.351,56.886 108.260,57.317 109.383 C 58.287 111.912,59.879 111.347,65.642 106.423 C 70.719 102.085,71.000 101.598,71.000 97.114 C 71.000 94.511,71.563 91.656,72.250 90.769 C 73.515 89.138,81.458 85.419,80.795 86.769 C 80.597 87.171,79.822 88.723,79.072 90.219 C 77.789 92.774,77.930 93.208,81.421 97.469 C 83.463 99.961,85.752 102.000,86.508 102.000 C 89.254 102.000,89.089 99.865,86.077 96.435 C 84.385 94.508,83.000 92.698,83.000 92.413 C 83.000 92.129,83.977 90.198,85.171 88.123 L 87.343 84.350 85.421 79.623 C 83.951 76.005,82.382 74.205,78.735 71.948 C 73.277 68.571,72.849 68.532,67.692 70.938 M87.750 74.080 C 85.322 75.494,85.522 79.674,88.083 81.045 C 89.745 81.934,90.554 81.809,92.083 80.425 C 94.482 78.254,94.505 76.767,92.171 74.655 C 90.053 72.738,90.054 72.738,87.750 74.080 M64.000 112.000 L 64.000 115.000 76.000 115.000 L 88.000 115.000 88.000 112.000 L 88.000 109.000 76.000 109.000 L 64.000 109.000 64.000 112.000 " stroke="none" fill="black" fill-rule="evenodd"/></svg>