<svg id="svg" version="1.1" width="150" height="150" xmlns="http://www.w3.org/2000/svg">
<path style="opacity:0.98000004;fill:#e4e200;fill-opacity:1" d="m 122.2633,104.54314 -45.588024,2.57275 -45.658126,0.47142 20.565937,-40.766757 22.4208,-39.776808 25.022082,38.194004 z" transform="matrix(1.1741905,0.03093426,-0.03302011,1.1910563,-11.332819,-6.4420034)" />
<path d="M72.754 23.289 C 69.976 25.500,14.902 122.323,15.208 124.459 C 15.498 126.484,15.964 126.502,74.211 126.758 C 130.638 127.006,132.960 126.943,133.920 125.150 C 134.736 123.624,131.769 117.830,117.654 93.392 C 108.158 76.951,95.239 54.575,88.944 43.667 C 82.650 32.759,76.775 23.439,75.888 22.956 C 74.871 22.402,73.714 22.525,72.754 23.289 M98.833 77.577 C 111.575 99.619,122.000 117.957,122.000 118.327 C 122.000 118.697,100.625 119.000,74.500 119.000 C 48.375 119.000,27.000 118.851,27.000 118.668 C 27.000 118.485,32.308 109.148,38.796 97.918 C 45.284 86.688,55.970 68.184,62.544 56.798 C 69.117 45.411,74.759 36.411,75.081 36.798 C 75.402 37.184,86.091 55.535,98.833 77.577 M58.006 71.750 C 58.010 72.162,59.350 73.261,60.985 74.192 C 65.144 76.558,67.992 81.659,67.996 86.750 C 67.999 89.859,68.403 91.000,69.500 91.000 C 70.325 91.000,70.984 91.787,70.965 92.750 C 70.915 95.215,68.390 99.500,66.988 99.500 C 66.342 99.500,65.200 101.300,64.449 103.500 C 60.321 115.596,47.878 116.236,42.585 104.624 C 41.809 102.921,40.998 102.195,40.596 102.844 C 40.223 103.448,40.569 105.192,41.364 106.721 C 43.837 111.474,47.546 114.198,52.188 114.671 C 57.782 115.240,62.170 112.560,65.090 106.789 C 66.284 104.430,67.877 102.140,68.630 101.700 C 72.289 99.564,74.403 90.476,71.500 89.362 C 70.629 89.027,70.000 87.531,70.000 85.794 C 70.000 81.535,67.245 76.289,63.515 73.444 C 60.342 71.024,57.994 70.302,58.006 71.750 M88.309 79.140 C 85.769 82.229,83.733 91.115,84.261 96.807 C 84.838 103.030,87.626 111.000,89.225 111.000 C 90.297 111.000,90.102 110.114,87.464 103.000 C 85.489 97.674,86.009 87.818,88.520 82.960 C 90.280 79.558,90.134 76.921,88.309 79.140 M77.000 81.435 C 77.000 81.674,77.439 83.024,77.975 84.435 C 78.609 86.102,78.609 87.000,77.975 87.000 C 77.439 87.000,77.000 88.387,77.000 90.082 C 77.000 91.778,75.650 96.241,74.000 100.000 C 70.663 107.603,70.489 108.783,72.161 112.453 C 73.112 114.542,74.015 115.000,77.180 115.000 C 80.833 115.000,81.003 114.862,80.387 112.407 C 80.029 110.981,80.300 105.883,80.989 101.078 C 82.084 93.439,82.034 91.629,80.593 86.671 C 79.686 83.552,78.507 81.000,77.972 81.000 C 77.437 81.000,77.000 81.196,77.000 81.435 M91.350 84.157 C 88.884 88.743,88.884 100.257,91.350 104.843 C 93.941 109.662,94.275 108.257,92.314 100.780 C 90.694 94.604,90.695 93.917,92.340 87.999 C 94.336 80.822,93.949 79.323,91.350 84.157 M95.798 86.690 C 94.220 90.391,94.271 99.888,95.884 102.836 C 97.840 106.410,98.306 104.732,96.997 98.828 C 96.024 94.443,96.077 92.746,97.294 89.239 C 98.949 84.474,97.671 82.297,95.798 86.690 M79.693 91.731 C 79.439 92.704,79.215 92.150,79.195 90.500 C 79.175 88.850,79.382 88.054,79.656 88.731 C 79.930 89.408,79.947 90.758,79.693 91.731 M79.662 97.250 C 79.385 97.938,79.158 97.375,79.158 96.000 C 79.158 94.625,79.385 94.063,79.662 94.750 C 79.940 95.438,79.940 96.563,79.662 97.250 " stroke="none" fill="black" fill-rule="evenodd"/>
</svg>