<svg id="svg" version="1.1" width="150" height="150" xmlns="http://www.w3.org/2000/svg">
<path style="opacity:0.98000004;fill:#e4e200;fill-opacity:1" d="m 122.2633,104.54314 -45.588024,2.57275 -45.658126,0.47142 20.565937,-40.766757 22.4208,-39.776808 25.022082,38.194004 z" transform="matrix(1.1741905,0.03093426,-0.03302011,1.1910563,-11.332819,-6.4420034)" />
<path d="M69.427 28.680 C 67.461 31.881,54.386 54.429,40.371 78.786 C 21.891 110.903,15.060 123.614,15.514 125.044 C 16.129 126.981,17.182 127.011,74.711 126.758 C 126.355 126.531,133.398 126.317,134.260 124.949 C 135.744 122.597,78.316 23.631,75.207 23.180 C 73.451 22.926,72.269 24.051,69.427 28.680 M98.190 76.267 C 110.669 97.845,121.180 116.287,121.547 117.250 C 122.176 118.902,119.529 119.000,74.492 119.000 L 26.770 119.000 28.212 116.750 C 29.006 115.513,39.699 97.063,51.976 75.750 C 64.252 54.438,74.568 37.008,74.898 37.017 C 75.229 37.026,85.710 54.689,98.190 76.267 M82.000 65.794 C 81.175 66.093,77.172 67.049,73.104 67.919 C 64.888 69.675,62.363 71.791,65.153 74.582 C 66.646 76.075,67.527 76.057,76.408 74.351 L 86.043 72.500 85.416 69.500 C 84.653 65.846,83.952 65.086,82.000 65.794 M81.667 71.290 C 80.536 71.724,76.435 71.949,72.555 71.790 L 65.500 71.500 74.000 69.469 C 81.513 67.674,82.571 67.616,83.111 68.969 C 83.504 69.952,82.987 70.783,81.667 71.290 M85.057 77.349 C 84.476 78.879,84.000 80.728,84.000 81.458 C 84.000 82.916,86.450 84.217,87.402 83.264 C 88.317 82.350,88.084 77.682,87.042 76.034 C 86.300 74.860,85.904 75.122,85.057 77.349 M55.000 81.570 C 55.000 82.817,54.755 84.475,54.456 85.255 C 54.023 86.382,55.891 86.864,63.576 87.609 C 74.269 88.644,76.752 87.944,75.572 84.228 C 75.055 82.598,73.813 81.968,70.200 81.506 C 67.615 81.175,63.138 80.544,60.250 80.104 C 55.226 79.338,55.000 79.401,55.000 81.570 M73.450 84.089 C 74.024 84.640,70.775 85.000,65.231 85.000 C 57.229 85.000,56.141 84.796,56.678 83.396 C 57.202 82.031,58.426 81.896,64.897 82.485 C 69.079 82.866,72.927 83.588,73.450 84.089 M84.992 90.500 C 83.858 93.464,84.563 96.149,86.536 96.385 C 87.895 96.547,88.327 91.407,87.134 89.276 C 86.254 87.702,86.010 87.841,84.992 90.500 M53.545 90.083 C 53.258 90.862,52.906 92.625,52.762 94.000 C 52.561 95.921,52.963 96.500,54.500 96.500 C 56.126 96.500,56.441 95.939,56.182 93.500 C 55.807 89.963,54.304 88.016,53.545 90.083 M99.200 94.024 C 97.414 95.111,95.288 96.000,94.476 96.000 C 93.664 96.000,93.000 96.873,93.000 97.941 C 93.000 100.695,91.178 101.471,89.108 99.598 C 88.137 98.719,86.645 98.000,85.793 98.000 C 84.941 98.000,83.627 97.089,82.872 95.975 C 81.754 94.325,79.997 93.837,73.371 93.336 C 63.038 92.556,59.759 93.289,60.185 96.285 C 60.473 98.311,61.183 98.543,68.501 99.000 C 75.597 99.443,77.034 99.884,81.219 102.897 C 86.328 106.575,86.485 107.411,82.265 108.470 C 78.635 109.381,77.000 110.825,77.000 113.122 C 77.000 116.467,83.851 114.841,98.418 108.038 L 109.194 103.006 106.464 98.253 C 102.719 91.732,102.847 91.807,99.200 94.024 M53.545 100.083 C 53.258 100.862,52.906 102.625,52.762 104.000 C 52.561 105.921,52.963 106.500,54.500 106.500 C 56.126 106.500,56.441 105.939,56.182 103.500 C 55.807 99.963,54.304 98.016,53.545 100.083 M65.215 101.750 C 65.590 103.563,66.435 103.677,71.500 102.595 C 74.063 102.047,74.172 102.098,72.250 102.945 C 69.941 103.962,69.103 107.000,71.132 107.000 C 71.755 107.000,73.892 105.987,75.882 104.750 C 79.194 102.691,79.308 102.473,77.235 102.179 C 75.990 102.002,75.229 101.439,75.544 100.929 C 75.871 100.399,73.697 100.000,70.486 100.000 C 65.650 100.000,64.905 100.248,65.215 101.750 M38.000 111.500 L 38.000 115.000 52.563 115.000 L 67.127 115.000 66.813 111.750 C 66.535 108.858,66.125 108.464,63.097 108.175 C 61.136 107.988,58.247 108.624,56.283 109.675 C 53.044 111.408,52.823 111.412,51.886 109.750 C 51.107 108.366,49.551 108.000,44.450 108.000 L 38.000 108.000 38.000 111.500 " stroke="none" fill="black" fill-rule="evenodd"/></svg>