<?xml version="1.0" encoding="UTF-8" standalone="no"?>
<svg
   xmlns:dc="http://purl.org/dc/elements/1.1/"
   xmlns:cc="http://creativecommons.org/ns#"
   xmlns:rdf="http://www.w3.org/1999/02/22-rdf-syntax-ns#"
   xmlns:svg="http://www.w3.org/2000/svg"
   xmlns="http://www.w3.org/2000/svg"
   xmlns:sodipodi="http://sodipodi.sourceforge.net/DTD/sodipodi-0.dtd"
   xmlns:inkscape="http://www.inkscape.org/namespaces/inkscape"
   id="svg"
   version="1.1"
   width="150"
   height="150"
   inkscape:version="0.91 r13725"
   sodipodi:docname="sign01.svg">
  <sodipodi:namedview
     pagecolor="#ffffff"
     bordercolor="#666666"
     borderopacity="1"
     objecttolerance="10"
     gridtolerance="10"
     guidetolerance="10"
     inkscape:pageopacity="0"
     inkscape:pageshadow="2"
     inkscape:window-width="1680"
     inkscape:window-height="987"
     id="namedview4139"
     showgrid="false"
     inkscape:snap-page="true"
     inkscape:snap-nodes="false"
     inkscape:snap-to-guides="false"
     inkscape:snap-grids="true"
     inkscape:snap-bbox="true"
     inkscape:zoom="3.8278047"
     inkscape:cx="60.838682"
     inkscape:cy="70.8054"
     inkscape:window-x="1672"
     inkscape:window-y="-8"
     inkscape:window-maximized="1"
     inkscape:current-layer="svg" />
  <path
     sodipodi:type="star"
     style="opacity:0.98000004;fill:#e4e200;fill-opacity:1"
     id="path4745"
     sodipodi:sides="3"
     sodipodi:cx="75.761444"
     sodipodi:cy="79.724731"
     sodipodi:r1="52.710297"
     sodipodi:r2="27.406401"
     sodipodi:arg1="0.49024887"
     sodipodi:arg2="1.5374464"
     inkscape:flatsided="false"
     inkscape:rounded="0"
     inkscape:randomized="0"
     d="m 122.2633,104.54314 -45.588024,2.57275 -45.658126,0.47142 20.565937,-40.766757 22.4208,-39.776808 25.022082,38.194004 z"
     inkscape:transform-center-x="-0.16208528"
     inkscape:transform-center-y="-15.07385"
     transform="matrix(1.1741905,0.03093426,-0.03302011,1.1910563,-11.332819,-6.4420034)" />	 
	 
  <path
     d="M69.427 28.680 C 67.461 31.881,54.386 54.429,40.371 78.786 C 21.891 110.903,15.060 123.614,15.514 125.044 C 16.129 126.981,17.182 127.011,74.711 126.758 C 126.355 126.531,133.398 126.317,134.260 124.949 C 135.744 122.597,78.316 23.631,75.207 23.180 C 73.451 22.926,72.269 24.051,69.427 28.680 M98.190 76.267 C 110.669 97.845,121.180 116.287,121.547 117.250 C 122.176 118.902,119.529 119.000,74.492 119.000 L 26.770 119.000 28.212 116.750 C 29.006 115.513,39.699 97.063,51.976 75.750 C 64.252 54.438,74.568 37.008,74.898 37.017 C 75.229 37.026,85.710 54.689,98.190 76.267 M71.930 66.584 C 70.176 68.697,71.926 71.500,75.000 71.500 C 78.074 71.500,79.824 68.697,78.070 66.584 C 77.347 65.713,75.965 65.000,75.000 65.000 C 74.035 65.000,72.653 65.713,71.930 66.584 M67.655 74.829 C 66.383 76.234,66.000 78.663,66.000 85.329 C 66.000 93.333,66.154 94.000,68.000 94.000 C 69.846 94.000,70.001 94.672,70.015 102.750 C 70.024 107.563,70.361 111.981,70.765 112.569 C 71.169 113.156,73.190 113.674,75.256 113.720 C 79.838 113.821,80.313 112.567,79.833 101.637 C 79.528 94.700,79.667 94.045,81.500 93.784 C 83.291 93.530,83.531 92.623,83.792 85.126 C 84.167 74.407,83.146 73.000,75.000 73.000 C 70.758 73.000,68.889 73.465,67.655 74.829 M48.347 87.250 C 48.091 87.662,49.259 88.000,50.941 88.000 L 54.000 88.000 54.000 94.000 C 54.000 99.816,53.430 100.959,51.450 99.116 C 49.900 97.673,41.500 99.264,41.500 101.000 C 41.500 102.736,49.900 104.327,51.450 102.884 C 53.460 101.013,54.094 102.189,53.802 107.250 L 53.500 112.500 43.000 113.054 C 32.894 113.588,33.092 113.616,48.250 113.804 L 64.000 114.000 64.000 100.500 C 64.000 90.413,63.684 86.978,62.750 86.913 C 56.295 86.467,48.723 86.644,48.347 87.250 M91.750 86.796 L 85.000 87.091 85.000 100.546 L 85.000 114.000 101.250 113.804 C 116.551 113.620,116.887 113.576,107.000 113.054 L 96.500 112.500 96.198 107.250 C 95.906 102.189,96.540 101.013,98.550 102.884 C 100.100 104.327,108.500 102.736,108.500 101.000 C 108.500 99.264,100.100 97.673,98.550 99.116 C 96.570 100.959,96.000 99.816,96.000 94.000 L 96.000 88.000 99.167 88.000 C 100.908 88.000,102.020 87.687,101.638 87.304 C 100.787 86.454,100.221 86.425,91.750 86.796 M62.000 88.813 C 62.000 89.260,60.650 90.919,59.000 92.500 C 56.441 94.952,56.000 95.101,56.000 93.516 C 56.000 92.494,56.745 90.835,57.655 89.829 C 59.342 87.964,62.000 87.343,62.000 88.813 M92.425 89.918 C 93.380 90.972,94.012 92.661,93.830 93.670 C 93.557 95.191,92.924 94.863,90.134 91.753 C 87.219 88.503,87.031 88.000,88.729 88.000 C 89.808 88.000,91.471 88.863,92.425 89.918 M62.300 96.750 C 61.949 97.713,60.388 99.978,58.831 101.785 C 56.218 104.817,56.000 104.898,56.000 102.840 C 56.000 101.613,57.209 99.347,58.687 97.805 C 61.743 94.615,63.236 94.179,62.300 96.750 M91.195 97.687 C 92.868 99.289,93.989 101.409,93.973 102.937 C 93.946 105.467,93.902 105.453,90.473 101.765 C 85.189 96.081,85.817 92.534,91.195 97.687 M60.909 109.610 C 60.225 110.434,58.840 111.550,57.832 112.090 C 54.954 113.630,55.514 110.561,58.750 107.060 C 61.279 104.324,61.526 104.246,61.827 106.097 C 62.006 107.204,61.593 108.785,60.909 109.610 M91.099 107.106 C 93.938 110.145,94.902 113.000,93.089 113.000 C 91.753 113.000,87.000 107.085,87.000 105.423 C 87.000 103.303,87.887 103.667,91.099 107.106 "
     id="path4137"
     stroke="none"
     fill-rule="evenodd"
     fill="black" />

</svg>
