<svg id="svg" version="1.1" width="150" height="150" xmlns="http://www.w3.org/2000/svg">
<path style="opacity:0.98000004;fill:#e4e200;fill-opacity:1" d="m 122.2633,104.54314 -45.588024,2.57275 -45.658126,0.47142 20.565937,-40.766757 22.4208,-39.776808 25.022082,38.194004 z" transform="matrix(1.1741905,0.03093426,-0.03302011,1.1910563,-11.332819,-6.4420034)" />
<path d="M69.427 28.680 C 67.461 31.881,54.386 54.429,40.371 78.786 C 21.891 110.903,15.060 123.614,15.514 125.044 C 16.129 126.981,17.182 127.011,74.711 126.758 C 126.355 126.531,133.398 126.317,134.260 124.949 C 135.744 122.597,78.316 23.631,75.207 23.180 C 73.451 22.926,72.269 24.051,69.427 28.680 M98.189 76.271 C 110.668 97.847,121.179 116.287,121.546 117.250 C 122.176 118.902,119.529 119.000,74.492 119.000 L 26.770 119.000 28.212 116.750 C 29.006 115.513,39.699 97.063,51.976 75.750 C 64.252 54.438,74.568 37.009,74.898 37.021 C 75.229 37.032,85.710 54.695,98.189 76.271 M73.537 76.250 L 72.815 83.500 68.428 78.500 C 66.015 75.750,64.032 73.162,64.021 72.750 C 64.009 72.338,63.544 72.000,62.987 72.000 C 62.431 72.000,63.561 75.150,65.500 79.000 C 67.439 82.850,68.873 86.000,68.688 86.000 C 68.502 86.000,65.109 84.898,61.147 83.550 C 52.853 80.729,52.686 81.354,60.474 86.073 C 63.513 87.915,66.000 89.706,66.000 90.052 C 66.000 90.398,63.413 91.253,60.250 91.952 C 50.971 94.002,50.593 95.070,59.252 94.769 C 66.398 94.521,68.406 95.013,66.091 96.444 C 65.590 96.753,63.228 99.347,60.841 102.207 C 56.267 107.688,56.589 107.685,64.292 102.178 C 66.928 100.293,69.369 99.036,69.717 99.384 C 70.065 99.732,69.832 102.799,69.200 106.200 C 68.568 109.601,68.245 112.578,68.483 112.816 C 68.946 113.279,74.000 102.341,74.000 100.876 C 74.000 100.394,74.450 100.000,75.000 100.000 C 75.550 100.000,76.000 100.394,76.000 100.876 C 76.000 102.242,81.038 113.295,81.466 112.867 C 81.676 112.657,81.277 109.451,80.581 105.743 C 79.884 102.034,79.648 99.000,80.056 99.000 C 80.465 99.000,83.165 100.592,86.056 102.538 C 88.948 104.484,91.805 106.373,92.407 106.737 C 93.008 107.100,91.138 104.660,88.250 101.313 C 85.362 97.967,82.999 95.065,82.998 94.864 C 82.996 94.664,86.484 94.621,90.748 94.769 C 99.407 95.070,99.029 94.002,89.750 91.952 C 86.588 91.253,84.000 90.336,84.000 89.914 C 84.000 89.492,86.465 87.736,89.479 86.012 C 97.322 81.524,97.122 80.737,88.853 83.550 C 84.891 84.898,81.498 86.000,81.312 86.000 C 81.127 86.000,82.561 82.850,84.500 79.000 C 86.439 75.150,87.682 72.021,87.263 72.047 C 86.843 72.073,84.475 74.625,82.000 77.717 L 77.500 83.340 76.868 80.420 C 76.521 78.814,76.183 75.588,76.118 73.250 C 75.929 66.467,74.325 68.332,73.537 76.250 M79.545 86.455 C 80.895 87.805,82.000 89.913,82.000 91.140 C 82.000 94.193,78.193 98.000,75.140 98.000 C 71.905 98.000,68.000 94.325,68.000 91.280 C 68.000 88.349,72.181 84.000,75.000 84.000 C 76.150 84.000,78.195 85.105,79.545 86.455 M71.635 87.073 C 70.186 88.212,69.000 90.012,69.000 91.073 C 69.000 93.586,72.455 97.000,75.000 97.000 C 77.371 97.000,81.000 93.646,81.000 91.455 C 81.000 89.791,76.680 85.000,75.180 85.000 C 74.679 85.000,73.084 85.933,71.635 87.073 " stroke="none" fill="black" fill-rule="evenodd"/></svg>