<svg id="svg" version="1.1" width="150" height="150" xmlns="http://www.w3.org/2000/svg">
<path style="opacity:0.98000004;fill:#e4e200;fill-opacity:1" d="m 122.2633,104.54314 -45.588024,2.57275 -45.658126,0.47142 20.565937,-40.766757 22.4208,-39.776808 25.022082,38.194004 z" transform="matrix(1.1741905,0.03093426,-0.03302011,1.1910563,-11.332819,-6.4420034)" />
<path d="M69.427 28.680 C 67.461 31.881,54.386 54.429,40.371 78.786 C 21.891 110.903,15.060 123.614,15.514 125.044 C 16.129 126.981,17.182 127.011,74.711 126.758 C 126.355 126.531,133.398 126.317,134.260 124.949 C 135.744 122.597,78.316 23.631,75.207 23.180 C 73.451 22.926,72.269 24.051,69.427 28.680 M98.205 76.315 C 110.692 97.922,121.203 116.366,121.562 117.300 C 122.170 118.885,118.992 119.000,74.492 119.000 L 26.770 119.000 28.212 116.750 C 29.006 115.513,39.699 97.063,51.976 75.750 C 64.252 54.438,74.568 37.006,74.898 37.014 C 75.229 37.022,85.717 54.707,98.205 76.315 M60.567 68.891 C 59.436 70.721,64.144 79.076,67.548 81.280 C 71.529 83.859,71.578 84.131,69.044 89.711 L 67.133 93.922 62.181 93.335 C 58.164 92.859,56.168 93.234,51.615 95.319 C 48.304 96.835,46.000 98.527,46.000 99.445 C 46.000 101.541,48.589 101.369,54.000 98.914 C 57.216 97.455,59.499 97.060,62.000 97.531 L 65.500 98.190 62.911 99.345 C 59.268 100.970,52.163 106.250,51.548 107.788 C 50.508 110.391,54.166 110.155,58.078 107.367 C 63.693 103.367,63.928 103.234,69.266 101.027 C 73.549 99.257,74.298 98.446,76.647 93.029 C 78.085 89.713,79.765 86.997,80.381 86.994 C 80.996 86.991,83.216 86.512,85.313 85.930 C 88.500 85.045,89.444 84.129,91.063 80.353 C 93.410 74.878,93.460 74.000,91.426 74.000 C 90.536 74.000,89.123 75.736,88.176 77.991 C 86.836 81.183,85.851 82.106,83.257 82.601 C 79.045 83.405,76.449 82.694,71.247 79.313 C 68.257 77.370,66.508 75.279,65.361 72.274 C 63.830 68.267,61.827 66.853,60.567 68.891 M75.362 76.500 C 73.952 80.172,78.013 83.416,80.680 80.748 C 82.903 78.525,81.506 75.000,78.401 75.000 C 77.046 75.000,75.678 75.675,75.362 76.500 M38.000 113.000 C 38.000 114.964,38.667 115.000,75.000 115.000 C 111.333 115.000,112.000 114.964,112.000 113.000 C 112.000 111.036,111.333 111.000,75.000 111.000 C 38.667 111.000,38.000 111.036,38.000 113.000 " stroke="none" fill="black" fill-rule="evenodd"/></svg>