<svg id="svg" version="1.1" width="150" height="150" xmlns="http://www.w3.org/2000/svg">
<path style="opacity:0.98000004;fill:#e4e200;fill-opacity:1" d="m 122.2633,104.54314 -45.588024,2.57275 -45.658126,0.47142 20.565937,-40.766757 22.4208,-39.776808 25.022082,38.194004 z" transform="matrix(1.1741905,0.03093426,-0.03302011,1.1910563,-11.332819,-6.4420034)" />
<path d="M69.427 28.680 C 67.461 31.881,54.386 54.429,40.371 78.786 C 21.891 110.903,15.060 123.614,15.514 125.044 C 16.129 126.981,17.182 127.011,74.711 126.758 C 126.355 126.531,133.398 126.317,134.260 124.949 C 135.744 122.597,78.316 23.631,75.207 23.180 C 73.451 22.926,72.269 24.051,69.427 28.680 M98.190 76.267 C 110.669 97.845,121.180 116.287,121.547 117.250 C 122.176 118.902,119.529 119.000,74.492 119.000 L 26.770 119.000 28.212 116.750 C 29.006 115.513,39.699 97.063,51.976 75.750 C 64.252 54.438,74.568 37.008,74.898 37.017 C 75.229 37.026,85.710 54.689,98.190 76.267 M74.684 47.702 C 74.381 48.193,74.545 49.249,75.051 50.048 C 76.184 51.839,76.295 57.000,75.200 57.000 C 74.760 57.000,73.899 56.499,73.287 55.888 C 72.676 55.276,71.611 54.963,70.921 55.193 C 70.071 55.476,70.397 56.292,71.929 57.720 L 74.192 59.828 71.596 61.414 C 70.168 62.286,67.875 63.685,66.500 64.523 C 65.125 65.361,64.000 66.711,64.000 67.523 C 64.000 68.335,63.341 69.000,62.535 69.000 C 61.730 69.000,60.605 69.869,60.037 70.931 C 58.656 73.511,61.128 76.000,65.071 76.000 C 67.529 76.000,68.000 75.598,68.000 73.500 C 68.000 71.198,68.362 71.000,72.566 71.000 C 77.115 71.000,80.839 69.691,82.235 67.600 C 83.621 65.524,82.999 62.077,80.882 60.104 C 79.487 58.805,78.696 56.732,78.565 54.034 C 78.372 50.069,75.808 45.884,74.684 47.702 M79.895 62.373 C 82.662 65.708,78.169 69.000,70.852 69.000 C 65.768 69.000,66.132 67.468,72.076 63.850 C 77.224 60.717,78.344 60.505,79.895 62.373 M65.362 72.500 C 65.706 73.396,65.370 74.000,64.528 74.000 C 62.883 74.000,61.768 72.565,62.694 71.639 C 63.748 70.586,64.751 70.909,65.362 72.500 M61.000 80.500 C 61.000 81.548,59.944 82.000,57.500 82.000 L 54.000 82.000 54.000 93.500 L 54.000 105.000 62.780 105.000 C 71.519 105.000,71.575 105.016,74.861 108.500 C 77.918 111.740,78.605 112.000,84.131 112.000 C 87.560 112.000,91.372 112.658,93.090 113.547 C 97.316 115.732,107.881 115.175,109.396 112.687 C 110.292 111.217,110.066 110.519,108.202 108.989 C 106.939 107.951,105.712 106.100,105.476 104.875 C 104.872 101.739,104.043 101.177,99.500 100.817 L 95.500 100.500 95.209 91.009 C 95.049 85.789,94.599 81.227,94.209 80.871 C 93.819 80.515,90.463 79.913,86.750 79.532 C 80.902 78.933,80.000 79.058,80.000 80.466 C 80.000 81.835,78.936 82.045,73.250 81.796 C 68.504 81.588,66.574 81.129,66.750 80.250 C 66.906 79.472,65.867 79.000,64.000 79.000 C 62.000 79.000,61.000 79.500,61.000 80.500 M89.788 93.750 L 90.075 103.000 73.623 103.000 L 57.171 103.000 56.835 96.750 C 56.651 93.313,56.642 89.026,56.815 87.226 L 57.130 83.951 73.315 84.226 L 89.500 84.500 89.788 93.750 M59.750 88.083 C 57.609 90.428,57.560 91.000,59.500 91.000 C 60.325 91.000,61.000 91.675,61.000 92.500 C 61.000 93.325,61.450 94.000,62.000 94.000 C 62.550 94.000,63.000 93.325,63.000 92.500 C 63.000 91.675,63.675 91.000,64.500 91.000 C 65.325 91.000,66.000 90.550,66.000 90.000 C 66.000 89.450,65.325 89.000,64.500 89.000 C 63.675 89.000,63.000 88.325,63.000 87.500 C 63.000 85.528,61.904 85.725,59.750 88.083 M81.003 89.750 C 81.001 90.512,82.365 91.000,84.500 91.000 C 86.739 91.000,88.000 90.523,88.000 89.675 C 88.000 88.813,86.777 88.376,84.503 88.425 C 82.414 88.470,81.005 89.003,81.003 89.750 " stroke="none" fill="black" fill-rule="evenodd"/></svg>