<svg id="svg" version="1.1" width="150" height="150" xmlns="http://www.w3.org/2000/svg">
<path style="opacity:0.98000004;fill:#e4e200;fill-opacity:1" d="m 122.2633,104.54314 -45.588024,2.57275 -45.658126,0.47142 20.565937,-40.766757 22.4208,-39.776808 25.022082,38.194004 z" transform="matrix(1.1741905,0.03093426,-0.03302011,1.1910563,-11.332819,-6.4420034)" />
<path d="M69.427 28.680 C 67.461 31.881,54.386 54.429,40.371 78.786 C 21.891 110.903,15.060 123.614,15.514 125.044 C 16.129 126.981,17.182 127.011,74.711 126.758 C 126.355 126.531,133.398 126.317,134.260 124.949 C 135.744 122.597,78.316 23.631,75.207 23.180 C 73.451 22.926,72.269 24.051,69.427 28.680 M98.190 76.267 C 110.669 97.845,121.180 116.287,121.547 117.250 C 122.176 118.902,119.529 119.000,74.492 119.000 L 26.770 119.000 28.212 116.750 C 29.006 115.513,39.699 97.063,51.976 75.750 C 64.252 54.438,74.568 37.008,74.898 37.017 C 75.229 37.026,85.710 54.689,98.190 76.267 M81.000 70.901 C 81.000 71.397,82.571 72.729,84.491 73.862 C 93.672 79.279,94.488 93.326,85.948 98.933 L 83.561 100.500 85.280 98.027 C 87.367 95.028,87.521 88.184,85.606 83.600 C 83.557 78.694,77.897 74.793,72.012 74.227 C 65.370 73.589,62.631 74.435,58.105 78.524 C 52.515 83.574,49.838 94.973,54.053 95.775 C 55.281 96.009,55.520 95.325,55.191 92.513 C 54.645 87.837,56.461 83.681,60.658 79.995 C 63.624 77.391,64.841 77.000,69.976 77.000 C 76.893 77.000,78.784 78.497,72.868 79.291 C 63.653 80.527,57.488 92.222,61.064 101.685 C 62.367 105.134,66.575 109.695,70.200 111.589 C 75.938 114.587,90.000 111.668,90.000 107.480 C 90.000 105.516,89.092 105.621,85.500 108.000 C 83.461 109.351,80.806 109.989,77.211 109.993 C 72.467 109.999,71.515 109.614,67.959 106.250 C 65.404 103.833,63.768 101.256,63.356 99.000 L 62.716 95.500 64.946 98.270 C 72.357 107.474,87.732 105.382,93.025 94.449 C 95.697 88.930,95.377 81.333,92.298 77.176 C 88.815 72.474,81.000 68.133,81.000 70.901 M81.546 84.038 C 83.790 85.901,85.174 91.411,84.105 94.225 C 82.792 97.679,78.300 101.000,74.942 101.000 C 71.335 101.000,66.326 96.760,65.502 93.009 C 64.093 86.595,70.860 80.239,77.170 82.049 C 78.833 82.526,80.802 83.421,81.546 84.038 " stroke="none" fill="black" fill-rule="evenodd"/></svg>