<svg id="svg" version="1.1" width="150" height="150" xmlns="http://www.w3.org/2000/svg">
<path style="opacity:0.98000004;fill:#e4e200;fill-opacity:1" d="m 122.2633,104.54314 -45.588024,2.57275 -45.658126,0.47142 20.565937,-40.766757 22.4208,-39.776808 25.022082,38.194004 z" transform="matrix(1.1741905,0.03093426,-0.03302011,1.1910563,-11.332819,-6.4420034)" />
<path d="M69.427 28.680 C 67.461 31.881,54.386 54.429,40.371 78.786 C 21.891 110.903,15.060 123.614,15.514 125.044 C 16.129 126.981,17.182 127.011,74.711 126.758 C 126.355 126.531,133.398 126.317,134.260 124.949 C 135.744 122.597,78.316 23.631,75.207 23.180 C 73.451 22.926,72.269 24.051,69.427 28.680 M98.190 76.267 C 110.669 97.845,121.180 116.287,121.547 117.250 C 122.176 118.902,119.529 119.000,74.492 119.000 L 26.770 119.000 28.212 116.750 C 29.006 115.513,39.699 97.063,51.976 75.750 C 64.252 54.438,74.568 37.008,74.898 37.017 C 75.229 37.026,85.710 54.689,98.190 76.267 M64.928 61.135 C 63.517 63.771,63.723 64.000,67.500 64.000 C 70.333 64.000,71.000 64.381,71.000 66.000 C 71.000 67.822,71.667 68.000,78.500 68.000 C 84.500 68.000,86.000 68.300,86.000 69.500 C 86.000 70.325,85.550 71.000,85.000 71.000 C 84.450 71.000,84.000 72.125,84.000 73.500 C 84.000 76.443,83.234 76.660,81.360 74.250 C 80.173 72.725,79.879 72.693,79.068 74.000 C 78.556 74.825,77.445 76.400,76.600 77.500 C 75.126 79.419,75.062 79.363,75.032 76.123 L 75.000 72.746 70.000 73.226 C 67.250 73.490,65.000 73.401,65.000 73.028 C 65.000 72.654,66.125 71.292,67.500 70.000 C 69.874 67.769,70.864 64.960,69.250 65.035 C 68.838 65.054,65.575 68.018,62.000 71.622 L 55.500 78.175 61.500 77.513 C 64.800 77.150,68.451 76.627,69.614 76.352 C 72.022 75.782,72.964 77.988,72.986 84.250 C 72.997 87.257,72.628 88.000,71.122 88.000 C 66.952 88.000,65.071 95.116,68.566 97.672 C 74.550 102.047,81.363 94.211,75.955 89.173 L 73.910 87.268 76.705 82.665 C 78.242 80.134,79.772 78.049,80.104 78.032 C 80.436 78.014,81.922 79.125,83.405 80.500 C 84.889 81.875,86.207 83.000,86.334 83.000 C 86.461 83.000,86.667 80.653,86.792 77.784 C 86.940 74.391,87.540 72.277,88.509 71.735 C 90.540 70.598,90.390 69.003,88.250 68.985 C 87.100 68.975,86.901 68.714,87.670 68.225 C 88.510 67.691,88.160 66.352,86.432 63.490 L 84.024 59.500 74.940 59.451 C 67.312 59.409,65.707 59.679,64.928 61.135 M86.376 85.463 C 86.067 86.267,86.577 89.222,87.509 92.028 C 88.441 94.834,88.978 97.355,88.703 97.631 C 87.958 98.375,73.017 100.925,69.163 100.965 C 66.460 100.993,64.611 102.168,59.413 107.159 C 55.886 110.546,53.000 113.696,53.000 114.159 C 53.000 114.621,54.666 115.000,56.702 115.000 C 59.509 115.000,61.199 114.230,63.690 111.815 L 66.976 108.631 67.613 111.815 L 68.250 115.000 74.755 115.000 L 81.260 115.000 80.753 110.505 C 80.250 106.041,80.271 106.004,83.873 105.066 C 85.868 104.547,89.171 103.823,91.214 103.456 C 96.336 102.539,97.330 101.073,95.669 96.889 C 94.929 95.025,93.539 91.362,92.579 88.750 C 91.314 85.305,90.299 84.000,88.886 84.000 C 87.814 84.000,86.685 84.658,86.376 85.463 " stroke="none" fill="black" fill-rule="evenodd"/></svg>