<svg id="svg" version="1.1" width="150" height="150" xmlns="http://www.w3.org/2000/svg">
<path style="opacity:0.98000004;fill:#e4e200;fill-opacity:1" d="m 122.2633,104.54314 -45.588024,2.57275 -45.658126,0.47142 20.565937,-40.766757 22.4208,-39.776808 25.022082,38.194004 z" transform="matrix(1.1741905,0.03093426,-0.03302011,1.1910563,-11.332819,-6.4420034)" />
<path d="M69.427 28.680 C 67.461 31.881,54.386 54.429,40.371 78.786 C 21.891 110.903,15.060 123.614,15.514 125.044 C 16.129 126.981,17.182 127.011,74.711 126.758 C 126.355 126.531,133.398 126.317,134.260 124.949 C 135.744 122.597,78.316 23.631,75.207 23.180 C 73.451 22.926,72.269 24.051,69.427 28.680 M98.194 76.270 C 110.676 97.846,121.186 116.287,121.551 117.250 C 122.177 118.901,119.527 119.000,74.492 119.000 L 26.770 119.000 28.212 116.750 C 29.006 115.513,39.699 97.063,51.976 75.750 C 64.252 54.438,74.568 37.009,74.898 37.020 C 75.229 37.031,85.712 54.693,98.194 76.270 M66.575 63.266 C 61.881 65.937,58.000 72.647,58.000 78.090 C 58.000 80.936,57.527 82.015,56.078 82.475 C 52.913 83.480,47.161 90.625,46.445 94.440 C 45.737 98.218,46.608 105.000,47.803 105.000 C 48.194 105.000,48.353 102.975,48.157 100.501 C 47.836 96.467,48.161 95.639,51.299 92.501 C 54.021 89.779,55.612 89.000,58.450 89.000 C 62.274 89.000,67.565 91.195,68.179 93.036 C 68.759 94.776,71.396 93.187,72.750 90.283 C 74.592 86.331,74.322 85.376,70.966 83.986 C 66.483 82.129,64.000 78.423,64.000 73.588 C 64.000 68.827,65.901 65.641,70.367 62.918 C 74.768 60.234,71.352 60.548,66.575 63.266 M78.585 62.329 C 88.635 67.005,88.572 80.676,78.484 84.005 C 74.763 85.233,74.068 86.982,76.500 89.000 C 77.325 89.685,78.000 90.827,78.000 91.539 C 78.000 93.803,80.328 93.717,83.857 91.322 C 85.739 90.045,88.589 89.000,90.189 89.000 C 97.133 89.000,102.722 95.162,101.669 101.655 C 100.935 106.178,102.733 105.942,103.584 101.404 C 104.841 94.703,100.903 86.552,94.912 83.454 C 92.430 82.171,92.000 81.356,92.000 77.934 C 92.000 70.051,86.070 62.621,78.834 61.439 L 75.500 60.894 78.585 62.329 M70.828 75.947 C 66.231 77.389,65.709 78.021,67.492 79.991 C 68.853 81.495,69.587 81.605,72.057 80.672 C 74.215 79.858,75.785 79.858,77.943 80.672 C 80.418 81.607,81.147 81.495,82.526 79.971 C 84.051 78.286,84.036 78.090,82.315 77.168 C 79.433 75.626,73.772 75.024,70.828 75.947 M59.000 92.480 C 59.000 95.983,61.639 101.009,64.869 103.655 C 69.187 107.193,70.873 103.623,66.887 99.380 C 65.725 98.143,64.471 95.639,64.100 93.815 C 63.613 91.419,62.812 90.411,61.213 90.180 C 59.411 89.920,59.000 90.347,59.000 92.480 M87.404 90.765 C 86.801 91.169,85.995 92.776,85.613 94.336 C 85.231 95.896,83.850 98.241,82.543 99.548 C 80.998 101.093,80.354 102.636,80.700 103.962 C 81.419 106.708,82.077 106.550,85.742 102.750 C 91.737 96.535,93.063 86.972,87.404 90.765 M70.970 94.018 C 70.274 94.449,70.103 96.033,70.516 98.232 C 71.357 102.716,69.059 107.384,64.701 110.040 C 60.610 112.535,58.414 112.503,53.485 109.875 L 49.500 107.751 51.500 110.013 C 55.977 115.078,64.361 116.387,70.914 113.044 C 74.720 111.102,74.777 111.102,78.586 113.044 C 85.267 116.450,94.086 115.081,98.500 109.952 L 100.500 107.628 96.882 109.814 C 87.955 115.207,78.344 109.162,79.174 98.677 C 79.495 94.615,79.441 94.540,75.793 93.939 C 73.754 93.603,71.584 93.639,70.970 94.018 " stroke="none" fill="black" fill-rule="evenodd"/></svg>