<svg id="svg" version="1.1" width="150" height="150" xmlns="http://www.w3.org/2000/svg">
<path style="opacity:0.98000004;fill:#e4e200;fill-opacity:1" d="m 122.2633,104.54314 -45.588024,2.57275 -45.658126,0.47142 20.565937,-40.766757 22.4208,-39.776808 25.022082,38.194004 z" transform="matrix(1.1741905,0.03093426,-0.03302011,1.1910563,-11.332819,-6.4420034)" />
<path d="M72.754 23.289 C 69.976 25.500,14.902 122.323,15.208 124.459 C 15.498 126.484,15.964 126.502,74.211 126.758 C 130.638 127.006,132.960 126.943,133.920 125.150 C 134.736 123.624,131.769 117.830,117.654 93.392 C 108.158 76.951,95.239 54.575,88.944 43.667 C 82.650 32.759,76.775 23.439,75.888 22.956 C 74.871 22.402,73.714 22.525,72.754 23.289 M98.833 77.577 C 111.575 99.619,122.000 117.957,122.000 118.327 C 122.000 118.697,100.588 119.000,74.417 119.000 C 48.246 119.000,26.983 118.636,27.167 118.191 C 28.949 113.864,74.620 36.250,75.068 36.786 C 75.397 37.178,86.091 55.535,98.833 77.577 M67.667 55.667 C 66.600 56.734,66.898 71.819,68.000 72.500 C 68.639 72.895,69.000 69.844,69.000 64.059 C 69.000 54.991,68.910 54.424,67.667 55.667 M75.310 64.500 C 75.315 67.800,75.502 69.029,75.725 67.232 C 75.947 65.435,75.943 62.735,75.715 61.232 C 75.486 59.729,75.304 61.200,75.310 64.500 M83.000 67.941 C 83.000 72.647,83.416 76.000,84.000 76.000 C 84.577 76.000,85.000 72.853,85.000 68.559 C 85.000 64.466,84.550 60.840,84.000 60.500 C 83.365 60.108,83.000 62.823,83.000 67.941 M60.320 75.000 C 60.320 78.575,60.502 80.037,60.723 78.250 C 60.945 76.463,60.945 73.537,60.723 71.750 C 60.502 69.963,60.320 71.425,60.320 75.000 M70.750 73.162 C 64.969 75.178,63.885 76.691,65.921 79.907 C 66.669 81.088,67.831 80.943,73.156 79.002 C 80.847 76.198,81.380 75.772,80.532 73.101 C 79.724 70.554,78.204 70.564,70.750 73.162 M84.750 80.447 C 81.651 84.331,81.439 85.000,83.313 85.000 C 84.927 85.000,90.000 79.838,90.000 78.195 C 90.000 75.933,87.494 77.007,84.750 80.447 M77.598 81.736 C 76.608 82.725,76.926 84.164,77.989 83.507 C 78.573 83.146,78.712 83.587,78.329 84.585 C 77.878 85.762,78.108 86.131,79.091 85.804 C 81.037 85.155,81.414 82.373,79.647 81.695 C 78.849 81.388,77.927 81.407,77.598 81.736 M57.590 84.627 C 56.796 86.696,58.674 89.000,61.155 89.000 C 62.998 89.000,65.234 85.296,64.324 83.750 C 63.468 82.297,58.222 82.980,57.590 84.627 M80.482 89.030 C 80.131 89.596,81.002 92.033,82.415 94.445 L 84.985 98.831 78.243 101.369 C 74.534 102.765,70.288 104.196,68.807 104.548 C 67.086 104.957,65.018 106.868,63.075 109.844 L 60.036 114.500 62.700 114.834 C 64.542 115.065,65.879 114.486,67.032 112.957 L 68.700 110.746 69.257 112.873 C 69.742 114.729,70.540 115.000,75.513 115.000 C 80.534 115.000,81.133 114.791,80.537 113.250 C 78.256 107.355,78.588 106.427,83.659 104.530 C 91.295 101.673,91.303 101.653,87.736 94.419 C 84.699 88.261,82.134 86.355,80.482 89.030 M67.750 94.080 C 66.755 94.660,66.000 96.285,66.000 97.850 C 66.000 102.799,70.166 104.684,73.345 101.171 C 75.613 98.665,75.420 96.407,72.777 94.557 C 70.193 92.746,70.061 92.734,67.750 94.080 " stroke="none" fill="black" fill-rule="evenodd"/></svg>