<svg id="svg" version="1.1" width="150" height="150" xmlns="http://www.w3.org/2000/svg">
<path style="opacity:0.98000004;fill:#e4e200;fill-opacity:1" d="m 122.2633,104.54314 -45.588024,2.57275 -45.658126,0.47142 20.565937,-40.766757 22.4208,-39.776808 25.022082,38.194004 z" transform="matrix(1.1741905,0.03093426,-0.03302011,1.1910563,-11.332819,-6.4420034)" />
<path d="M69.427 28.680 C 67.461 31.881,54.386 54.429,40.371 78.786 C 21.891 110.903,15.060 123.614,15.514 125.044 C 16.129 126.981,17.182 127.011,74.711 126.758 C 126.355 126.531,133.398 126.317,134.260 124.949 C 135.744 122.597,78.316 23.631,75.207 23.180 C 73.451 22.926,72.269 24.051,69.427 28.680 M98.190 76.267 C 110.669 97.845,121.180 116.287,121.547 117.250 C 122.176 118.902,119.529 119.000,74.492 119.000 L 26.770 119.000 28.212 116.750 C 29.006 115.513,39.699 97.063,51.976 75.750 C 64.252 54.438,74.568 37.008,74.898 37.017 C 75.229 37.026,85.710 54.689,98.190 76.267 M73.321 48.854 C 73.635 50.424,73.482 52.118,72.982 52.618 C 72.104 53.496,73.824 60.158,75.315 61.648 C 76.459 62.793,76.084 64.000,74.583 64.000 C 73.804 64.000,72.966 63.438,72.720 62.750 C 72.475 62.063,71.917 61.833,71.480 62.240 C 71.043 62.648,71.128 63.973,71.669 65.185 C 72.494 67.033,71.670 68.981,66.577 77.225 C 61.280 85.798,60.019 87.205,56.750 88.188 L 53.000 89.317 53.000 95.043 C 53.000 100.009,53.324 100.982,55.437 102.367 C 57.717 103.861,58.358 103.792,65.437 101.297 L 73.000 98.631 73.000 92.815 C 73.000 89.617,73.434 87.000,73.964 87.000 C 74.495 87.000,75.056 82.693,75.214 77.395 L 75.500 67.789 80.211 80.600 C 82.802 87.646,84.756 93.577,84.554 93.779 C 84.352 93.982,82.232 92.728,79.843 90.993 L 75.500 87.839 75.000 93.614 L 74.500 99.388 69.000 101.647 C 65.975 102.890,62.712 103.928,61.750 103.953 C 59.782 104.006,59.302 105.989,61.250 106.019 C 61.938 106.029,64.496 107.292,66.936 108.826 L 71.371 111.613 78.577 108.647 L 85.783 105.681 86.227 99.591 C 86.615 94.268,86.120 91.987,82.301 81.500 C 78.953 72.305,78.070 68.664,78.525 65.921 C 78.952 63.345,78.681 61.981,77.559 61.049 C 75.717 59.521,75.534 56.866,77.158 55.242 C 78.034 54.366,78.024 53.734,77.115 52.638 C 76.419 51.800,76.188 50.099,76.565 48.596 C 77.121 46.382,76.888 46.000,74.983 46.000 C 73.061 46.000,72.829 46.397,73.321 48.854 M73.000 78.622 C 73.000 85.189,72.798 86.077,71.541 85.034 C 70.646 84.291,68.900 84.083,67.025 84.495 L 63.968 85.166 68.229 78.083 C 70.572 74.187,72.604 71.000,72.745 71.000 C 72.885 71.000,73.000 74.430,73.000 78.622 M87.000 101.484 C 87.000 106.710,86.807 107.173,84.250 108.085 C 82.737 108.625,79.700 109.874,77.500 110.860 C 73.597 112.609,73.555 112.682,75.747 113.860 C 77.628 114.870,79.220 114.633,85.497 112.404 L 93.000 109.741 93.000 104.938 C 93.000 100.744,92.620 99.866,90.000 98.000 L 87.000 95.864 87.000 101.484 " stroke="none" fill="black" fill-rule="evenodd"/></svg>