<svg id="svg" version="1.1" width="150" height="150" xmlns="http://www.w3.org/2000/svg">
<path style="opacity:0.98000004;fill:#e4e200;fill-opacity:1" d="m 122.2633,104.54314 -45.588024,2.57275 -45.658126,0.47142 20.565937,-40.766757 22.4208,-39.776808 25.022082,38.194004 z" transform="matrix(1.1741905,0.03093426,-0.03302011,1.1910563,-11.332819,-6.4420034)" />
<path d="M69.426 28.680 C 67.461 31.881,54.384 54.423,40.366 78.774 C 21.790 111.046,15.051 123.586,15.510 125.032 C 16.130 126.985,17.062 127.012,74.711 126.758 C 126.355 126.531,133.398 126.317,134.260 124.949 C 135.744 122.597,78.316 23.631,75.207 23.180 C 73.451 22.926,72.269 24.051,69.426 28.680 M76.990 39.976 C 78.149 42.773,77.547 44.442,66.998 67.726 C 60.824 81.352,55.637 93.534,55.469 94.798 C 55.302 96.062,54.657 97.709,54.034 98.459 C 53.256 99.396,53.230 100.024,53.951 100.470 C 54.528 100.826,55.000 100.364,55.000 99.442 C 55.000 98.310,55.594 97.922,56.833 98.246 C 58.085 98.574,64.334 94.337,76.583 84.854 C 94.443 71.027,94.506 70.990,96.250 73.102 C 97.213 74.268,97.997 75.509,97.994 75.861 C 97.983 76.891,56.246 103.000,54.609 103.000 C 52.640 103.000,51.517 104.917,52.759 106.159 C 53.404 106.804,54.706 106.250,56.543 104.547 C 58.084 103.120,60.504 101.668,61.922 101.322 C 63.340 100.975,64.725 100.388,65.000 100.016 C 65.275 99.644,73.468 95.194,83.206 90.127 L 100.911 80.915 103.922 86.187 C 106.081 89.967,106.589 91.639,105.716 92.098 C 105.047 92.450,95.759 94.709,85.077 97.119 C 74.394 99.528,66.303 101.626,67.097 101.779 C 67.891 101.933,77.757 100.919,89.020 99.527 L 109.500 96.996 111.250 99.109 C 112.213 100.271,113.000 101.622,113.000 102.111 C 113.000 102.600,106.362 103.067,98.250 103.148 C 90.138 103.229,82.825 103.388,82.000 103.500 C 76.782 104.209,79.566 104.491,96.488 104.967 C 112.366 105.413,115.523 105.748,115.766 107.015 C 116.023 108.359,113.776 108.394,95.778 107.328 C 84.625 106.667,73.475 106.156,71.000 106.192 L 66.500 106.257 72.000 107.112 C 75.025 107.582,86.932 109.119,98.460 110.527 C 109.989 111.935,119.490 113.180,119.575 113.294 C 120.163 114.080,122.000 117.975,122.000 118.434 C 122.000 120.309,105.838 118.537,86.350 114.526 C 64.981 110.128,58.106 109.299,69.643 112.514 C 79.695 115.314,89.591 118.841,87.500 118.877 C 86.400 118.896,83.700 118.264,81.500 117.471 C 76.077 115.518,74.362 115.527,76.000 117.500 C 77.018 118.726,76.955 119.000,75.653 119.000 C 73.242 119.000,66.249 115.091,65.590 113.375 C 65.215 112.396,64.316 112.082,63.043 112.486 C 61.735 112.901,60.485 112.422,59.315 111.055 C 57.449 108.876,55.486 108.404,54.555 109.912 C 54.245 110.413,57.031 112.550,60.746 114.662 L 67.500 118.500 57.250 118.785 C 51.613 118.942,42.550 118.942,37.112 118.785 L 27.223 118.500 34.862 105.269 C 39.063 97.992,42.928 92.030,43.450 92.019 C 43.973 92.009,43.860 92.540,43.200 93.200 C 41.500 94.900,41.712 95.995,43.750 96.032 C 45.339 96.061,45.323 96.198,43.573 97.521 C 42.513 98.323,41.975 99.308,42.377 99.711 C 42.780 100.113,43.472 99.854,43.916 99.136 C 44.360 98.417,45.123 97.849,45.612 97.874 C 46.548 97.921,46.544 96.971,45.582 90.500 C 45.059 86.981,45.186 87.136,46.632 91.787 C 48.365 97.358,50.325 98.228,50.681 93.585 C 50.833 91.613,50.505 90.976,49.529 91.350 C 47.999 91.938,47.000 90.011,47.000 86.472 C 47.000 84.312,53.764 71.420,54.501 72.175 C 54.675 72.354,54.580 74.602,54.288 77.172 C 53.902 80.573,53.386 81.702,52.393 81.320 C 51.558 81.000,50.631 81.840,50.007 83.482 C 48.881 86.443,49.392 88.000,51.489 88.000 C 52.244 88.000,53.005 89.013,53.180 90.250 C 53.356 91.487,55.023 85.525,56.885 77.000 C 60.111 62.227,60.598 60.925,67.257 49.250 C 71.100 42.513,74.585 37.000,75.001 37.000 C 75.417 37.000,76.312 38.339,76.990 39.976 M80.000 49.000 C 79.361 50.194,78.613 50.946,78.338 50.671 C 78.063 50.396,78.361 49.194,79.000 48.000 C 79.639 46.806,80.387 46.054,80.662 46.329 C 80.937 46.604,80.639 47.806,80.000 49.000 M67.727 50.127 C 66.304 52.627,66.197 53.533,67.185 54.723 C 68.253 56.010,68.652 55.914,70.208 53.992 C 72.262 51.455,72.608 46.997,70.750 47.006 C 70.063 47.010,68.702 48.414,67.727 50.127 M86.031 55.351 L 88.339 59.703 77.419 72.965 C 70.406 81.483,66.383 85.646,66.174 84.601 C 65.995 83.707,65.433 83.233,64.924 83.547 C 63.550 84.396,63.805 85.711,65.467 86.349 C 66.445 86.724,70.697 82.751,78.216 74.436 C 88.239 63.354,89.638 62.152,90.749 63.672 C 91.437 64.612,92.000 65.705,92.000 66.101 C 92.000 67.178,60.657 95.995,59.500 95.981 C 55.275 95.931,56.117 93.884,69.093 72.649 C 76.369 60.742,82.637 51.000,83.022 51.000 C 83.407 51.000,84.761 52.958,86.031 55.351 M81.250 60.031 C 78.816 61.009,78.089 65.000,80.345 65.000 C 81.946 65.000,85.000 61.832,85.000 60.171 C 85.000 58.812,84.344 58.788,81.250 60.031 M58.676 77.402 C 58.051 79.031,58.891 80.186,60.139 79.414 C 61.275 78.712,61.250 76.000,60.107 76.000 C 59.616 76.000,58.972 76.631,58.676 77.402 M57.500 82.000 C 57.160 82.550,57.359 83.000,57.941 83.000 C 58.523 83.000,59.000 82.550,59.000 82.000 C 59.000 81.450,58.802 81.000,58.559 81.000 C 58.316 81.000,57.840 81.450,57.500 82.000 M88.519 90.979 C 86.835 92.840,86.831 92.998,88.451 93.619 C 89.591 94.057,91.067 93.387,92.814 91.640 L 95.455 89.000 92.882 89.000 C 91.468 89.000,89.504 89.891,88.519 90.979 M41.455 102.455 C 36.353 107.557,40.016 116.000,47.332 116.000 C 51.750 116.000,53.904 113.684,51.768 111.231 C 50.939 110.279,50.463 108.944,50.709 108.264 C 50.955 107.585,49.994 106.499,48.572 105.851 C 47.151 105.203,46.044 104.184,46.112 103.587 C 46.601 99.327,44.977 98.932,41.455 102.455 M48.500 102.000 C 48.840 102.550,49.766 103.000,50.559 103.000 C 51.352 103.000,52.000 102.550,52.000 102.000 C 52.000 101.450,51.073 101.000,49.941 101.000 C 48.809 101.000,48.160 101.450,48.500 102.000 M64.583 106.866 C 64.152 107.563,64.070 108.403,64.400 108.733 C 65.295 109.628,66.271 108.312,65.787 106.862 C 65.449 105.846,65.213 105.846,64.583 106.866 M70.500 109.000 C 70.840 109.550,71.541 110.000,72.059 110.000 C 72.577 110.000,73.000 109.550,73.000 109.000 C 73.000 108.450,72.298 108.000,71.441 108.000 C 70.584 108.000,70.160 108.450,70.500 109.000 M78.000 110.500 C 78.000 111.500,79.000 112.000,81.000 112.000 C 84.206 112.000,85.030 110.609,82.418 109.607 C 79.738 108.579,78.000 108.930,78.000 110.500 M117.250 110.662 C 116.563 110.940,115.438 110.940,114.750 110.662 C 114.063 110.385,114.625 110.158,116.000 110.158 C 117.375 110.158,117.938 110.385,117.250 110.662 M55.000 115.031 C 55.000 116.320,57.849 117.484,58.764 116.569 C 59.137 116.196,58.780 115.473,57.971 114.961 C 56.035 113.737,55.000 113.761,55.000 115.031 " stroke="none" fill="black" fill-rule="evenodd"/></svg>