<svg id="svg" version="1.1" width="150" height="150" xmlns="http://www.w3.org/2000/svg">
<path style="opacity:0.98000004;fill:#e4e200;fill-opacity:1" d="m 122.2633,104.54314 -45.588024,2.57275 -45.658126,0.47142 20.565937,-40.766757 22.4208,-39.776808 25.022082,38.194004 z" transform="matrix(1.1741905,0.03093426,-0.03302011,1.1910563,-11.332819,-6.4420034)" />
<path d="M69.427 28.680 C 67.461 31.881,54.386 54.429,40.371 78.786 C 21.891 110.903,15.060 123.614,15.514 125.044 C 16.129 126.981,17.182 127.011,74.711 126.758 C 126.355 126.531,133.398 126.317,134.260 124.949 C 135.744 122.597,78.316 23.631,75.207 23.180 C 73.451 22.926,72.269 24.051,69.427 28.680 M90.000 62.098 C 97.975 75.880,104.650 87.571,104.833 88.078 C 105.025 88.607,100.976 88.936,95.333 88.850 C 89.925 88.768,86.737 88.513,88.250 88.284 C 89.777 88.052,91.000 87.230,91.000 86.434 C 91.000 84.666,91.046 84.665,86.622 86.513 C 80.836 88.931,82.416 87.456,90.000 83.360 C 93.850 81.281,97.000 79.250,97.000 78.849 C 97.000 76.853,94.824 77.473,89.074 81.109 C 82.641 85.176,79.831 85.851,84.447 82.220 C 86.877 80.309,87.857 78.010,86.250 77.991 C 85.838 77.986,84.234 79.449,82.686 81.241 C 79.420 85.024,80.371 82.639,85.106 75.171 C 88.319 70.105,88.607 69.000,86.715 69.000 C 86.008 69.000,83.961 71.978,82.166 75.618 C 78.958 82.124,76.921 83.968,79.009 78.476 C 79.706 76.643,79.735 75.335,79.093 74.693 C 78.450 74.050,77.888 74.711,77.468 76.605 C 76.300 81.863,76.159 81.571,76.079 73.750 C 76.013 67.250,75.734 66.000,74.352 66.000 C 72.911 66.000,72.771 67.036,73.240 74.250 C 73.719 81.600,73.649 82.084,72.602 78.690 C 71.955 76.595,70.993 75.020,70.463 75.190 C 69.933 75.361,69.578 75.733,69.673 76.019 C 71.464 81.392,70.432 81.263,67.528 75.750 C 64.196 69.425,62.758 67.955,61.659 69.750 C 61.407 70.162,63.229 73.650,65.709 77.500 C 70.155 84.401,70.170 84.454,66.794 81.232 C 62.331 76.975,60.977 78.332,65.232 82.798 C 68.464 86.190,68.421 86.178,61.348 81.683 C 54.762 77.499,53.000 76.964,53.000 79.152 C 53.000 79.603,55.746 81.357,59.101 83.051 C 65.117 86.088,66.743 87.993,61.674 86.066 C 60.010 85.433,58.856 85.424,58.475 86.040 C 57.918 86.941,59.764 87.955,64.500 89.346 C 65.600 89.670,62.788 89.713,58.250 89.444 C 51.312 89.031,50.000 89.196,50.000 90.477 C 50.000 91.701,51.520 92.020,57.750 92.102 C 63.775 92.182,64.765 92.379,62.199 92.986 C 58.571 93.846,57.339 94.673,58.282 95.616 C 58.621 95.954,60.344 95.727,62.111 95.111 C 67.799 93.128,66.429 94.807,59.618 98.166 C 55.978 99.961,53.000 102.008,53.000 102.715 C 53.000 104.607,54.105 104.319,59.171 101.106 C 66.639 96.371,69.024 95.420,65.241 98.686 C 61.737 101.712,61.182 103.000,63.385 103.000 C 64.147 103.000,65.533 101.836,66.465 100.413 C 67.397 98.991,68.371 98.038,68.629 98.296 C 68.887 98.554,67.303 101.604,65.109 105.074 C 61.473 110.824,60.853 113.000,62.849 113.000 C 63.250 113.000,65.281 109.850,67.360 106.000 C 69.439 102.150,71.314 99.000,71.526 99.000 C 71.738 99.000,71.276 100.800,70.500 103.000 C 69.378 106.180,69.351 107.000,70.368 107.000 C 71.072 107.000,72.140 105.313,72.743 103.250 C 73.676 100.057,73.758 100.725,73.290 107.750 C 72.813 114.932,72.953 116.000,74.371 116.000 C 75.730 116.000,76.013 114.714,76.077 108.250 L 76.154 100.500 77.433 104.500 C 78.353 107.374,78.905 108.056,79.397 106.922 C 79.774 106.055,79.613 104.113,79.041 102.607 C 77.116 97.546,78.007 98.456,81.801 105.429 C 85.400 112.042,88.000 114.721,88.000 111.815 C 88.000 111.072,86.947 108.897,85.661 106.982 C 84.374 105.067,82.487 102.150,81.468 100.500 L 79.616 97.500 82.797 100.427 C 86.923 104.223,88.243 102.934,84.427 98.835 C 81.286 95.461,81.702 95.607,89.702 100.693 C 92.563 102.512,95.413 104.000,96.035 104.000 C 98.700 104.000,95.870 101.299,89.429 97.695 C 85.618 95.563,83.329 94.086,84.343 94.413 C 89.083 95.944,91.000 96.152,91.000 95.137 C 91.000 94.543,89.537 93.635,87.750 93.119 C 85.238 92.393,87.110 92.165,96.000 92.112 L 107.500 92.044 114.888 105.051 C 118.951 112.205,122.059 118.274,121.795 118.539 C 121.530 118.803,100.153 118.903,74.289 118.760 L 27.265 118.500 50.777 77.750 C 63.709 55.337,74.562 37.009,74.895 37.020 C 75.228 37.030,82.025 48.316,90.000 62.098 " stroke="none" fill="black" fill-rule="evenodd"/></svg>